<svg width="24" height="24" viewBox="0 0 24 24" fill="none" xmlns="http://www.w3.org/2000/svg">
<path d="M13.5178 3.33398C15.9241 3.28519 17.9535 4.92983 18.4982 7.15723C18.6661 7.84387 19.0437 8.46151 19.5598 8.94238C20.4002 9.72551 20.9112 10.8571 20.8625 12.1074C20.7789 14.252 19.0197 15.9882 16.8742 16.0449C15.4429 16.0827 14.1719 15.3871 13.4094 14.3066C13.0074 13.7372 12.455 13.2892 11.8039 13.0361C9.88718 12.2912 8.54112 10.4037 8.60272 8.20996C8.67767 5.54998 10.8573 3.38805 13.5178 3.33398Z" fill="#241A12" stroke="#241A12" stroke-width="0.125"/>
<path d="M14.4081 5.74463C15.8258 5.74479 16.9745 6.89435 16.9745 8.31201C16.9744 9.72954 15.8257 10.8783 14.4081 10.8784C12.9905 10.8784 11.8409 9.72964 11.8408 8.31201C11.8408 6.89425 12.9904 5.74463 14.4081 5.74463Z" fill="#241A12" stroke="#241A12" stroke-width="0.125"/>
<path d="M14.4078 5.74463C14.5588 5.74464 14.7065 5.75854 14.8502 5.78369C13.8205 6.1617 13.0856 7.15109 13.0856 8.31201C13.0856 9.47267 13.8209 10.4603 14.8502 10.8384C14.7064 10.8636 14.5589 10.8794 14.4078 10.8794C12.9901 10.8794 11.8405 9.72984 11.8405 8.31201C11.8405 6.89421 12.9899 5.74463 14.4078 5.74463Z" fill="#241A12" stroke="#241A12" stroke-width="0.125"/>
<path d="M3.26111 12.9395C3.97809 12.2039 5.1371 12.1355 5.93591 12.7812C8.60308 14.9385 11.777 16.383 15.1556 16.9766C16.1674 17.1545 16.8779 18.0727 16.7943 19.0967C16.7931 19.1104 16.7915 19.1244 16.7904 19.1377C16.6952 20.3047 15.6175 21.1379 14.4642 20.9355C10.4113 20.2243 6.60463 18.4925 3.40564 15.9043C2.49551 15.1679 2.41398 13.8073 3.23083 12.9688L3.23181 12.9697L3.26111 12.9395Z" fill="#241A12" stroke="#241A12" stroke-width="0.125"/>
<path d="M4.11176 12.4243C3.33868 13.3204 3.44895 14.6906 4.38226 15.4458C7.59781 18.0475 11.4244 19.7885 15.4985 20.5034C15.6857 20.5362 15.8711 20.5419 16.0512 20.5259C15.6222 20.8701 15.0538 21.0395 14.4643 20.936C10.4112 20.2248 6.60474 18.4922 3.4057 15.9038C2.49545 15.1673 2.41482 13.8078 3.23187 12.9692L3.26117 12.939C3.50417 12.6897 3.79844 12.5184 4.11176 12.4243Z" fill="#241A12" stroke="#241A12" stroke-width="0.125"/>
<path d="M20.4852 3.51467C18.2187 1.24818 15.2053 0 12 0C8.79465 0 5.78126 1.24818 3.51477 3.51467C1.24823 5.78117 0 8.79465 0 12C0 15.2053 1.24823 18.2187 3.51477 20.4852C5.78126 22.7517 8.79465 24 12 24C15.2053 24 18.2188 22.7517 20.4853 20.4852C22.7518 18.2187 24 15.2053 24 12C24 8.79465 22.7517 5.78117 20.4852 3.51467ZM12 23.1665C5.84271 23.1665 0.833387 18.1572 0.833387 12C0.833387 5.84266 5.84271 0.833341 12 0.833341C18.1573 0.833341 23.1665 5.84266 23.1665 11.9999C23.1665 18.1572 18.1572 23.1665 12 23.1665Z" fill="#241A12"/>
<path d="M4.56813 11.2106C4.59063 11.2142 4.61308 11.2159 4.63511 11.2159C4.83597 11.2159 5.01283 11.0704 5.04597 10.8657C5.37756 8.81595 6.59424 7.02515 8.38416 5.95242C8.58155 5.83415 8.64567 5.57822 8.52741 5.38078C8.409 5.18339 8.15307 5.11927 7.95577 5.23753C5.95459 6.43673 4.59419 8.4396 4.22332 10.7326C4.18652 10.9599 4.34097 11.1739 4.56813 11.2106Z" fill="#241A12"/>
<path d="M19.8867 8.5911C19.4258 8.16163 19.1067 7.62604 18.964 7.04236C18.5704 5.43249 17.4351 4.05521 15.9274 3.35804C15.7186 3.26148 15.4709 3.35247 15.3743 3.56139C15.2777 3.77031 15.3687 4.0179 15.5776 4.11451C16.8572 4.70616 17.8205 5.87475 18.1545 7.24036C18.3359 7.98234 18.7384 8.66024 19.3185 9.20085C20.1177 9.9456 20.5516 10.9997 20.509 12.0929C20.4324 14.058 18.8318 15.638 16.8651 15.69C15.6075 15.7229 14.4239 15.1294 13.6985 14.1017C13.247 13.4619 12.6361 12.9791 11.932 12.7055C10.0969 11.9923 8.90125 10.1892 8.9568 8.21859C8.99041 7.02351 9.4817 5.8965 10.3401 5.04511C11.1984 4.19382 12.3295 3.71162 13.5249 3.68734C13.7393 3.68293 13.9552 3.69315 14.1661 3.71771C14.3949 3.74415 14.6016 3.58046 14.6281 3.35186C14.6547 3.12329 14.4908 2.91644 14.2622 2.88991C14.014 2.86108 13.7605 2.84912 13.508 2.85414C12.0976 2.88273 10.7641 3.45072 9.75311 4.45341C8.74207 5.45625 8.16335 6.78506 8.12365 8.19515C8.05821 10.517 9.46731 12.6418 11.63 13.4823C12.1809 13.6965 12.6608 14.0768 13.0175 14.5823C13.8803 15.8048 15.2738 16.5248 16.7645 16.5248C16.8052 16.5248 16.8461 16.5242 16.8869 16.5232C19.2912 16.4596 21.2479 14.5279 21.3415 12.1255C21.3938 10.7895 20.8634 9.50136 19.8867 8.5911Z" fill="#241A12"/>
<path d="M16.355 10.1267C16.5457 10.2556 16.8047 10.2053 16.9335 10.0146C17.274 9.51052 17.4541 8.92145 17.4541 8.31104C17.4541 6.63124 16.0874 5.26465 14.4076 5.26465C12.7278 5.26465 11.3612 6.63128 11.3612 8.31104C11.3612 9.9908 12.7278 11.3574 14.4076 11.3574C14.8658 11.3574 15.3066 11.2581 15.7175 11.0621C15.9252 10.9631 16.0133 10.7144 15.9143 10.5067C15.8153 10.2989 15.5663 10.2108 15.3588 10.3099C15.0608 10.452 14.7407 10.5241 14.4076 10.5241C13.1873 10.5241 12.1945 9.53129 12.1945 8.311C12.1945 7.0907 13.1873 6.09794 14.4076 6.09794C15.6279 6.09794 16.6207 7.0907 16.6207 8.311C16.6207 8.75448 16.49 9.18226 16.2429 9.54807C16.1142 9.73885 16.1643 9.99783 16.355 10.1267Z" fill="#241A12"/>
<path d="M15.2382 16.5034C11.9476 15.9253 8.83528 14.5092 6.23762 12.4082C5.24027 11.6015 3.81307 11.6858 2.91841 12.6037L2.88898 12.6339C2.40556 13.1299 2.15173 13.811 2.19256 14.5024C2.23339 15.1938 2.56559 15.8402 3.10395 16.2758C3.65322 16.7202 4.22847 17.1461 4.81375 17.5414C5.00439 17.6703 5.26342 17.6201 5.39228 17.4294C5.52104 17.2387 5.47094 16.9797 5.2802 16.8509C4.71475 16.4688 4.15882 16.0573 3.62805 15.6279C3.26623 15.3351 3.05191 14.918 3.02449 14.4533C2.99702 13.9885 3.16085 13.549 3.48569 13.2157L3.51476 13.1859C4.10749 12.5776 5.05281 12.5219 5.71351 13.0563C8.42081 15.246 11.6646 16.7219 15.0941 17.3243C15.9309 17.4713 16.51 18.2206 16.441 19.0666L16.4375 19.1084C16.3997 19.5724 16.1759 19.9847 15.8074 20.2694C15.439 20.5539 14.9837 20.6663 14.5253 20.586C11.687 20.0879 8.98936 19.0923 6.50757 17.6268C6.30957 17.5099 6.05401 17.5756 5.93692 17.7738C5.81992 17.972 5.88568 18.2275 6.08387 18.3445C8.65228 19.861 11.444 20.8914 14.3814 21.4069C14.5226 21.4317 14.6646 21.4438 14.8061 21.4438C15.3487 21.4438 15.8824 21.2648 16.3171 20.9289C16.8652 20.5054 17.2119 19.8666 17.2683 19.1751L17.2717 19.1349C17.3758 17.8566 16.5017 16.7253 15.2382 16.5034Z" fill="#241A12"/>
<path d="M14.889 12.6165C15.1191 12.6165 15.3056 12.43 15.3056 12.1999C15.3056 11.9698 15.1191 11.7832 14.889 11.7832C14.6588 11.7832 14.4723 11.9698 14.4723 12.1999C14.4723 12.43 14.6588 12.6165 14.889 12.6165Z" fill="#241A12"/>
<path d="M15.7407 14.283C15.9708 14.283 16.1574 14.0965 16.1574 13.8664C16.1574 13.6363 15.9708 13.4497 15.7407 13.4497C15.5106 13.4497 15.324 13.6363 15.324 13.8664C15.324 14.0965 15.5106 14.283 15.7407 14.283Z" fill="#241A12"/>
<path d="M18.5186 11.9871C18.7487 11.9871 18.9353 11.8006 18.9353 11.5705C18.9353 11.3404 18.7487 11.1538 18.5186 11.1538C18.2885 11.1538 18.1019 11.3404 18.1019 11.5705C18.1019 11.8006 18.2885 11.9871 18.5186 11.9871Z" fill="#241A12"/>
</svg>
