<svg width="24" height="24" viewBox="0 0 24 24" fill="none" xmlns="http://www.w3.org/2000/svg">
<path d="M18.5542 5.01221H19.6177C20.6357 5.01221 21.4644 5.84082 21.4644 6.85889C21.4642 7.87687 20.6356 8.70459 19.6177 8.70459H18.3931C18.2248 8.7045 18.0884 8.5682 18.0884 8.3999C18.0885 8.23173 18.2248 8.09531 18.3931 8.09521H19.6177C20.2995 8.09521 20.8538 7.54071 20.854 6.85889C20.854 6.17693 20.2997 5.62158 19.6177 5.62158H18.5542C18.3858 5.62158 18.2495 5.48526 18.2495 5.31689C18.2496 5.14861 18.3859 5.01221 18.5542 5.01221Z" fill="#241A12" stroke="#241A12" stroke-width="0.125"/>
<path d="M16.0677 8.09521H17.0941C17.2623 8.09531 17.3986 8.23167 17.3987 8.3999C17.3987 8.56821 17.2624 8.7045 17.0941 8.70459H16.0677C15.5235 8.70459 15.0804 9.1477 15.0804 9.69189V10.5308C15.0802 10.699 14.944 10.8354 14.7757 10.8354C14.6075 10.8354 14.4712 10.6989 14.471 10.5308V9.69189C14.471 8.8116 15.1874 8.09521 16.0677 8.09521Z" fill="#241A12" stroke="#241A12" stroke-width="0.125"/>
<path d="M14.469 2.95801H15.3323C15.5006 2.95801 15.6369 3.09441 15.637 3.2627C15.637 3.43106 15.5007 3.56738 15.3323 3.56738H14.469C13.7476 3.56759 13.1606 4.15469 13.1604 4.87598C13.1604 5.59746 13.7475 6.18534 14.469 6.18555H16.8733C17.0417 6.18555 17.1779 6.32186 17.178 6.49023C17.1778 6.65846 17.0416 6.79492 16.8733 6.79492H14.469C13.4115 6.79472 12.551 5.93357 12.551 4.87598C12.5513 3.81858 13.4116 2.95821 14.469 2.95801Z" fill="#241A12" stroke="#241A12" stroke-width="0.125"/>
<path d="M9.69775 13.3467C9.89628 13.3467 10.057 13.5076 10.0571 13.7061C10.0571 13.9047 9.89636 14.0654 9.69775 14.0654C9.49925 14.0653 9.33838 13.9046 9.33838 13.7061C9.33851 13.5076 9.49933 13.3468 9.69775 13.3467Z" fill="#241A12" stroke="#241A12" stroke-width="0.125"/>
<path d="M11.4813 6.29932C11.6266 6.21472 11.8135 6.26425 11.8983 6.40967C12.2011 6.93 12.361 7.52519 12.3611 8.13037C12.3611 8.29873 12.2249 8.43603 12.0565 8.43604C11.8881 8.43604 11.7518 8.29873 11.7518 8.13037C11.7517 7.63289 11.6197 7.14386 11.3709 6.71631C11.2865 6.57087 11.3358 6.38395 11.4813 6.29932Z" fill="#241A12" stroke="#241A12" stroke-width="0.125"/>
<path d="M22.8553 17.2577H22.1623C22.1544 16.9482 22.0608 16.6598 21.9046 16.4149C22.3087 16.1969 22.5552 15.8807 22.5552 15.5168C22.5552 15.0282 22.1121 14.6251 21.4378 14.4313C21.5142 14.2938 21.5764 14.1558 21.6216 14.0203C21.7804 13.5438 21.7232 13.1368 21.4605 12.8742C21.298 12.7116 21.0729 12.6256 20.8096 12.6256C20.5298 12.6256 20.2165 12.7218 19.9031 12.896C19.7093 12.2223 19.3063 11.7796 18.818 11.7796C18.1283 11.7796 17.6082 12.6619 17.6082 13.8318C17.6082 14.0633 17.6287 14.2834 17.6668 14.4877C17.4658 14.5283 17.2722 14.6004 17.0938 14.7017C16.963 14.575 16.8154 14.468 16.6563 14.3832C16.9222 13.8973 16.9962 13.3184 16.8441 12.7695C16.6982 12.2434 16.158 12.094 15.6703 12.094C15.3141 12.094 14.963 12.1842 14.6517 12.3499C14.5737 12.2318 14.484 12.1203 14.3819 12.0181C13.8388 11.4751 13.0193 11.2613 12.2797 11.4661C11.9913 11.5461 11.7625 11.775 11.6827 12.0633C11.576 12.4482 11.5811 12.8478 11.6849 13.2198C11.6229 13.2907 11.5757 13.3705 11.5436 13.4556C11.353 13.28 11.1522 13.1193 10.9427 12.974C10.691 12.5482 10.2274 12.2617 9.69799 12.2617C9.64188 12.2617 9.58657 12.2653 9.53205 12.2715C8.63411 11.9774 7.66094 11.9215 6.73497 12.109C5.91179 11.2916 5.40109 10.16 5.40109 8.91103C5.40114 7.37072 6.39193 6.05822 7.7695 5.57536C8.14923 6.04743 8.37719 6.6465 8.37719 7.29806C8.37719 7.50098 8.54167 7.66542 8.74455 7.66542C8.94747 7.66542 9.11191 7.50094 9.11191 7.29806C9.11191 6.59784 8.90374 5.94562 8.54716 5.39864C8.6747 5.38462 8.80403 5.37689 8.93528 5.37689C9.50491 5.37689 10.0514 5.5492 10.5157 5.87517C10.6818 5.99179 10.9109 5.95162 11.0274 5.78559C11.144 5.61956 11.1039 5.39048 10.9379 5.27385C10.3493 4.8606 9.65688 4.64221 8.93528 4.64221C8.61349 4.64221 8.29994 4.67821 7.9983 4.74604C7.375 4.16559 6.54011 3.80957 5.62332 3.80957C3.26949 3.80957 1.35455 5.72451 1.3545 8.07839C1.35455 10.45 2.93762 12.4577 5.10212 13.1036C5.05074 13.2361 5.00495 13.3697 4.96431 13.5042C4.61846 13.2834 4.2407 13.1271 3.85684 13.0502C3.33694 12.9461 2.87396 13.4398 3.0113 13.9517L3.38621 15.351L1.98685 14.976C1.47403 14.8386 0.981424 15.3023 1.08544 15.8216C1.18753 16.3312 1.42922 16.8302 1.77657 17.2576H1.14469C0.513517 17.2577 0 17.7712 0 18.4024C0 19.0337 0.513517 19.5471 1.14469 19.5471H2.40891C3.0834 20.5058 4.19349 21.1046 5.40554 21.1046H14.7429C14.9458 21.1046 15.1102 20.9401 15.1102 20.7372C15.1102 20.5343 14.9458 20.3698 14.7429 20.3698H5.40554C4.62981 20.3698 3.90662 20.0626 3.37219 19.5471H20.6278C20.0933 20.0627 19.3701 20.3698 18.5944 20.3698H16.5061C16.3032 20.3698 16.1387 20.5343 16.1387 20.7372C16.1387 20.9401 16.3032 21.1046 16.5061 21.1046H18.5944C19.8064 21.1046 20.9166 20.5058 21.5911 19.5471H22.8553C23.4865 19.5471 24 19.0336 24 18.4024C24 17.7712 23.4865 17.2577 22.8553 17.2577ZM21.8204 15.5168C21.8204 15.6001 21.6509 15.7558 21.3287 15.8663C21.0876 15.7284 20.8087 15.649 20.5114 15.649C20.4255 15.649 20.3414 15.6564 20.2591 15.6691C20.4665 15.538 20.6716 15.3739 20.8648 15.1808C20.8987 15.1469 20.9315 15.1123 20.9638 15.0775C21.5228 15.1678 21.8204 15.4062 21.8204 15.5168ZM21.4265 17.2577H19.5963C19.6188 16.7722 20.0199 16.3837 20.5114 16.3837C21.0029 16.3837 21.404 16.7721 21.4265 17.2577ZM19.6734 13.9894C20.1079 13.5549 20.5572 13.3604 20.8096 13.3604C20.8719 13.3604 20.9199 13.3725 20.9411 13.3937C20.9758 13.4284 20.9999 13.562 20.9246 13.788C20.8312 14.0683 20.62 14.3867 20.3453 14.6613C20.0786 14.9281 19.8065 15.104 19.5776 15.2004C19.4507 15.0368 19.2985 14.8938 19.1264 14.778C19.1451 14.7317 19.1665 14.6833 19.1929 14.6321C19.3057 14.4132 19.4719 14.1909 19.6734 13.9894ZM18.818 12.5143C18.9285 12.5143 19.1669 12.8118 19.2572 13.3705C18.9198 13.6839 18.6246 14.0627 18.4494 14.4914C18.4387 14.4891 18.4282 14.4867 18.4176 14.4846C18.3726 14.3026 18.343 14.0846 18.343 13.8318C18.3429 12.976 18.6801 12.5143 18.818 12.5143ZM14.6643 13.2439C14.9282 12.9801 15.2948 12.8288 15.6703 12.8288C15.7989 12.8288 15.9268 12.8462 16.0508 12.8805C16.092 12.8919 16.1247 12.9246 16.1361 12.9657C16.2508 13.3799 16.1708 13.8198 15.9295 14.164C15.8691 14.1583 15.8082 14.1552 15.747 14.1552C15.6076 14.1552 15.47 14.1708 15.336 14.1999L15.4609 14.075C15.6043 13.9316 15.6043 13.6989 15.4609 13.5556C15.3173 13.4121 15.0848 13.4121 14.9413 13.5556L14.3919 14.105C14.3537 14.0639 14.3145 14.0238 14.2745 13.9843C14.3265 13.7081 14.4596 13.4486 14.6643 13.2439ZM12.3907 12.2595C12.4021 12.2183 12.4348 12.1856 12.4759 12.1742C12.5998 12.1399 12.7278 12.1225 12.8563 12.1225C13.2318 12.1225 13.5985 12.2738 13.8624 12.5377C13.9431 12.6185 14.0121 12.7081 14.07 12.8036C13.9846 12.8983 13.9082 12.9994 13.8419 13.106L13.5853 12.8495C13.4418 12.706 13.2093 12.706 13.0658 12.8495C12.9885 12.9268 12.9533 13.03 12.9593 13.1312C12.7803 13.0627 12.5978 13.0088 12.414 12.972C12.4018 12.9695 12.3896 12.9676 12.3773 12.9658C12.3235 12.7367 12.3256 12.4941 12.3907 12.2595ZM13.1217 16.1945L12.7986 15.8714C12.796 15.8495 12.792 15.8277 12.7862 15.8061L12.2309 13.7333C12.2284 13.7053 12.2413 13.6916 12.2695 13.6922C12.8134 13.8012 13.348 14.0961 13.7745 14.5226C14.1853 14.9335 14.4667 15.4279 14.5883 15.9524C14.6341 16.15 14.8312 16.2732 15.0291 16.2272C15.2268 16.1814 15.3499 15.9841 15.304 15.7864C15.2497 15.5521 15.17 15.3231 15.0675 15.1024C15.2666 14.9652 15.5024 14.89 15.7469 14.89C16.1016 14.89 16.4368 15.0483 16.6641 15.3175V16.09C16.6641 16.2929 16.8285 16.4574 17.0315 16.4574C17.2344 16.4574 17.3988 16.2929 17.3988 16.09V15.377C17.5918 15.2523 17.8173 15.1839 18.049 15.1839C18.6646 15.1839 19.1733 15.6499 19.2411 16.2477C19.012 16.5235 18.8704 16.8743 18.8605 17.2577H15.2797C15.2975 17.1967 15.314 17.1351 15.3274 17.0722C15.3695 16.8738 15.2428 16.6787 15.0444 16.6366C14.846 16.5945 14.6509 16.7212 14.6087 16.9196C14.5834 17.039 14.5468 17.1515 14.5008 17.2577H10.8269C10.4564 16.8508 10.1999 16.3605 10.1 15.862C10.0993 15.8337 10.1131 15.8208 10.1412 15.8232L12.2136 16.3785C12.2353 16.3843 12.2572 16.3883 12.2792 16.3909L12.6023 16.7139C12.7548 16.8664 13.0135 16.8521 13.1486 16.6841C13.2644 16.54 13.2524 16.3252 13.1217 16.1945ZM11.1018 14.0481C11.1326 14.0775 11.1633 14.107 11.1935 14.1373C11.4298 14.3736 11.6222 14.613 11.7724 14.8607L11.9569 15.5492L10.3314 15.1136C10.2626 15.0952 10.1931 15.0867 10.1243 15.0873C10.6067 14.9381 10.9815 14.5424 11.1018 14.0481ZM9.69799 12.9965C10.0896 12.9965 10.4082 13.3151 10.4082 13.7067C10.4082 14.0983 10.0896 14.4169 9.69799 14.4169C9.30639 14.4169 8.98778 14.0983 8.98778 13.7067C8.98778 13.3151 9.30639 12.9965 9.69799 12.9965ZM7.82411 12.735C8.07902 12.735 8.33097 12.7553 8.57814 12.7948C8.37513 13.0437 8.25302 13.3612 8.25302 13.7067C8.25302 14.5034 8.90116 15.1516 9.69794 15.1516C9.74632 15.1516 9.79413 15.1491 9.84133 15.1444C9.75625 15.1794 9.67675 15.2298 9.60705 15.2953C9.4121 15.4782 9.32697 15.7439 9.37947 16.0063C9.46657 16.4409 9.64638 16.8683 9.90091 17.2577H5.98328C5.35318 16.0262 5.28118 14.5612 5.84054 13.2351C5.86346 13.1807 5.90795 13.1363 5.96237 13.1135C6.55787 12.8623 7.18426 12.735 7.82411 12.735ZM2.08908 8.07844C2.08913 6.12975 3.67449 4.54429 5.62323 4.54429C6.19754 4.54429 6.73126 4.72124 7.17306 5.02321C5.69598 5.69536 4.66642 7.18523 4.66637 8.91108C4.66637 10.2177 5.14698 11.4139 5.94029 12.3331C5.85203 12.3652 5.76432 12.3996 5.67718 12.4364C5.6499 12.4479 5.62342 12.4607 5.5975 12.4746C3.59134 12.0178 2.08913 10.2209 2.08908 8.07844ZM3.7104 16.1949L3.9924 16.4769C4.14493 16.6293 4.40363 16.615 4.53873 16.447C4.65465 16.3029 4.64265 16.0881 4.51192 15.9573L4.23006 15.6755C4.22752 15.6585 3.72385 13.7729 3.72385 13.7729C4.09801 13.85 4.46659 14.0267 4.78923 14.2797C4.63637 15.2941 4.77174 16.3241 5.17281 17.2578H2.82371C2.72588 17.1826 2.63138 17.1008 2.54194 17.0113C2.16661 16.636 1.90622 16.1668 1.80793 15.6888C1.80793 15.6888 3.69324 16.1925 3.7104 16.1949ZM22.8553 18.8124H1.14469C0.918611 18.8124 0.734673 18.6285 0.734673 18.4024C0.734673 18.1763 0.918611 17.9924 1.14469 17.9924H22.8553C23.0813 17.9924 23.2653 18.1763 23.2653 18.4024C23.2654 18.6285 23.0814 18.8124 22.8553 18.8124Z" fill="#241A12"/>
</svg>
