<svg width="24" height="24" viewBox="0 0 24 24" fill="none" xmlns="http://www.w3.org/2000/svg">
<mask id="path-1-inside-1_60513_932" fill="white">
<path d="M22.316 16.2068C21.5394 15.1005 20.3188 14.4661 18.9672 14.4661H18.6439C18.8229 14.0272 19.2538 13.7167 19.7564 13.7167C20.0061 13.7167 20.2086 13.5143 20.2086 13.2645C20.2086 13.0148 20.0061 12.8123 19.7564 12.8123C19.2153 12.8123 18.7214 13.0175 18.3479 13.3541C18.0752 12.7415 17.5537 12.2637 16.9123 12.0491L17.1886 8.22823H17.7283C17.8628 8.22823 17.9905 8.16823 18.0764 8.06464C18.1623 7.961 18.1976 7.8245 18.1726 7.69222L17.6176 4.74992C17.5773 4.53631 17.3907 4.38153 17.1733 4.38153H15.1526L15.702 1.24836C15.7248 1.11819 15.8056 1.00948 15.9236 0.950046C16.0416 0.890656 16.177 0.890375 16.2951 0.949437L18.758 2.1808C18.9815 2.2925 19.253 2.20194 19.3647 1.97858C19.4764 1.75517 19.3859 1.48358 19.1625 1.37192L16.6996 0.140609C16.3234 -0.0475004 15.8922 -0.0468442 15.5166 0.142437C15.1409 0.331718 14.8838 0.67789 14.8111 1.09222L14.2343 4.38162H5.2574C5.03999 4.38162 4.85334 4.53636 4.81302 4.75002L4.25802 7.69231C4.23309 7.82459 4.26834 7.96109 4.35426 8.06473C4.44018 8.16838 4.56782 8.22833 4.7024 8.22833H5.24202L5.6781 14.2677H3.79804C2.21981 14.2677 0.935852 15.5517 0.935852 17.1299V17.7799C0.935852 17.9631 1.04498 18.1205 1.20163 18.1916C1.03316 18.466 0.935852 18.7885 0.935852 19.1333C0.935852 19.4782 1.03316 19.8007 1.20163 20.0751C1.04498 20.1462 0.935852 20.3036 0.935852 20.4868V21.9122C0.935852 23.0628 1.87195 23.999 3.02263 23.999H8.46027C8.46262 23.999 8.46491 23.9988 8.46721 23.9988H16.9113L16.901 23.9914C16.9183 23.9901 16.9357 23.9899 16.953 23.9883C17.1612 23.969 17.3679 23.9235 17.5674 23.8531C17.7398 23.7922 17.9198 23.7613 18.1025 23.7613C18.1887 23.7613 18.2748 23.7682 18.358 23.7817C18.454 23.7973 18.548 23.8213 18.6372 23.8529C18.9146 23.9511 19.2004 24 19.4835 24C19.8308 24 20.1741 23.9264 20.4934 23.78C20.731 23.6707 20.9525 23.5311 21.1516 23.3649C21.1551 23.3621 21.1586 23.3592 21.1621 23.3563C21.3887 23.1658 21.5844 22.9434 21.7439 22.6953C21.863 22.51 21.9613 22.3108 22.0362 22.1034L22.8151 19.9478C23.2746 18.6765 23.0925 17.3131 22.316 16.2068ZM17.6504 14.3278V14.4661H17.5121C16.686 14.4661 16.0139 13.794 16.0139 12.968V12.8297H16.1522C16.9784 12.8297 17.6504 13.5017 17.6504 14.3278ZM5.66277 7.32373C5.66165 7.32373 5.66048 7.32392 5.65935 7.32392H5.24793L5.63231 5.28603H16.7983L17.1827 7.32392H16.7714C16.7702 7.32392 16.7691 7.32373 16.7679 7.32373H5.66277ZM1.84026 17.1299C1.84026 16.0504 2.71851 15.1721 3.79804 15.1721H7.68492C8.76445 15.1721 9.6427 16.0504 9.6427 17.1299V17.3277H8.74143H2.74152H1.84026V17.1299ZM9.64274 21.9122C9.64274 22.5641 9.11235 23.0946 8.46032 23.0946H3.02268C2.37074 23.0945 1.84026 22.5642 1.84026 21.9122V20.939H2.74152H8.74148H9.64274V21.9122ZM8.74148 20.0346H2.74152C2.2446 20.0346 1.84026 19.6303 1.84026 19.1333C1.84026 18.6364 2.2446 18.2321 2.74152 18.2321H8.74148C9.2384 18.2321 9.64274 18.6364 9.64274 19.1333C9.64274 19.6303 9.2384 20.0346 8.74148 20.0346ZM10.1787 23.0943C10.4108 22.758 10.5471 22.3507 10.5471 21.9121V20.4867C10.5471 20.3035 10.438 20.1461 10.2814 20.075C10.4498 19.8006 10.5471 19.4781 10.5471 19.1332C10.5471 18.7884 10.4498 18.4658 10.2814 18.1915C10.438 18.1204 10.5471 17.963 10.5471 17.7798V17.1298C10.5471 15.5516 9.2632 14.2676 7.68496 14.2676H6.5849L6.14882 8.22828H16.2819L16.0146 11.9252H15.5618C15.312 11.9252 15.1096 12.1277 15.1096 12.3774V12.968C15.1096 13.6493 15.3952 14.2648 15.8524 14.7025C15.0702 14.9806 14.388 15.4962 13.8893 16.2067C13.1127 17.3129 12.9307 18.6765 13.39 19.9476L14.1691 22.1033C14.3022 22.4717 14.5091 22.8085 14.7716 23.0943L10.1787 23.0943ZM21.9647 19.6404L21.1857 21.7962C21.1338 21.94 21.0657 22.078 20.9833 22.2063C20.875 22.3747 20.7425 22.5262 20.5892 22.6565C20.5859 22.6591 20.5827 22.6618 20.5795 22.6645C20.4399 22.7822 20.2839 22.881 20.1161 22.9581C19.7521 23.1252 19.3341 23.1402 18.9391 23.0003C18.7994 22.9508 18.653 22.9135 18.5036 22.889C18.3721 22.8677 18.2372 22.8568 18.1026 22.8568C17.8172 22.8568 17.5359 22.9051 17.2665 23.0001C17.1372 23.0458 17.0038 23.0752 16.8695 23.0876C16.5987 23.113 16.3289 23.0681 16.0891 22.9581C15.587 22.7278 15.2072 22.3151 15.0196 21.796L14.2405 19.6404C13.8827 18.6502 14.0246 17.5881 14.6294 16.7264C15.2343 15.8647 16.185 15.3704 17.2378 15.3704H18.9672C20.0201 15.3704 20.9709 15.8646 21.5759 16.7264C22.1806 17.5881 22.3225 18.6502 21.9647 19.6404Z"/>
</mask>
<path d="M22.316 16.2068C21.5394 15.1005 20.3188 14.4661 18.9672 14.4661H18.6439C18.8229 14.0272 19.2538 13.7167 19.7564 13.7167C20.0061 13.7167 20.2086 13.5143 20.2086 13.2645C20.2086 13.0148 20.0061 12.8123 19.7564 12.8123C19.2153 12.8123 18.7214 13.0175 18.3479 13.3541C18.0752 12.7415 17.5537 12.2637 16.9123 12.0491L17.1886 8.22823H17.7283C17.8628 8.22823 17.9905 8.16823 18.0764 8.06464C18.1623 7.961 18.1976 7.8245 18.1726 7.69222L17.6176 4.74992C17.5773 4.53631 17.3907 4.38153 17.1733 4.38153H15.1526L15.702 1.24836C15.7248 1.11819 15.8056 1.00948 15.9236 0.950046C16.0416 0.890656 16.177 0.890375 16.2951 0.949437L18.758 2.1808C18.9815 2.2925 19.253 2.20194 19.3647 1.97858C19.4764 1.75517 19.3859 1.48358 19.1625 1.37192L16.6996 0.140609C16.3234 -0.0475004 15.8922 -0.0468442 15.5166 0.142437C15.1409 0.331718 14.8838 0.67789 14.8111 1.09222L14.2343 4.38162H5.2574C5.03999 4.38162 4.85334 4.53636 4.81302 4.75002L4.25802 7.69231C4.23309 7.82459 4.26834 7.96109 4.35426 8.06473C4.44018 8.16838 4.56782 8.22833 4.7024 8.22833H5.24202L5.6781 14.2677H3.79804C2.21981 14.2677 0.935852 15.5517 0.935852 17.1299V17.7799C0.935852 17.9631 1.04498 18.1205 1.20163 18.1916C1.03316 18.466 0.935852 18.7885 0.935852 19.1333C0.935852 19.4782 1.03316 19.8007 1.20163 20.0751C1.04498 20.1462 0.935852 20.3036 0.935852 20.4868V21.9122C0.935852 23.0628 1.87195 23.999 3.02263 23.999H8.46027C8.46262 23.999 8.46491 23.9988 8.46721 23.9988H16.9113L16.901 23.9914C16.9183 23.9901 16.9357 23.9899 16.953 23.9883C17.1612 23.969 17.3679 23.9235 17.5674 23.8531C17.7398 23.7922 17.9198 23.7613 18.1025 23.7613C18.1887 23.7613 18.2748 23.7682 18.358 23.7817C18.454 23.7973 18.548 23.8213 18.6372 23.8529C18.9146 23.9511 19.2004 24 19.4835 24C19.8308 24 20.1741 23.9264 20.4934 23.78C20.731 23.6707 20.9525 23.5311 21.1516 23.3649C21.1551 23.3621 21.1586 23.3592 21.1621 23.3563C21.3887 23.1658 21.5844 22.9434 21.7439 22.6953C21.863 22.51 21.9613 22.3108 22.0362 22.1034L22.8151 19.9478C23.2746 18.6765 23.0925 17.3131 22.316 16.2068ZM17.6504 14.3278V14.4661H17.5121C16.686 14.4661 16.0139 13.794 16.0139 12.968V12.8297H16.1522C16.9784 12.8297 17.6504 13.5017 17.6504 14.3278ZM5.66277 7.32373C5.66165 7.32373 5.66048 7.32392 5.65935 7.32392H5.24793L5.63231 5.28603H16.7983L17.1827 7.32392H16.7714C16.7702 7.32392 16.7691 7.32373 16.7679 7.32373H5.66277ZM1.84026 17.1299C1.84026 16.0504 2.71851 15.1721 3.79804 15.1721H7.68492C8.76445 15.1721 9.6427 16.0504 9.6427 17.1299V17.3277H8.74143H2.74152H1.84026V17.1299ZM9.64274 21.9122C9.64274 22.5641 9.11235 23.0946 8.46032 23.0946H3.02268C2.37074 23.0945 1.84026 22.5642 1.84026 21.9122V20.939H2.74152H8.74148H9.64274V21.9122ZM8.74148 20.0346H2.74152C2.2446 20.0346 1.84026 19.6303 1.84026 19.1333C1.84026 18.6364 2.2446 18.2321 2.74152 18.2321H8.74148C9.2384 18.2321 9.64274 18.6364 9.64274 19.1333C9.64274 19.6303 9.2384 20.0346 8.74148 20.0346ZM10.1787 23.0943C10.4108 22.758 10.5471 22.3507 10.5471 21.9121V20.4867C10.5471 20.3035 10.438 20.1461 10.2814 20.075C10.4498 19.8006 10.5471 19.4781 10.5471 19.1332C10.5471 18.7884 10.4498 18.4658 10.2814 18.1915C10.438 18.1204 10.5471 17.963 10.5471 17.7798V17.1298C10.5471 15.5516 9.2632 14.2676 7.68496 14.2676H6.5849L6.14882 8.22828H16.2819L16.0146 11.9252H15.5618C15.312 11.9252 15.1096 12.1277 15.1096 12.3774V12.968C15.1096 13.6493 15.3952 14.2648 15.8524 14.7025C15.0702 14.9806 14.388 15.4962 13.8893 16.2067C13.1127 17.3129 12.9307 18.6765 13.39 19.9476L14.1691 22.1033C14.3022 22.4717 14.5091 22.8085 14.7716 23.0943L10.1787 23.0943ZM21.9647 19.6404L21.1857 21.7962C21.1338 21.94 21.0657 22.078 20.9833 22.2063C20.875 22.3747 20.7425 22.5262 20.5892 22.6565C20.5859 22.6591 20.5827 22.6618 20.5795 22.6645C20.4399 22.7822 20.2839 22.881 20.1161 22.9581C19.7521 23.1252 19.3341 23.1402 18.9391 23.0003C18.7994 22.9508 18.653 22.9135 18.5036 22.889C18.3721 22.8677 18.2372 22.8568 18.1026 22.8568C17.8172 22.8568 17.5359 22.9051 17.2665 23.0001C17.1372 23.0458 17.0038 23.0752 16.8695 23.0876C16.5987 23.113 16.3289 23.0681 16.0891 22.9581C15.587 22.7278 15.2072 22.3151 15.0196 21.796L14.2405 19.6404C13.8827 18.6502 14.0246 17.5881 14.6294 16.7264C15.2343 15.8647 16.185 15.3704 17.2378 15.3704H18.9672C20.0201 15.3704 20.9709 15.8646 21.5759 16.7264C22.1806 17.5881 22.3225 18.6502 21.9647 19.6404Z" fill="#241A12" stroke="#241A12" stroke-width="0.25" mask="url(#path-1-inside-1_60513_932)"/>
</svg>
