<svg width="24" height="24" viewBox="0 0 24 24" fill="none" xmlns="http://www.w3.org/2000/svg">
<path d="M4.20044 6.17969C4.7049 5.67532 5.40102 5.48292 6.05688 5.67578V5.67676L6.06274 5.67773C6.14268 5.6939 6.21856 5.75169 6.26587 5.8291C6.31288 5.90617 6.32699 5.99484 6.29614 6.07227L6.35376 6.0957L6.29517 6.07227L6.29321 6.08398C6.27756 6.16167 6.22165 6.22823 6.1438 6.27148C6.06639 6.31436 5.97245 6.33061 5.88892 6.31445C5.46632 6.18925 5.00463 6.31788 4.67114 6.65137C4.63501 6.68747 4.60158 6.71256 4.56567 6.72852C4.52993 6.7444 4.48845 6.75293 4.43579 6.75293C4.38345 6.75291 4.34248 6.74425 4.30688 6.72852C4.27091 6.71253 4.23665 6.68758 4.20044 6.65137C4.06497 6.51586 4.06499 6.31514 4.20044 6.17969Z" fill="#241A12" stroke="#241A12" stroke-width="0.124886"/>
<path d="M7.99286 2.48145C8.414 2.48147 8.83157 2.67223 9.05829 3.00977V3.01074C9.16327 3.18589 9.12517 3.38507 8.95966 3.48438C8.78448 3.58946 8.58437 3.5513 8.48505 3.38574C8.43597 3.29107 8.35393 3.23337 8.27118 3.2002C8.18729 3.16664 8.09876 3.15627 8.0329 3.15625C7.90289 3.15625 7.78346 3.18798 7.6911 3.23145C7.64495 3.25318 7.60438 3.27874 7.57196 3.30469C7.54649 3.3251 7.52556 3.34937 7.50946 3.37402C7.39127 3.49222 7.28621 3.55566 7.19305 3.55566C7.13101 3.55552 7.06682 3.52307 7.03778 3.49414L7.03192 3.48828L7.02606 3.48438L6.96942 3.44238C6.85297 3.33527 6.83454 3.1629 6.92645 3.00977C7.01878 2.86264 7.17966 2.73082 7.37177 2.63477C7.56387 2.53877 7.78398 2.48145 7.99286 2.48145Z" fill="#241A12" stroke="#241A12" stroke-width="0.124886"/>
<path d="M13.5875 12.0728C13.6932 12.0728 13.7769 12.1079 13.8336 12.1646C13.89 12.2212 13.9243 12.3042 13.9244 12.4097C13.9244 12.8838 14.3126 13.272 14.7867 13.272C14.8921 13.272 14.9752 13.3064 15.0318 13.3628C15.0884 13.4194 15.1236 13.5032 15.1236 13.6089C15.1236 13.7145 15.0884 13.7974 15.0318 13.854C14.9752 13.9106 14.8923 13.9458 14.7867 13.9458C13.942 13.9458 13.2505 13.2544 13.2505 12.4097C13.2506 12.3041 13.2857 12.2212 13.3423 12.1646C13.399 12.1079 13.4819 12.0728 13.5875 12.0728Z" fill="#241A12" stroke="#241A12" stroke-width="0.124886"/>
<path d="M14.7863 10.874C15.631 10.874 16.3224 11.5655 16.3224 12.4102C16.3224 12.5158 16.2873 12.5986 16.2307 12.6553C16.174 12.7119 16.0912 12.747 15.9855 12.7471C15.8798 12.7471 15.7961 12.7119 15.7394 12.6553C15.683 12.5987 15.6486 12.5156 15.6486 12.4102C15.6486 11.9361 15.2604 11.5479 14.7863 11.5479C14.6809 11.5478 14.5978 11.5135 14.5412 11.457C14.4846 11.4004 14.4494 11.3166 14.4494 11.2109C14.4494 11.1053 14.4846 11.0224 14.5412 10.9658C14.5978 10.9092 14.6807 10.8741 14.7863 10.874Z" fill="#241A12" stroke="#241A12" stroke-width="0.124886"/>
<mask id="path-5-inside-1_60513_2206" fill="white">
<path d="M23.8982 2.93849L21.7002 0.500682C21.3006 0.0610664 20.7411 -0.0987725 20.2216 0.0610664C19.7021 0.220905 19.3024 0.660568 19.1825 1.18008L18.4551 4.41713H17.1435C17.0138 3.78424 16.5823 3.2437 15.9854 2.97844C15.8655 2.05926 15.1462 1.33992 14.227 1.22003C13.9073 0.500682 13.1879 0.0211184 12.3887 0.0211184C11.8692 0.0211184 11.3496 0.220952 10.99 0.620573C10.6303 0.220952 10.1108 0.0211184 9.59122 0.0211184C9.11784 0.0211184 8.68352 0.177211 8.32642 0.48874C8.24667 0.41067 8.15909 0.340468 8.06482 0.279727C7.81684 0.107571 7.51599 0.0211184 7.19341 0.0211184C6.43411 0.0211184 5.79466 0.54063 5.63482 1.22003C4.6358 1.18008 3.79656 1.89942 3.63667 2.85855C2.83739 3.01839 2.19798 3.65784 2.03815 4.45708C1.11897 4.61692 0.399621 5.45616 0.399621 6.41528C0.399621 6.89339 0.56049 7.32734 0.831603 7.66805C0.340987 7.8174 0 8.26277 0 8.81315C0 9.35767 0.333868 9.79916 0.816148 9.95314L1.51863 22.4807C1.55858 23.3199 2.27793 23.9993 3.11716 23.9993H3.75657H5.59488H10.5903H11.1898H13.5876H15.9854H18.3833H18.9827C19.9818 23.9993 20.7811 23.2001 20.861 22.201L21.5621 6.815H21.98C22.2198 6.815 22.3796 6.65516 22.3796 6.41538V4.81685C22.3796 4.57707 22.2198 4.41723 21.98 4.41723H19.2903L19.9818 1.34001C20.0618 1.06028 20.2216 0.900396 20.4614 0.8205C20.7012 0.780552 20.941 0.8205 21.1008 1.02033L23.2988 3.4581C23.4586 3.61794 23.6984 3.65793 23.8583 3.49805C24.0181 3.33811 24.0581 3.09833 23.8982 2.93849ZM2.39782 5.21642C2.6376 5.21642 2.79744 5.05658 2.79744 4.8168C2.79744 4.1374 3.31695 3.61789 3.99635 3.61789C4.43596 3.61789 4.83558 3.85767 5.03542 4.21735C5.11536 4.33724 5.2752 4.41718 5.39509 4.41718C5.43504 4.41718 5.51498 4.41718 5.59492 4.37723C5.75476 4.25734 5.83471 4.01756 5.71481 3.81773C5.4319 3.34622 4.97561 2.99938 4.44378 2.87232C4.58662 2.37028 5.03663 2.01936 5.59492 2.01936C5.67487 2.01936 5.79476 2.01936 5.87465 2.05931C5.99454 2.09926 6.15438 2.05931 6.23433 1.97937C6.35422 1.89942 6.39417 1.77953 6.39417 1.65964C6.39417 1.61969 6.39417 1.61969 6.39417 1.61969C6.39417 1.18008 6.75384 0.820406 7.19345 0.820406C7.21813 0.820406 7.24263 0.82153 7.26693 0.823591C7.26768 0.823638 7.26843 0.823732 7.26918 0.823825C7.46377 0.841106 7.64407 0.924421 7.77652 1.05424C7.78148 1.05944 7.78658 1.0644 7.79136 1.06974C7.79291 1.07133 7.79431 1.07302 7.79586 1.07461C7.84344 1.12866 7.88306 1.19062 7.9128 1.25998C7.92474 1.30784 7.94464 1.34765 7.96984 1.38113C7.98038 1.41939 7.98862 1.45878 7.99269 1.49976C8.03264 1.69959 8.19253 1.85943 8.39231 1.85943C8.39231 1.85943 8.43226 1.85943 8.43226 1.81948C8.67204 1.81948 8.79193 1.61965 8.79193 1.37987C8.7806 1.30817 8.76426 1.23787 8.74332 1.1694C8.97182 0.950835 9.26846 0.820406 9.59118 0.820406C10.0308 0.820406 10.4304 1.06019 10.6302 1.45981C10.7901 1.69959 11.1898 1.69959 11.3496 1.45981C11.5494 1.06019 11.949 0.820406 12.3887 0.820406C12.7977 0.820406 13.1633 1.01317 13.3776 1.3195C12.9128 1.47325 12.5109 1.79597 12.2288 2.2191C12.1489 2.41894 12.1889 2.65872 12.3887 2.77861C12.4686 2.81856 12.5086 2.81856 12.5885 2.81856C12.7483 2.81856 12.8682 2.73861 12.9482 2.61872C13.148 2.25905 13.5476 2.01927 13.9872 2.01927C14.6666 2.01927 15.1861 2.53878 15.1861 3.17823C15.1861 3.21818 15.1861 3.25817 15.1861 3.25817C15.1861 3.45801 15.306 3.61785 15.4659 3.65779C15.8655 3.77768 16.1852 4.05741 16.3051 4.41709H7.59307C7.35329 4.41709 7.19345 4.57692 7.19345 4.81671V6.41524C7.19345 6.65502 7.35329 6.81486 7.59307 6.81486H7.99269L8.03264 7.61415H2.39782C1.71842 7.61415 1.19891 7.09463 1.19891 6.41524C1.19891 5.73593 1.71842 5.21642 2.39782 5.21642ZM18.7643 6.81495L18.0022 23.2001H16.4251V15.1516C17.3567 14.5913 17.9836 13.5704 17.9836 12.4098C17.9836 11.2329 17.3386 10.1999 16.3851 9.64498V6.8149H18.7643V6.81495ZM12.3887 12.4099C12.3887 11.4785 12.9272 10.6673 13.708 10.2707C13.7356 10.2662 13.7625 10.2601 13.7875 10.2518C14.1043 10.0934 14.4506 10.0137 14.7971 10.0123C15.1201 10.0137 15.4286 10.0798 15.7101 10.1983C15.749 10.2151 15.7875 10.2328 15.8256 10.2518C15.8421 10.2683 15.8655 10.2778 15.8899 10.2835C16.6572 10.6846 17.1844 11.4884 17.1844 12.4099C17.1844 13.3546 16.6306 14.1761 15.8317 14.5662C15.8297 14.5668 15.8276 14.5673 15.8256 14.5679C15.7875 14.5869 15.749 14.6047 15.7101 14.6214C15.4286 14.7399 15.1201 14.806 14.7971 14.8074C14.4506 14.806 14.1043 14.7263 13.7875 14.5679C13.7625 14.5596 13.7357 14.5535 13.708 14.549C12.9272 14.1525 12.3887 13.3412 12.3887 12.4099ZM15.5858 9.31463C15.37 9.25852 15.1453 9.22523 14.9147 9.216C14.8727 9.21403 14.8302 9.21272 14.7865 9.21272C14.7428 9.21272 14.7004 9.21403 14.6583 9.216C14.4277 9.22523 14.2031 9.25852 13.9872 9.31463V6.81495H15.5858V9.31463ZM13.188 9.64503C12.2345 10.2 11.5895 11.2329 11.5895 12.4099C11.5895 13.5868 12.2345 14.6198 13.188 15.1747V23.2001H11.5709L10.8088 6.81495H13.188V9.64503ZM8.46238 16.7216L8.47165 16.9254C7.71268 16.5256 7.19345 15.7266 7.19345 14.8077C7.19345 14.0084 7.59307 13.2491 8.27247 12.8095L8.46238 16.7216ZM8.2077 11.1329L8.24428 11.9353C7.14053 12.4501 6.43416 13.5614 6.43416 14.8077C6.43416 16.1739 7.25335 17.369 8.51277 17.8266L8.71209 22.201C8.72693 22.5718 8.85202 22.9149 9.05438 23.2001H5.97857L5.45105 10.0121H8.15258L8.2077 11.1329ZM10.7902 23.2001H10.5903C10.2547 23.2001 9.94799 23.0274 9.7475 22.7685C9.63557 22.6037 9.56603 22.4078 9.55128 22.201L8.95182 9.61244L8.87188 8.01391L8.81193 6.815H9.99084L10.7902 23.2001ZM1.19891 8.41348H2.39782H8.07264L8.11259 9.21277H5.03542H3.19711H1.19891C0.959127 9.21277 0.799288 9.05293 0.799288 8.81315C0.799288 8.57337 0.959127 8.41348 1.19891 8.41348ZM2.35787 22.4407L1.63852 10.012H2.81345L3.34097 23.2H3.15716C2.71754 23.2001 2.39782 22.8803 2.35787 22.4407ZM4.11624 23.2001L3.59673 10.0121H4.67574L5.19526 23.2001H4.11624ZM13.9873 23.2001V15.5051C14.243 15.5715 14.5108 15.6069 14.7866 15.6069C15.0623 15.6069 15.3302 15.5715 15.5859 15.5051V23.2001H13.9873ZM20.0218 22.161C19.9818 22.7604 19.5023 23.2001 18.9428 23.2001H18.7829L19.5822 6.81495H20.7811L20.0218 22.161ZM21.5804 6.01566H21.1807H19.1825H15.9854H13.5876H10.3905H8.39236H7.99274V5.21637H16.7847H18.703C18.7429 5.21637 18.7429 5.21637 18.7829 5.21637H21.5804V6.01566Z"/>
</mask>
<path d="M23.8982 2.93849L21.7002 0.500682C21.3006 0.0610664 20.7411 -0.0987725 20.2216 0.0610664C19.7021 0.220905 19.3024 0.660568 19.1825 1.18008L18.4551 4.41713H17.1435C17.0138 3.78424 16.5823 3.2437 15.9854 2.97844C15.8655 2.05926 15.1462 1.33992 14.227 1.22003C13.9073 0.500682 13.1879 0.0211184 12.3887 0.0211184C11.8692 0.0211184 11.3496 0.220952 10.99 0.620573C10.6303 0.220952 10.1108 0.0211184 9.59122 0.0211184C9.11784 0.0211184 8.68352 0.177211 8.32642 0.48874C8.24667 0.41067 8.15909 0.340468 8.06482 0.279727C7.81684 0.107571 7.51599 0.0211184 7.19341 0.0211184C6.43411 0.0211184 5.79466 0.54063 5.63482 1.22003C4.6358 1.18008 3.79656 1.89942 3.63667 2.85855C2.83739 3.01839 2.19798 3.65784 2.03815 4.45708C1.11897 4.61692 0.399621 5.45616 0.399621 6.41528C0.399621 6.89339 0.56049 7.32734 0.831603 7.66805C0.340987 7.8174 0 8.26277 0 8.81315C0 9.35767 0.333868 9.79916 0.816148 9.95314L1.51863 22.4807C1.55858 23.3199 2.27793 23.9993 3.11716 23.9993H3.75657H5.59488H10.5903H11.1898H13.5876H15.9854H18.3833H18.9827C19.9818 23.9993 20.7811 23.2001 20.861 22.201L21.5621 6.815H21.98C22.2198 6.815 22.3796 6.65516 22.3796 6.41538V4.81685C22.3796 4.57707 22.2198 4.41723 21.98 4.41723H19.2903L19.9818 1.34001C20.0618 1.06028 20.2216 0.900396 20.4614 0.8205C20.7012 0.780552 20.941 0.8205 21.1008 1.02033L23.2988 3.4581C23.4586 3.61794 23.6984 3.65793 23.8583 3.49805C24.0181 3.33811 24.0581 3.09833 23.8982 2.93849ZM2.39782 5.21642C2.6376 5.21642 2.79744 5.05658 2.79744 4.8168C2.79744 4.1374 3.31695 3.61789 3.99635 3.61789C4.43596 3.61789 4.83558 3.85767 5.03542 4.21735C5.11536 4.33724 5.2752 4.41718 5.39509 4.41718C5.43504 4.41718 5.51498 4.41718 5.59492 4.37723C5.75476 4.25734 5.83471 4.01756 5.71481 3.81773C5.4319 3.34622 4.97561 2.99938 4.44378 2.87232C4.58662 2.37028 5.03663 2.01936 5.59492 2.01936C5.67487 2.01936 5.79476 2.01936 5.87465 2.05931C5.99454 2.09926 6.15438 2.05931 6.23433 1.97937C6.35422 1.89942 6.39417 1.77953 6.39417 1.65964C6.39417 1.61969 6.39417 1.61969 6.39417 1.61969C6.39417 1.18008 6.75384 0.820406 7.19345 0.820406C7.21813 0.820406 7.24263 0.82153 7.26693 0.823591C7.26768 0.823638 7.26843 0.823732 7.26918 0.823825C7.46377 0.841106 7.64407 0.924421 7.77652 1.05424C7.78148 1.05944 7.78658 1.0644 7.79136 1.06974C7.79291 1.07133 7.79431 1.07302 7.79586 1.07461C7.84344 1.12866 7.88306 1.19062 7.9128 1.25998C7.92474 1.30784 7.94464 1.34765 7.96984 1.38113C7.98038 1.41939 7.98862 1.45878 7.99269 1.49976C8.03264 1.69959 8.19253 1.85943 8.39231 1.85943C8.39231 1.85943 8.43226 1.85943 8.43226 1.81948C8.67204 1.81948 8.79193 1.61965 8.79193 1.37987C8.7806 1.30817 8.76426 1.23787 8.74332 1.1694C8.97182 0.950835 9.26846 0.820406 9.59118 0.820406C10.0308 0.820406 10.4304 1.06019 10.6302 1.45981C10.7901 1.69959 11.1898 1.69959 11.3496 1.45981C11.5494 1.06019 11.949 0.820406 12.3887 0.820406C12.7977 0.820406 13.1633 1.01317 13.3776 1.3195C12.9128 1.47325 12.5109 1.79597 12.2288 2.2191C12.1489 2.41894 12.1889 2.65872 12.3887 2.77861C12.4686 2.81856 12.5086 2.81856 12.5885 2.81856C12.7483 2.81856 12.8682 2.73861 12.9482 2.61872C13.148 2.25905 13.5476 2.01927 13.9872 2.01927C14.6666 2.01927 15.1861 2.53878 15.1861 3.17823C15.1861 3.21818 15.1861 3.25817 15.1861 3.25817C15.1861 3.45801 15.306 3.61785 15.4659 3.65779C15.8655 3.77768 16.1852 4.05741 16.3051 4.41709H7.59307C7.35329 4.41709 7.19345 4.57692 7.19345 4.81671V6.41524C7.19345 6.65502 7.35329 6.81486 7.59307 6.81486H7.99269L8.03264 7.61415H2.39782C1.71842 7.61415 1.19891 7.09463 1.19891 6.41524C1.19891 5.73593 1.71842 5.21642 2.39782 5.21642ZM18.7643 6.81495L18.0022 23.2001H16.4251V15.1516C17.3567 14.5913 17.9836 13.5704 17.9836 12.4098C17.9836 11.2329 17.3386 10.1999 16.3851 9.64498V6.8149H18.7643V6.81495ZM12.3887 12.4099C12.3887 11.4785 12.9272 10.6673 13.708 10.2707C13.7356 10.2662 13.7625 10.2601 13.7875 10.2518C14.1043 10.0934 14.4506 10.0137 14.7971 10.0123C15.1201 10.0137 15.4286 10.0798 15.7101 10.1983C15.749 10.2151 15.7875 10.2328 15.8256 10.2518C15.8421 10.2683 15.8655 10.2778 15.8899 10.2835C16.6572 10.6846 17.1844 11.4884 17.1844 12.4099C17.1844 13.3546 16.6306 14.1761 15.8317 14.5662C15.8297 14.5668 15.8276 14.5673 15.8256 14.5679C15.7875 14.5869 15.749 14.6047 15.7101 14.6214C15.4286 14.7399 15.1201 14.806 14.7971 14.8074C14.4506 14.806 14.1043 14.7263 13.7875 14.5679C13.7625 14.5596 13.7357 14.5535 13.708 14.549C12.9272 14.1525 12.3887 13.3412 12.3887 12.4099ZM15.5858 9.31463C15.37 9.25852 15.1453 9.22523 14.9147 9.216C14.8727 9.21403 14.8302 9.21272 14.7865 9.21272C14.7428 9.21272 14.7004 9.21403 14.6583 9.216C14.4277 9.22523 14.2031 9.25852 13.9872 9.31463V6.81495H15.5858V9.31463ZM13.188 9.64503C12.2345 10.2 11.5895 11.2329 11.5895 12.4099C11.5895 13.5868 12.2345 14.6198 13.188 15.1747V23.2001H11.5709L10.8088 6.81495H13.188V9.64503ZM8.46238 16.7216L8.47165 16.9254C7.71268 16.5256 7.19345 15.7266 7.19345 14.8077C7.19345 14.0084 7.59307 13.2491 8.27247 12.8095L8.46238 16.7216ZM8.2077 11.1329L8.24428 11.9353C7.14053 12.4501 6.43416 13.5614 6.43416 14.8077C6.43416 16.1739 7.25335 17.369 8.51277 17.8266L8.71209 22.201C8.72693 22.5718 8.85202 22.9149 9.05438 23.2001H5.97857L5.45105 10.0121H8.15258L8.2077 11.1329ZM10.7902 23.2001H10.5903C10.2547 23.2001 9.94799 23.0274 9.7475 22.7685C9.63557 22.6037 9.56603 22.4078 9.55128 22.201L8.95182 9.61244L8.87188 8.01391L8.81193 6.815H9.99084L10.7902 23.2001ZM1.19891 8.41348H2.39782H8.07264L8.11259 9.21277H5.03542H3.19711H1.19891C0.959127 9.21277 0.799288 9.05293 0.799288 8.81315C0.799288 8.57337 0.959127 8.41348 1.19891 8.41348ZM2.35787 22.4407L1.63852 10.012H2.81345L3.34097 23.2H3.15716C2.71754 23.2001 2.39782 22.8803 2.35787 22.4407ZM4.11624 23.2001L3.59673 10.0121H4.67574L5.19526 23.2001H4.11624ZM13.9873 23.2001V15.5051C14.243 15.5715 14.5108 15.6069 14.7866 15.6069C15.0623 15.6069 15.3302 15.5715 15.5859 15.5051V23.2001H13.9873ZM20.0218 22.161C19.9818 22.7604 19.5023 23.2001 18.9428 23.2001H18.7829L19.5822 6.81495H20.7811L20.0218 22.161ZM21.5804 6.01566H21.1807H19.1825H15.9854H13.5876H10.3905H8.39236H7.99274V5.21637H16.7847H18.703C18.7429 5.21637 18.7429 5.21637 18.7829 5.21637H21.5804V6.01566Z" fill="#241A12" stroke="#241A12" stroke-width="0.249773" mask="url(#path-5-inside-1_60513_2206)"/>
</svg>
