<svg width="25" height="25" viewBox="0 0 25 25" fill="none" xmlns="http://www.w3.org/2000/svg">
<g clip-path="url(#clip0_60435_4255)">
<path fill-rule="evenodd" clip-rule="evenodd" d="M5.66363 12.4996C5.66363 11.7375 5.79021 11.0068 6.01613 10.3215L2.06172 7.30176C1.29103 8.86656 0.856812 10.6298 0.856812 12.4996C0.856812 14.3679 1.29049 16.13 2.06012 17.6938L6.01239 14.6682C5.78861 13.986 5.66363 13.258 5.66363 12.4996Z" fill="#FBBC05"/>
<path fill-rule="evenodd" clip-rule="evenodd" d="M12.6068 5.5666C14.2625 5.5666 15.7579 6.15327 16.9329 7.11327L20.3511 3.69993C18.2682 1.8866 15.5977 0.766602 12.6068 0.766602C7.96341 0.766602 3.97268 3.42207 2.06171 7.30207L6.01612 10.3218C6.92727 7.55594 9.52456 5.5666 12.6068 5.5666Z" fill="#EB4335"/>
<path fill-rule="evenodd" clip-rule="evenodd" d="M12.6068 19.4329C9.52456 19.4329 6.92728 17.4436 6.01612 14.6777L2.06171 17.6969C3.97268 21.5775 7.96341 24.2329 12.6068 24.2329C15.4727 24.2329 18.2089 23.2153 20.2625 21.3087L16.5089 18.4068C15.4498 19.074 14.1161 19.4329 12.6068 19.4329Z" fill="#34A853"/>
<path fill-rule="evenodd" clip-rule="evenodd" d="M23.8227 12.4995C23.8227 11.8062 23.7159 11.0595 23.5557 10.3662H12.6068V14.8995H18.9091C18.594 16.4451 17.7362 17.6334 16.5089 18.4067L20.2625 21.3086C22.4197 19.3065 23.8227 16.3241 23.8227 12.4995Z" fill="#4285F4"/>
</g>
<defs>
<clipPath id="clip0_60435_4255">
<rect width="24" height="24" fill="white" transform="translate(0.5 0.5)"/>
</clipPath>
</defs>
</svg>
