<svg width="16" height="16" viewBox="0 0 16 16" fill="none" xmlns="http://www.w3.org/2000/svg">
<path d="M1.33331 10.666C1.33331 8.78042 1.33331 7.83762 1.9191 7.25182C2.50489 6.66602 3.44769 6.66602 5.33331 6.66602H10.6666C12.5522 6.66602 13.495 6.66602 14.0808 7.25182C14.6666 7.83762 14.6666 8.78042 14.6666 10.666C14.6666 12.5516 14.6666 13.4944 14.0808 14.0802C13.495 14.666 12.5522 14.666 10.6666 14.666H5.33331C3.44769 14.666 2.50489 14.666 1.9191 14.0802C1.33331 13.4944 1.33331 12.5516 1.33331 10.666Z" stroke="#241A12" stroke-width="1.5"/>
<path opacity="0.5" d="M4 6.66634V5.33301C4 3.12387 5.79086 1.33301 8 1.33301C10.2091 1.33301 12 3.12387 12 5.33301V6.66634" stroke="#241A12" stroke-width="1.5" stroke-linecap="round"/>
</svg>
