<svg width="48" height="48" viewBox="0 0 48 48" fill="none" xmlns="http://www.w3.org/2000/svg">
<path d="M5.23066 30.564C5.09469 30.8905 4.83456 31.1497 4.5075 31.2845C4.18043 31.4193 3.81323 31.4186 3.48666 31.2826C3.16009 31.1467 2.9009 30.8865 2.76613 30.5595C2.63135 30.2324 2.63202 29.8652 2.76799 29.5386L8.92399 12.8213C8.98949 12.6571 9.087 12.5075 9.21084 12.3813C9.33467 12.2552 9.48237 12.1549 9.64533 12.0863C9.8083 12.0177 9.98327 11.9823 10.1601 11.9819C10.3369 11.9816 10.512 12.0165 10.6752 12.0845C10.8384 12.1524 10.9864 12.2522 11.1107 12.378C11.235 12.5037 11.333 12.6529 11.3991 12.8169C11.4652 12.9809 11.498 13.1564 11.4957 13.3331C11.4933 13.5099 11.4558 13.6845 11.3853 13.8466L5.23066 30.564Z" fill="#66757F"/>
<path d="M18.564 29.5383C18.7 29.8649 18.7006 30.2321 18.5658 30.5591C18.4311 30.8862 18.1719 31.1463 17.8453 31.2823C17.5187 31.4182 17.1515 31.4189 16.8245 31.2841C16.4974 31.1494 16.2373 30.8902 16.1013 30.5636L9.94798 13.8463C9.81201 13.5197 9.81134 13.1525 9.94612 12.8254C10.0809 12.4984 10.3401 12.2382 10.6666 12.1023C10.9932 11.9663 11.3604 11.9656 11.6875 12.1004C12.0146 12.2352 12.2747 12.4944 12.4106 12.8209L18.564 29.5383ZM31.8986 30.5636C31.7544 30.8777 31.4939 31.1235 31.172 31.2494C30.8501 31.3753 30.4919 31.3714 30.1729 31.2386C29.8538 31.1057 29.5987 30.8543 29.4612 30.5371C29.3238 30.22 29.3148 29.8619 29.436 29.5383L35.5907 12.8196C35.7268 12.4932 35.987 12.2343 36.3141 12.0998C36.6411 11.9652 37.0083 11.9661 37.3346 12.1023C37.661 12.2384 37.92 12.4987 38.0545 12.8257C38.189 13.1528 38.1881 13.5199 38.052 13.8463L31.8986 30.5636Z" fill="#66757F"/>
<path d="M45.2307 29.5386C45.3666 29.8652 45.3673 30.2324 45.2325 30.5595C45.0978 30.8865 44.8386 31.1467 44.512 31.2826C44.1854 31.4186 43.8182 31.4193 43.4912 31.2845C43.1641 31.1497 42.904 30.8905 42.768 30.564L36.6147 13.8466C36.5442 13.6845 36.5067 13.5099 36.5043 13.3331C36.502 13.1564 36.5348 12.9809 36.6009 12.8169C36.6669 12.6529 36.765 12.5037 36.8893 12.378C37.0136 12.2522 37.1616 12.1524 37.3248 12.0845C37.488 12.0165 37.6631 11.9816 37.8399 11.9819C38.0167 11.9823 38.1917 12.0177 38.3547 12.0863C38.5176 12.1549 38.6653 12.2552 38.7892 12.3813C38.913 12.5075 39.0105 12.6571 39.076 12.8213L45.2307 29.5386Z" fill="#66757F"/>
<path d="M19.8093 29.333H1.524C0.682667 29.333 0 30.0143 0 30.857C0 34.2223 4.776 36.9517 10.6667 36.9517C16.5573 36.9517 21.3333 34.2223 21.3333 30.857C21.3333 30.0143 20.6507 29.333 19.8093 29.333ZM32 45.333H16C15.6464 45.333 15.3072 45.1925 15.0572 44.9425C14.8071 44.6924 14.6667 44.3533 14.6667 43.9997C14.6667 41.0543 18.8453 38.6663 24 38.6663C29.1547 38.6663 33.3333 41.0543 33.3333 43.9997C33.3333 44.3533 33.1929 44.6924 32.9428 44.9425C32.6928 45.1925 32.3536 45.333 32 45.333ZM46.476 29.333H28.1907C27.348 29.333 26.6667 30.0143 26.6667 30.857C26.6667 34.2223 31.4413 36.9517 37.3333 36.9517C43.2253 36.9517 48 34.2223 48 30.857C48 30.0143 47.3187 29.333 46.476 29.333Z" fill="#FFAC33"/>
<path d="M25.3334 3.99984C25.3334 3.64622 25.1929 3.30708 24.9428 3.05703C24.6928 2.80698 24.3536 2.6665 24 2.6665C23.6464 2.6665 23.3073 2.80698 23.0572 3.05703C22.8072 3.30708 22.6667 3.64622 22.6667 3.99984V39.9998C22.6667 40.3535 22.8072 40.6926 23.0572 40.9426C23.3073 41.1927 23.6464 41.3332 24 41.3332C24.3536 41.3332 24.6928 41.1927 24.9428 40.9426C25.1929 40.6926 25.3334 40.3535 25.3334 39.9998V3.99984Z" fill="#FFAC33"/>
<path d="M24 7.99984C25.4727 7.99984 26.6666 6.80593 26.6666 5.33317C26.6666 3.86041 25.4727 2.6665 24 2.6665C22.5272 2.6665 21.3333 3.86041 21.3333 5.33317C21.3333 6.80593 22.5272 7.99984 24 7.99984Z" fill="#FFAC33"/>
<path d="M10.6667 15.9998C12.1394 15.9998 13.3333 14.8059 13.3333 13.3332C13.3333 11.8604 12.1394 10.6665 10.6667 10.6665C9.19391 10.6665 8 11.8604 8 13.3332C8 14.8059 9.19391 15.9998 10.6667 15.9998Z" fill="#FFAC33"/>
<path d="M37.3334 15.9998C38.8061 15.9998 40 14.8059 40 13.3332C40 11.8604 38.8061 10.6665 37.3334 10.6665C35.8606 10.6665 34.6667 11.8604 34.6667 13.3332C34.6667 14.8059 35.8606 15.9998 37.3334 15.9998Z" fill="#FFAC33"/>
<path d="M37.3334 13.3333C37.3334 14.8053 37.3334 13.3333 24 13.3333C10.6667 13.3333 10.6667 14.8053 10.6667 13.3333C10.6667 11.8613 14.6667 8 24 8C33.3334 8 37.3334 11.8613 37.3334 13.3333Z" fill="#FFAC33"/>
</svg>
