<svg width="48" height="48" viewBox="0 0 48 48" fill="none" xmlns="http://www.w3.org/2000/svg">
<path fill-rule="evenodd" clip-rule="evenodd" d="M31.3125 45C31.3125 46.6567 29.9692 48 28.3125 48H11.0625C9.40556 48 8.0625 46.6567 8.0625 45L6.1875 18.5625C6.1875 16.9056 7.53056 15.5625 9.1875 15.5625H30.1875C31.8442 15.5625 33.1875 16.9056 33.1875 18.5625L31.3125 45Z" fill="url(#paint0_linear_60777_1107)"/>
<path fill-rule="evenodd" clip-rule="evenodd" d="M21.5897 38.1889C21.3645 38.7028 20.9113 39.1875 20.2875 39.1875C19.5418 39.1875 18.9375 38.583 18.9375 37.8375V33.1875H15.7875C15.0418 33.1875 14.4375 32.775 14.4375 31.8375C14.4375 30.9 17.7853 23.6861 17.7853 23.6861C18.0105 23.172 18.4637 22.6875 19.0875 22.6875C19.833 22.6875 20.4375 23.2918 20.4375 24.0375V28.6875H23.5875C24.333 28.6875 24.9375 29.1268 24.9375 30.0375C24.9375 30.9482 21.5897 38.1889 21.5897 38.1889Z" fill="#FCE202"/>
<path d="M28.875 6.1875H10.5V12.375H28.875V6.1875Z" fill="#FF5134"/>
<path fill-rule="evenodd" clip-rule="evenodd" d="M35.625 15.5625H9.5625C8.73412 15.5625 8.0625 14.8909 8.0625 14.0625V13.875C8.0625 13.0466 8.73412 12.375 9.5625 12.375H29.8125C30.6409 12.375 31.3125 13.0466 31.3125 13.875V14.0625H35.625C38.2138 14.0625 40.3125 11.9638 40.3125 9.375C40.3125 6.78619 38.2138 4.6875 35.625 4.6875H10.5V3C10.5 2.17162 11.1716 1.5 12 1.5H15.9375V1.3125C15.9375 0.587625 16.5251 0 17.25 0H22.125C22.8499 0 23.4375 0.587625 23.4375 1.3125V1.5H27.375C28.2034 1.5 28.875 2.17162 28.875 3V3.1875H35.625C39.0422 3.1875 41.8125 5.95762 41.8125 9.375C41.8125 12.7922 39.0422 15.5625 35.625 15.5625Z" fill="#FC0231"/>
<defs>
<linearGradient id="paint0_linear_60777_1107" x1="19.6875" y1="48" x2="19.6875" y2="15.5625" gradientUnits="userSpaceOnUse">
<stop stop-color="#0BDFFF"/>
<stop offset="1" stop-color="#00BCF2"/>
</linearGradient>
</defs>
</svg>
