<svg width="48" height="48" viewBox="0 0 48 48" fill="none" xmlns="http://www.w3.org/2000/svg">
<g clip-path="url(#clip0_60763_3484)">
<path d="M32.246 33.0029H15.7482V34.5028H32.246V33.0029Z" fill="#C61C31"/>
<path d="M32.9988 33.002H32.2114C32.2346 33.146 32.2474 33.2915 32.2489 33.4369C32.2489 36.099 28.5594 38.2512 24 38.2512C19.4405 38.2512 15.751 36.099 15.751 33.4369C15.7525 33.2914 15.7653 33.1459 15.7885 33.002H15.0011C10.8594 33.002 7.50208 36.3593 7.50208 40.501V46.5002C7.50208 47.3288 8.17324 48 9.0019 48H38.9979C39.8266 48 40.4977 47.3288 40.4977 46.5002V40.501C40.4977 36.3593 37.1404 33.002 32.9988 33.002Z" fill="#DE333F"/>
<path d="M23.9999 38.251C27.9144 38.251 31.1839 36.6612 32.0314 34.5016C31.8589 34.5016 31.6789 34.5016 31.4989 34.5016H29.9991C29.1705 34.5016 28.4993 33.8304 28.4993 33.0017V27.7524H19.5004V33.0017C19.5004 33.8304 18.8293 34.5016 18.0006 34.5016H16.5008C16.3208 34.5016 16.1484 34.5016 15.9684 34.5016C16.8159 36.6612 20.0854 38.251 23.9999 38.251Z" fill="#EFC9AE"/>
<path d="M28.4993 27.7526H19.5004C18.1394 27.7511 16.9118 26.9322 16.3884 25.6754L13.7337 19.3088C13.5807 18.9428 13.502 18.5506 13.5012 18.1539V12.0796C13.5012 6.28144 18.2016 1.58105 23.9998 1.58105C29.798 1.58105 34.4984 6.28144 34.4984 12.0796V18.1538C34.4976 18.5505 34.4189 18.9428 34.2659 19.3087L31.6112 25.6753C31.088 26.9314 29.8611 27.7511 28.4993 27.7526Z" fill="#EFC9AE"/>
<path d="M20.27 17.255C21.0983 17.255 21.7698 16.5835 21.7698 15.7552C21.7698 14.9269 21.0983 14.2554 20.27 14.2554C19.4416 14.2554 18.7701 14.9269 18.7701 15.7552C18.7701 16.5835 19.4416 17.255 20.27 17.255Z" fill="#123247"/>
<path d="M27.769 17.255C28.5973 17.255 29.2688 16.5835 29.2688 15.7552C29.2688 14.9269 28.5973 14.2554 27.769 14.2554C26.9407 14.2554 26.2692 14.9269 26.2692 15.7552C26.2692 16.5835 26.9407 17.255 27.769 17.255Z" fill="#123247"/>
<path d="M27.397 15.7542C27.6041 15.7542 27.7719 15.5864 27.7719 15.3793C27.7719 15.1722 27.6041 15.0044 27.397 15.0044C27.1899 15.0044 27.0221 15.1722 27.0221 15.3793C27.0221 15.5864 27.1899 15.7542 27.397 15.7542Z" fill="#E2E5E7"/>
<path d="M19.898 15.7542C20.105 15.7542 20.2729 15.5864 20.2729 15.3793C20.2729 15.1722 20.105 15.0044 19.898 15.0044C19.6909 15.0044 19.5231 15.1722 19.5231 15.3793C19.5231 15.5864 19.6909 15.7542 19.898 15.7542Z" fill="#E2E5E7"/>
<path d="M27.6595 20.5164C27.5425 20.3514 27.352 20.2532 27.1496 20.2539H20.9029C20.5595 20.2547 20.2812 20.5337 20.2812 20.8771C20.2812 20.9483 20.294 21.0188 20.318 21.0863C20.8062 22.7384 22.2797 23.906 24 24.0035C25.7457 23.9345 27.253 22.7609 27.7494 21.0863C27.8147 20.8928 27.7809 20.6798 27.6595 20.5164Z" fill="#123247"/>
<path d="M25.9422 22.5033C24.8474 21.5367 23.2051 21.5367 22.1102 22.5033C23.1796 23.5344 24.8736 23.5344 25.9422 22.5033Z" fill="#F04B4D"/>
<path d="M19.5006 27.7529C19.5006 28.5816 20.1718 29.2528 21.0004 29.2528H25.4998C25.9137 29.2528 26.2497 29.5887 26.2497 30.0027V31.6375C26.2482 32.4864 26.9351 33.1763 27.7848 33.1771C28.0338 33.1778 28.279 33.1171 28.4995 33.0023V29.2528V27.753H19.5006V27.7529Z" fill="#E2B698"/>
<path d="M37.4982 43.5005V44.2504C37.4982 44.6644 37.1623 45.0004 36.7483 45.0004H12.0016C10.345 45.0004 9.00195 46.3434 9.00195 48H38.998C39.8266 48 40.4978 47.3288 40.4978 46.5002V40.501C38.8413 40.501 37.4982 41.8433 37.4982 43.5005Z" fill="#C61C31"/>
<path d="M30.0187 19.5047C30.4329 19.5047 30.7686 19.169 30.7686 18.7548C30.7686 18.3406 30.4329 18.0049 30.0187 18.0049C29.6045 18.0049 29.2688 18.3406 29.2688 18.7548C29.2688 19.169 29.6045 19.5047 30.0187 19.5047Z" fill="#F9AA8F"/>
<path d="M18.0203 19.5047C18.4345 19.5047 18.7702 19.169 18.7702 18.7548C18.7702 18.3406 18.4345 18.0049 18.0203 18.0049C17.6061 18.0049 17.2704 18.3406 17.2704 18.7548C17.2704 19.169 17.6061 19.5047 18.0203 19.5047Z" fill="#F9AA8F"/>
<path d="M23.2725 18.0039H24.7723C25.1862 18.0039 25.5222 18.3398 25.5222 18.7538C25.5222 19.1677 25.1863 19.5037 24.7723 19.5037H23.2725C22.8586 19.5037 22.5226 19.1678 22.5226 18.7538C22.5226 18.3392 22.8586 18.0039 23.2725 18.0039Z" fill="#E2B698"/>
<path d="M34.4985 11.2548C34.4985 11.0298 34.4535 10.8124 34.4235 10.5949C33.6451 5.12439 28.7603 1.19343 23.25 1.60359C17.6873 2.097 13.4406 6.78763 13.5014 12.3722V12.9496C13.5014 12.8243 13.5014 12.7021 13.5014 12.5822C13.5449 11.4356 14.5092 10.5417 15.6559 10.5852C15.7031 10.5867 15.7496 10.5904 15.7961 10.5949C19.2007 10.9398 22.8676 11.1648 24.7425 9.95003V12.1998C27.0762 12.2943 29.4046 11.9058 31.5816 11.0599C32.1185 10.8529 32.7222 11.1199 32.9292 11.6576C32.9772 11.7829 33.0012 11.9164 32.9989 12.0498V18.6114C32.9989 18.7066 32.9817 18.8004 32.9464 18.8889L30.3743 25.308C30.1508 25.8689 29.6131 26.2417 29.0094 26.2529H25.4999C24.6712 26.2529 24.0001 26.9241 24.0001 27.7527H28.4994C29.8605 27.7512 31.0881 26.9323 31.6115 25.6755L34.2661 19.3089C34.4191 18.943 34.4979 18.5507 34.4986 18.1541V12.0798C34.4985 11.7949 34.4985 11.5174 34.4985 11.2548Z" fill="#E2B698"/>
<path d="M23.5501 0.00640131C17.0845 0.213403 11.9618 5.53619 12.0016 12.0048V33.6545C12.9457 33.2323 13.9671 33.0103 15.0011 33.0021H19.5005V27.7528C18.1394 27.7513 16.9119 26.9324 16.3885 25.6755L13.7338 19.3089C13.5808 18.943 13.5021 18.5508 13.5013 18.1541V12.0798C13.5013 11.9651 13.5013 11.8496 13.5013 11.7349C13.5561 10.5808 14.5361 9.68917 15.6903 9.74467C15.7353 9.74692 15.781 9.75067 15.826 9.75517C19.2306 10.1001 22.8976 10.3251 24.7724 9.11026V11.36C27.106 11.4545 29.4345 11.066 31.6115 10.2202C32.6546 9.76351 33.871 10.2382 34.3277 11.2812C34.4282 11.51 34.4859 11.7551 34.4987 12.0049V18.1541C34.4979 18.5508 34.4192 18.943 34.2662 19.3089L31.6115 25.6755C31.0881 26.9324 29.8605 27.7513 28.4995 27.7528V33.0021H32.9988C34.0314 33.0036 35.0528 33.2181 35.9985 33.632V10.5801C35.9984 3.75596 30.3892 -0.181006 23.5501 0.00640131Z" fill="#F19920"/>
<path d="M24.7498 9.00546C24.7446 8.45055 24.2909 8.00505 23.736 8.0103C23.6317 8.01105 23.529 8.0283 23.43 8.06055C21.4203 8.66796 18.5256 8.58546 15.8035 8.30805C14.6674 8.17905 13.6422 8.99571 13.514 10.1318C13.5072 10.1933 13.5027 10.2555 13.5012 10.3178C13.5012 10.443 13.5012 10.5705 13.5012 10.7002V12.08C13.5012 11.9548 13.5012 11.8325 13.5012 11.7126C13.559 10.5668 14.5345 9.68488 15.6805 9.74263C15.7292 9.74488 15.7772 9.74938 15.826 9.75538C19.2305 10.1003 22.8975 10.3253 24.7723 9.11046V9.00546H24.7498Z" fill="#E78825"/>
<path d="M23.55 0.00640131C23.0979 0.0206514 22.6471 0.0604017 22.2002 0.126402C28.9493 0.00640131 34.4986 3.94337 34.4986 10.64C34.4829 9.50916 33.5529 8.6055 32.4229 8.622C32.1484 8.62575 31.8777 8.685 31.6265 8.79525C29.8717 9.50616 28.0006 9.88782 26.1072 9.92007C25.349 9.94857 24.7491 10.571 24.7498 11.3299C27.0947 11.4251 29.4337 11.0314 31.619 10.1751C32.6583 9.71916 33.8702 10.1916 34.3261 11.2309C34.4334 11.4754 34.4919 11.7378 34.4986 12.0048V18.154C34.4979 18.5507 34.4191 18.9429 34.2661 19.3088L31.6115 25.6754C31.088 26.9323 29.8605 27.7512 28.4994 27.7527V33.002H32.9988C33.5027 33.0035 34.0051 33.0567 34.4986 33.1595C34.7521 33.212 35.0018 33.2765 35.2485 33.3545C35.5035 33.4332 35.7539 33.5262 35.9984 33.632V12.8297V10.58C35.9983 3.75596 30.3891 -0.181006 23.55 0.00640131Z" fill="#E78825"/>
</g>
<defs>
<clipPath id="clip0_60763_3484">
<rect width="48" height="48" fill="white"/>
</clipPath>
</defs>
</svg>
