<svg width="48" height="48" viewBox="0 0 48 48" fill="none" xmlns="http://www.w3.org/2000/svg">
<path fill-rule="evenodd" clip-rule="evenodd" d="M33.4489 10.0807H30.8428C30.9388 9.65153 31.0009 9.17718 31.0009 8.64635C31.0009 4.70471 27.8301 1.5 23.9279 1.5C20.0258 1.5 16.855 4.70471 16.855 8.64635C16.855 9.17718 16.9284 9.64871 17.047 10.0807H14.4437C11.2672 10.0807 8.69217 12.5739 8.69217 15.6459L2.99994 40.9871C2.99994 44.0647 5.23053 46.5551 8.41264 46.5551H39.4715C42.6508 46.5551 44.8842 44.0647 44.8842 40.9871L39.2032 15.6459C39.2032 12.5739 36.6282 10.0807 33.4489 10.0807ZM19.2098 8.64635C19.2098 5.96682 21.3246 3.78141 23.9279 3.78141C26.5284 3.78141 28.6432 5.964 28.6432 8.64635C28.6432 9.14894 28.5472 9.62329 28.4089 10.0807H19.4413C19.303 9.62329 19.2098 9.14894 19.2098 8.64635ZM25.5063 29.9612V38.316H22.3778V30.0205L16.3552 29.9612L24.0635 21.3212L31.303 29.9612H25.5063Z" fill="#3C8CBE"/>
</svg>
