<svg width="158" height="417" viewBox="0 0 158 417" fill="none" xmlns="http://www.w3.org/2000/svg">
<path d="M83.9784 74.4426C83.9784 74.4426 100.147 72.4141 103.848 90.7293C105.888 100.729 107.017 110.893 107.224 121.097C111.08 121.312 114.915 121.807 118.699 122.577C123.23 123.347 125.954 124.399 136.392 126.353C136.392 126.353 142.107 118.165 144.965 116.477C146.446 115.559 150.384 114.538 152.057 115.234C153.538 115.811 157.417 117.854 157.787 119.35C158.068 120.475 155.329 125.642 155.329 125.642C155.329 125.642 143.825 132.572 141.086 133.164C132.128 135.148 126.146 135.859 110.866 137.221C90.9225 138.997 92.6844 130.662 89.7528 121.467C86.8212 112.272 77.7598 70.8743 83.9784 74.4426Z" fill="#FFB473"/>
<path d="M77.0639 72.7394C77.0142 72.7324 76.9635 72.7396 76.9177 72.7601C76.8719 72.7807 76.8328 72.8137 76.805 72.8555C76.7771 72.8973 76.7616 72.9461 76.7603 72.9963C76.7589 73.0465 76.7718 73.096 76.7974 73.1392C78.1152 75.4194 83.1345 85.1914 71.0674 85.2062C59.0004 85.221 53.0779 75.1084 52.0267 73.0356C51.9684 72.924 51.8842 72.8282 51.7812 72.756C51.6781 72.6839 51.5592 72.6376 51.4345 72.621C48.7694 72.3101 34.3185 71.1404 33.7559 81.8156C33.1488 93.6606 45.4824 110.673 47.7477 148.014C56.4211 152.72 66.2844 154.78 76.1163 153.936C92.1366 152.456 98.7106 147.185 98.7106 147.185C98.7252 138.728 99.3287 130.283 100.517 121.911C103.789 98.4282 102.353 90.8178 85.0741 73.6722L77.0639 72.7394Z" fill="#263238"/>
<path d="M110.067 394.374C111.045 398.292 111.211 402.368 110.555 406.352C109.327 411.682 109.608 416.82 112.465 416.879C121.853 417.087 120.431 414.954 127.272 415.399C134.112 415.843 143.84 416.376 144.699 414.036C145.972 410.513 133.801 409.032 129.345 406.026C123.259 401.94 122.326 390.036 122.326 390.036L110.067 394.374Z" fill="#FFB473"/>
<path d="M123.407 396.388L110.718 397.957C105.966 381.996 95.3939 346.136 91.9589 330.559C90.4336 323.334 89.3214 316.028 88.6275 308.676C87.2802 295.35 88.2574 290.287 87.1469 284.32C85.9328 277.849 80.3509 265.886 77.8486 259.83C75.7017 254.663 71.7633 244.299 68.3134 235.074C68.1358 234.63 67.9729 234.186 67.81 233.757C64.4194 224.74 61.6063 217.129 61.6063 217.129C38.1681 196.756 46.2671 165.841 50.4128 154.366C50.7978 153.3 51.1531 152.412 51.4492 151.701C51.923 150.516 52.2339 149.865 52.2339 149.865L61.7395 149.391L72.7405 148.829L80.3213 148.444L92.4031 147.836L97.9998 147.555L98.1775 149.835L98.518 154.277L100.769 183.134L113.916 280.559L123.407 396.388Z" fill="#407BFF"/>
<path opacity="0.2" d="M75.5536 180.573H59.5037L52.8854 207.15C55.2775 210.876 58.1947 214.237 61.547 217.129C61.547 217.129 68.2542 235.326 73.3919 248.829C76.5753 227.878 75.5536 180.573 75.5536 180.573Z" fill="#241A12"/>
<path d="M13.4418 390.11C13.2993 394.966 12.2967 399.759 10.4805 404.265C7.62294 410.616 5.96465 413.903 13.4418 414.407C20.9189 414.91 22.9769 414.821 29.6397 416.332C36.3025 417.842 45.0826 416.672 44.5791 414.037C44.0757 411.401 35.8435 412.556 30.4541 406.634C25.0646 400.711 24.5316 395.336 25.5236 392.316L13.4418 390.11Z" fill="#FFB473"/>
<path d="M81.3429 149.347C81.3429 149.435 81.3429 149.835 81.2244 150.501C81.1356 151.419 81.0023 152.841 80.8247 154.618C80.7062 155.846 80.573 157.253 80.4101 158.808C79.27 170.06 77.3748 188.287 76.1903 195.986C74.7097 205.832 71.9114 219.276 68.3875 234.586C68.3875 234.734 68.3134 234.882 68.2838 235.045C53.3888 299.496 25.5236 396.432 25.5236 396.432L12.6571 394.463C13.886 377.85 16.8176 340.539 19.1422 324.874C20.2871 317.693 21.8443 310.584 23.8061 303.582C27.2707 290.953 29.9803 286.822 31.0463 280.914C32.2012 274.503 31.2684 261.118 31.0463 254.5C30.7502 242.951 31.1352 208.423 31.1352 208.423C31.3128 182.557 44.209 154.988 47.1258 149.095C47.496 148.34 47.7033 147.94 47.7033 147.94C47.7033 147.94 68.269 148.814 72.6665 148.754L81.3429 149.347Z" fill="#407BFF"/>
<path opacity="0.2" d="M98.1775 149.835C96.0306 153.093 86.6139 154.01 80.8247 154.632C70.9242 155.793 60.8898 154.783 51.4196 151.671C50.8422 151.479 50.2499 151.257 49.6577 151.034C49.332 150.916 49.021 150.738 48.6953 150.62C48.3531 150.5 48.0423 150.305 47.786 150.049C47.5297 149.792 47.3344 149.481 47.2147 149.139C47.5848 148.384 47.7921 147.984 47.7921 147.984C47.7921 147.984 68.3579 148.858 72.7553 148.799L80.3361 148.414L92.4179 147.807L98.0146 147.525L98.1775 149.835Z" fill="#241A12"/>
<path d="M48.5917 82.8963C48.9322 71.999 36.954 67.4683 27.3596 88.952C24.3438 96.014 21.869 103.295 19.9566 110.732C19.9566 110.732 11.2801 93.616 7.75628 77.1367C7.75628 77.1367 16.64 68.8304 17.3063 64.8772C17.706 62.6859 16.3142 57.6074 14.345 56.4821C11.7984 55.0015 4.70621 56.334 2.64816 58.4661C-0.579589 61.7975 0.101494 76.8406 0.101494 76.8406C-0.473196 90.6518 1.39643 104.456 5.62419 117.617C13.4418 142.284 30.0988 130.187 36.4506 118.431C41.5736 109.014 48.266 93.7492 48.5917 82.8963Z" fill="#FFB473"/>
<path d="M47.8662 32.6444C47.4072 36.0202 44.7421 40.5213 41.2774 41.765C40.7518 41.9816 40.1749 42.0424 39.6157 41.94C39.0564 41.8376 38.5385 41.5764 38.1237 41.1875C37.8768 41.0493 37.6604 40.8626 37.4874 40.6387C37.3144 40.4148 37.1884 40.1583 37.1169 39.8846C36.1502 39.8597 35.1882 39.7407 34.2445 39.5293C32.7639 39.1887 31.757 37.0122 33.06 36.035C38.9825 31.7116 40.9813 25.2857 39.6636 22.4725C33.0156 8.24382 47.6589 -7.13979 59.2965 3.59468C72.326 15.6469 54.3068 19.8815 47.7033 19.5853C47.3628 19.5705 49.1247 27.1957 47.8662 32.6444Z" fill="#263238"/>
<path d="M52.6337 22.1172C52.6337 22.1172 48.8138 16.1947 53.1964 11.6048C57.579 7.01492 63.3238 10.8645 63.3238 10.8645L52.6337 22.1172Z" fill="#407BFF"/>
<path d="M54.07 72.7099H50.1908C52.4117 76.6483 62.1542 89.9591 73.5253 89.0855C84.2006 88.2564 83.6971 76.9445 80.351 72.9764C79.1352 72.9453 77.9253 72.7966 76.7382 72.5322C71.7634 71.2293 70.4456 65.4993 71.1859 60.8057L56.4982 50.0269C58.0853 56.5073 58.422 63.2309 57.4902 69.8375C57.3533 70.6441 56.9342 71.3758 56.3077 71.9019C55.6812 72.428 54.8881 72.7144 54.07 72.7099Z" fill="#FFB473"/>
<path d="M52.7966 31.8449C52.5745 44.0304 52.2044 49.1829 57.8307 55.8901C66.2999 65.9731 81.2985 63.5893 85.1629 51.7296C88.6276 41.0395 88.4203 22.9316 76.9455 17.1572C74.4222 15.868 71.6109 15.2463 68.7793 15.3512C65.9477 15.4562 63.1901 16.2843 60.7691 17.7568C58.3482 19.2292 56.3445 21.297 54.949 23.763C53.5534 26.2291 52.8125 29.0114 52.7966 31.8449Z" fill="#FFB473"/>
<path d="M79.2553 40.5508C80.0958 42.8271 81.2414 44.9789 82.6607 46.9471C82.1507 47.2997 81.5691 47.5356 80.9575 47.638C80.3459 47.7404 79.7192 47.7067 79.1221 47.5393L79.2553 40.5508Z" fill="#EC883E"/>
<path d="M70.0161 34.2436C69.9388 34.2135 69.8683 34.1682 69.8088 34.1104C69.7632 34.0662 69.7268 34.0133 69.702 33.9548C69.6772 33.8963 69.6645 33.8333 69.6645 33.7698C69.6645 33.7063 69.6772 33.6434 69.702 33.5849C69.7268 33.5264 69.7632 33.4734 69.8088 33.4293C70.4372 32.7781 71.2138 32.2885 72.0723 32.0023C72.9309 31.7161 73.8458 31.6419 74.7393 31.7858C74.8625 31.8174 74.9693 31.8946 75.0379 32.0017C75.1066 32.1088 75.1322 32.238 75.1094 32.3632C75.081 32.4853 75.0068 32.5918 74.9021 32.6607C74.7974 32.7296 74.6702 32.7556 74.5468 32.7334C73.8041 32.6239 73.0459 32.693 72.3353 32.9351C71.6246 33.1771 70.9818 33.5851 70.4603 34.1252C70.4024 34.181 70.3313 34.2211 70.2535 34.2419C70.1758 34.2626 70.0941 34.2632 70.0161 34.2436Z" fill="#2E353A"/>
<path d="M86.6731 34.7467C86.5909 34.725 86.5149 34.6845 86.451 34.6283C85.9326 34.0945 85.2934 33.6934 84.5872 33.4589C83.8811 33.2244 83.1288 33.1633 82.3941 33.2809C82.2685 33.3123 82.1355 33.2925 82.0245 33.2258C81.9134 33.1592 81.8334 33.0512 81.8019 32.9256C81.775 32.7981 81.7985 32.6652 81.8676 32.5548C81.9366 32.4444 82.0457 32.365 82.172 32.3333C83.0664 32.1851 83.9833 32.2529 84.8461 32.5311C85.7089 32.8093 86.4927 33.2897 87.1321 33.9324C87.1778 33.9766 87.2141 34.0295 87.2389 34.088C87.2637 34.1465 87.2765 34.2094 87.2765 34.2729C87.2765 34.3365 87.2637 34.3994 87.2389 34.4579C87.2141 34.5164 87.1778 34.5693 87.1321 34.6135C87.0693 34.6809 86.9887 34.7292 86.8997 34.7528C86.8106 34.7763 86.7166 34.7742 86.6287 34.7467H86.6731Z" fill="#2E353A"/>
<path d="M70.9638 38.8185C70.9638 39.8105 71.3784 40.6396 72.0299 40.6841C72.6813 40.7285 73.244 39.9585 73.2884 38.9517C73.3328 37.9449 72.8738 37.1454 72.2372 37.101C71.6005 37.0565 71.0231 37.8265 70.9638 38.8185Z" fill="#2E353A"/>
<path d="M82.1277 39.4998C82.1277 40.477 82.5423 41.3061 83.1938 41.3505C83.8452 41.395 84.4079 40.625 84.4671 39.633C84.5263 38.641 84.0525 37.8119 83.4158 37.7675C82.7792 37.723 82.1869 38.493 82.1277 39.4998Z" fill="#2E353A"/>
<path d="M83.1197 37.8113L85.5331 37.2783C85.5331 37.2783 84.2006 39.0403 83.1197 37.8113Z" fill="#2E353A"/>
<path d="M71.9559 37.145L74.3693 36.5972C74.3693 36.5972 73.0368 38.3739 71.9559 37.145Z" fill="#2E353A"/>
<path d="M79.8476 51.1667C79.8476 51.1667 77.1232 49.8786 68.9947 48.5312C69.276 51.6109 70.4753 54.2612 74.6802 54.9423C75.7911 55.1264 76.9303 54.8817 77.8676 54.2577C78.8049 53.6338 79.4703 52.6772 79.7291 51.5813C79.7736 51.4333 79.818 51.2704 79.8476 51.1667Z" fill="#2E353A"/>
<path d="M73.2884 52.3071C74.9213 52.4673 76.431 53.246 77.5082 54.4836C76.6534 54.9471 75.6642 55.0989 74.7098 54.913C73.0818 54.7619 71.5751 53.9874 70.5048 52.7513C71.3471 52.2676 72.3375 52.1095 73.2884 52.3071Z" fill="#882B29"/>
<path d="M79.5367 51.0337C79.398 51.3585 79.178 51.6422 78.898 51.8574C78.6179 52.0726 78.2872 52.2122 77.9376 52.2626C75.5361 51.8379 73.181 51.1834 70.9047 50.3082C70.5224 50.1789 70.1827 49.948 69.9218 49.6402C69.6609 49.3323 69.4889 48.9593 69.424 48.561C72.8656 49.0634 76.2516 49.8913 79.5367 51.0337Z" fill="white"/>
<path d="M54.7658 39.0999C56.4007 38.2276 57.8051 36.9794 58.8631 35.4581C59.9211 33.9367 60.6025 32.1857 60.8511 30.3494C61.5618 24.1753 67.81 25.2709 67.81 25.2709C67.81 25.2709 85.8143 31.1934 91.0557 24.4566C96.2971 17.7198 85.3849 18.1492 85.3849 18.1492C85.3849 18.1492 89.8268 6.67437 78.885 12.9374C78.885 12.9374 65.3522 5.3122 55.9799 12.8633C40.8332 25.0784 48.7397 38.1375 48.7397 38.1375C48.7397 38.1375 42.8172 45.9848 50.0722 46.0292C50.0722 46.0292 45.6304 48.6795 50.0722 51.389C57.0608 55.6088 54.7658 39.0999 54.7658 39.0999Z" fill="#263238"/>
<path d="M86.2881 27.2107C69.3795 20.5183 54.9731 26.5 47.2294 34.3621C47.2294 34.599 47.2295 34.7767 47.1554 34.9248C47.0311 35.5582 47.1171 36.2148 47.4004 36.7948C47.6838 37.3748 48.1488 37.8464 48.7249 38.1377C49.48 37.4122 65.4262 21.4659 86.4066 30.8382C86.4066 30.8382 87.4578 30.1127 87.369 29.4613C87.2801 28.8098 87.0729 27.5809 86.2881 27.2107Z" fill="#407BFF"/>
</svg>
