<svg width="48" height="48" viewBox="0 0 48 48" fill="none" xmlns="http://www.w3.org/2000/svg">
<path d="M15 33H32.9999C37.1421 33 40.4998 36.3577 40.4998 40.5V46.4999C40.4998 47.3287 39.8286 47.9999 38.9998 47.9999H8.99999C8.17125 47.9999 7.5 47.3287 7.5 46.4999V40.5C7.5 36.3577 10.8577 33 15 33Z" fill="#3689C9"/>
<path d="M28.3949 28.4999H19.605C18.6015 28.5006 17.664 27.9996 17.1075 27.1649L14.0025 22.4999C13.6755 22.0086 13.5007 21.4326 13.5 20.8424V11.9999C13.5 7.02973 17.5297 3 22.4999 3H25.4999C30.4702 3 34.4999 7.02973 34.4999 11.9999V20.8424C34.4991 21.4326 34.3244 22.0086 33.9974 22.4999L30.8924 27.1574C30.3374 27.9951 29.3999 28.4991 28.3949 28.4999Z" fill="#EFC9AE"/>
<path d="M34.4999 18.75C35.3283 18.75 35.9999 17.7426 35.9999 16.5C35.9999 15.2574 35.3283 14.25 34.4999 14.25C33.6714 14.25 32.9999 15.2574 32.9999 16.5C32.9999 17.7426 33.6714 18.75 34.4999 18.75Z" fill="#E2B698"/>
<path d="M13.5 18.75C14.3284 18.75 15 17.7426 15 16.5C15 15.2574 14.3284 14.25 13.5 14.25C12.6716 14.25 12 15.2574 12 16.5C12 17.7426 12.6716 18.75 13.5 18.75Z" fill="#EFC9AE"/>
<path d="M32.2499 11.25C32.2499 11.25 20.7825 12 16.5 12C16.08 12 15.75 10.5 15.75 10.5H32.2499V11.25Z" fill="#E2B698"/>
<path d="M32.9999 15V20.79C32.9917 21.4042 32.7959 22.0012 32.4375 22.5L29.7 26.3699C29.4232 26.7592 28.9777 26.9932 28.5 26.9999H25.5C24.6712 26.9999 24 27.6712 24 28.4999H28.395C29.3985 28.5007 30.336 27.9997 30.8925 27.1649L33.9974 22.5C34.3244 22.0087 34.4992 21.4327 34.4999 20.8425V15H32.9999Z" fill="#E2B698"/>
<path d="M14.9999 1.94294V1.50045C14.9991 0.6717 14.3272 0.00120376 13.4984 0.00195375C13.2982 0.00195375 13.0994 0.0424535 12.9149 0.120453C10.9679 1.0872 9.74093 3.07694 9.74993 5.25042C9.74918 7.57241 11.2747 9.61915 13.4999 10.2829V15.7504C15.1566 15.7504 16.4999 14.4071 16.4999 12.7504V11.2504C16.4999 10.8364 16.8359 10.5004 17.2499 10.5004H30.7498C31.1638 10.5004 31.4998 10.8364 31.4998 11.2504V12.7504C31.4998 14.4071 32.843 15.7504 34.4998 15.7504V9.0004C34.4998 5.68692 31.8133 3.00044 28.4998 3.00044H15.7499C15.2924 2.85419 14.9871 2.42294 14.9999 1.94294Z" fill="#C97629"/>
<path d="M10.4999 6.4427C10.4902 4.26922 11.7179 2.27948 13.6649 1.31273C14.0992 1.13124 14.5934 1.16499 14.9999 1.40273C14.9459 0.576239 14.2327 -0.0507576 13.4054 0.00324209C13.2367 0.014492 13.0702 0.0534918 12.9149 0.120241C10.9679 1.08699 9.74093 3.07672 9.74993 5.25021C9.75218 6.48095 10.1902 7.67195 10.9874 8.61019C10.6709 7.93145 10.5044 7.19195 10.4999 6.4427Z" fill="#DA8C36"/>
<path d="M28.4999 3H26.9999C30.3134 3 32.9998 5.68648 32.9998 8.99997V14.1749C32.9833 15.0224 33.6523 15.7252 34.4998 15.7499V8.99997C34.4998 5.68648 31.8133 3 28.4999 3Z" fill="#B06328"/>
<path d="M13.5 10.2827V15.7502C15.1567 15.7502 16.5 14.4069 16.5 12.7502V11.2502C16.5 10.8362 16.836 10.5002 17.25 10.5002H15C14.4915 10.5115 13.9845 10.438 13.5 10.2827Z" fill="#C97629"/>
<path d="M13.5 10.2827C13.5 11.2315 14.2687 12.0002 15.2175 12.0002H16.5V11.2502C16.5 10.8362 16.836 10.5002 17.25 10.5002H15C14.4915 10.5115 13.9845 10.438 13.5 10.2827Z" fill="#B06328"/>
<path d="M20.2499 18C21.0783 18 21.7499 17.3284 21.7499 16.5C21.7499 15.6716 21.0783 15 20.2499 15C19.4214 15 18.7499 15.6716 18.7499 16.5C18.7499 17.3284 19.4214 18 20.2499 18Z" fill="#123247"/>
<path d="M27.7499 18C28.5783 18 29.2499 17.3284 29.2499 16.5C29.2499 15.6716 28.5783 15 27.7499 15C26.9214 15 26.2499 15.6716 26.2499 16.5C26.2499 17.3284 26.9214 18 27.7499 18Z" fill="#123247"/>
<path d="M29.9999 20.25C30.4141 20.25 30.7499 19.9142 30.7499 19.5C30.7499 19.0858 30.4141 18.75 29.9999 18.75C29.5857 18.75 29.2499 19.0858 29.2499 19.5C29.2499 19.9142 29.5857 20.25 29.9999 20.25Z" fill="#F9AA8F"/>
<path d="M18 20.25C18.4142 20.25 18.75 19.9142 18.75 19.5C18.75 19.0858 18.4142 18.75 18 18.75C17.5858 18.75 17.25 19.0858 17.25 19.5C17.25 19.9142 17.5858 20.25 18 20.25Z" fill="#F9AA8F"/>
<path d="M27.3749 16.5C27.582 16.5 27.7499 16.3321 27.7499 16.125C27.7499 15.9179 27.582 15.75 27.3749 15.75C27.1678 15.75 26.9999 15.9179 26.9999 16.125C26.9999 16.3321 27.1678 16.5 27.3749 16.5Z" fill="#E2E5E7"/>
<path d="M19.8749 16.5C20.082 16.5 20.2499 16.3321 20.2499 16.125C20.2499 15.9179 20.082 15.75 19.8749 15.75C19.6678 15.75 19.4999 15.9179 19.4999 16.125C19.4999 16.3321 19.6678 16.5 19.8749 16.5Z" fill="#E2E5E7"/>
<path d="M27.6374 21.2626C27.5204 21.0976 27.3299 20.9994 27.1274 21.0001H20.8724C20.5289 20.9799 20.2342 21.2416 20.2139 21.5844C20.2087 21.6684 20.2214 21.7531 20.2499 21.8326C20.7464 23.5074 22.2539 24.6811 23.9999 24.7501C25.7459 24.6811 27.2534 23.5074 27.7499 21.8326C27.8091 21.6361 27.7671 21.4224 27.6374 21.2626Z" fill="#123247"/>
<path d="M25.9199 23.25C24.8249 22.2832 23.1824 22.2832 22.0874 23.25C23.1569 24.282 24.8504 24.282 25.9199 23.25Z" fill="#F04B4D"/>
<path d="M23.9999 36.4573C24.7236 36.4566 25.4361 36.2818 26.0774 35.9473L30.7499 33.7498C30.9569 33.7041 31.0881 33.4993 31.0424 33.2923C30.9966 33.0853 30.7919 32.9541 30.5849 32.9998H17.9999C17.7929 32.9991 17.6242 33.1656 17.6227 33.3726C17.6219 33.5113 17.6977 33.6388 17.8199 33.7048L21.9449 35.9548C22.5802 36.2833 23.2852 36.4558 23.9999 36.4573Z" fill="#1470B8"/>
<path d="M28.4998 33L25.3873 34.62C24.5196 35.0707 23.4876 35.0707 22.6199 34.62L19.4999 33V28.5H28.4998V33Z" fill="#EFC9AE"/>
<path d="M19.4999 28.5C19.4999 29.3287 20.1711 30 20.9999 30H25.4998C25.9138 30 26.2498 30.336 26.2498 30.75V34.17L28.4998 33V28.5H19.4999Z" fill="#E2B698"/>
<path d="M37.4998 43.5V44.25C37.4998 44.664 37.1638 45 36.7498 45H12C10.3432 45 9 46.3432 9 48H38.9998C39.8286 48 40.4998 47.3287 40.4998 46.5V40.5C38.8431 40.5 37.4998 41.8432 37.4998 43.5Z" fill="#1470B8"/>
<path d="M23.2499 18.75H24.7499C25.1639 18.75 25.4999 19.086 25.4999 19.5C25.4999 19.914 25.1639 20.25 24.7499 20.25H23.2499C22.8359 20.25 22.4999 19.914 22.4999 19.5C22.4999 19.086 22.8359 18.75 23.2499 18.75Z" fill="#E2B698"/>
</svg>
