<svg width="48" height="48" viewBox="0 0 48 48" fill="none" xmlns="http://www.w3.org/2000/svg">
<path d="M1.57501 31.6503C0.900015 26.5503 4.05002 18.3753 5.55002 7.35029C5.85002 5.40029 16.05 3.30029 20.85 3.30029C22.05 3.30029 23.1 8.92529 22.8 10.8753C22.575 12.3003 20.55 11.9253 20.55 11.9253C19.875 13.8003 17.85 13.0503 17.85 13.0503C17.25 14.6253 15.45 13.8753 15.45 13.8753C14.7 15.3753 13.05 14.6253 13.05 14.6253C11.55 21.1503 14.325 20.5503 16.35 30.3753C16.35 30.3753 16.95 30.3003 18.525 27.0753C24.975 14.1003 47.625 18.2253 46.275 32.1753C45.975 35.2503 49.275 40.3503 37.05 44.1753C27.375 47.1753 15.525 41.4003 15.525 41.4003C11.475 42.6753 3.60001 42.6003 3.37502 39.6003C3.15001 36.0753 1.95001 34.2753 1.57501 31.6503Z" fill="#FED0AC"/>
<path d="M46.35 32.1751C46.65 28.8751 45.675 26.1751 43.875 24.2251C44.925 26.0251 45.45 28.2001 45.225 30.7501C44.925 33.8251 48.225 38.9251 36 42.7501C26.325 45.7501 14.475 39.9751 14.475 39.9751C11.325 40.9501 5.77501 41.1001 3.45001 39.6751C3.75001 42.6001 11.55 42.6751 15.6 41.4001C15.6 41.4001 27.45 47.1751 37.125 44.1751C49.275 40.3501 46.05 35.2501 46.35 32.1751Z" fill="#E0A372"/>
<path d="M12.225 14.5503C10.35 22.2003 13.425 21.9003 15.45 31.5753L16.5 30.4503C15 20.7003 12.45 21.9003 13.05 14.7003C12.6 14.7003 12.225 14.5503 12.225 14.5503Z" fill="#E0A372"/>
<path d="M21.9 36.3752C28.125 38.7002 37.5 36.3002 42.825 33.8252C40.5 39.4502 28.125 42.4502 21.9 36.3752Z" fill="#E0A372"/>
<path d="M18.825 5.39992C18.375 4.57492 17.475 4.64992 16.875 4.87492C16.95 3.97492 19.125 3.29992 18.825 5.39992Z" fill="#E0A372"/>
<path d="M23.4 8.6251C23.175 6.9751 22.65 5.3251 21.675 3.9751C22.2 5.4001 22.5 6.9001 22.5 8.4001C22.5 9.0751 22.65 11.4751 21.45 11.1751C20.7 10.9501 20.7 10.3501 20.475 9.6751C20.175 8.6251 19.575 7.5001 19.65 6.4501C19.35 7.5001 19.725 8.7751 19.8 9.8251C19.875 10.4251 20.325 12.1501 19.5 12.3751C19.05 12.5251 18.525 12.2251 18.15 12.0001C18 11.9251 17.925 11.3251 17.85 11.1001C17.55 10.0501 16.95 8.8501 17.025 7.7251C16.725 8.7001 17.025 9.9001 17.1 10.9501C17.175 11.5501 17.475 12.9751 16.725 13.2751C15.825 13.7251 15.75 12.6751 15.6 12.1501C15.3 11.1751 14.85 10.0501 14.85 9.0001C14.55 10.2751 14.925 11.7751 14.925 13.0501C14.925 13.7251 13.5 14.2501 12.975 13.8751C12.15 13.2751 12 11.7751 11.85 10.8001C12.075 11.1001 12.45 11.5501 12.9 11.4751C12.525 11.0251 12.3 10.3501 12.075 9.8251C11.85 9.3751 11.325 8.4001 10.725 8.4001C10.8 8.5501 11.325 9.8251 11.25 9.9001C11.025 10.2751 10.8 10.7251 10.5 11.1001C10.275 11.4001 9.59999 12.4501 9.07499 12.1501C8.47499 11.7751 8.32499 10.8751 8.17499 10.2751C8.24999 11.0251 8.17499 12.1501 8.92499 12.6001C9.59999 13.0501 10.425 12.3751 10.875 11.9251C11.025 13.4251 11.7 15.4501 13.575 15.3001C13.95 15.3001 14.4 15.1501 14.775 15.0001C15.075 14.8501 15.45 14.4751 15.75 14.6251C16.575 14.8501 17.4 14.7001 18 14.1001C18.3 13.8001 18.225 13.6501 18.6 13.7251C19.05 13.8001 19.5 13.8751 19.875 13.7251C20.25 13.6501 20.55 13.4251 20.775 13.1251C20.925 12.9751 21 12.8251 21.075 12.6001C21.225 12.3001 21.375 12.4501 21.675 12.4501C23.625 12.4501 23.55 9.9751 23.4 8.6251Z" fill="#E0A372"/>
<path d="M21.525 4.35005C21.075 3.52505 20.175 3.60005 19.575 3.82505C19.65 3.00005 21.9 2.32505 21.525 4.35005Z" fill="#E0A372"/>
<path d="M16.65 6.52492C16.2 5.69992 15.3 5.77492 14.7 5.99992C14.775 5.09992 16.95 4.42492 16.65 6.52492Z" fill="#E0A372"/>
<path d="M14.1 7.72511C13.65 6.90011 12.75 6.97511 12.15 7.20011C12.225 6.30011 14.475 5.62511 14.1 7.72511Z" fill="#E0A372"/>
</svg>
