<svg width="48" height="48" viewBox="0 0 48 48" fill="none" xmlns="http://www.w3.org/2000/svg">
<path opacity="0.1" d="M8.36401 30.1405C8.31967 29.5999 8.29642 29.0533 8.29642 28.5012C8.29642 17.5554 17.1698 8.68204 28.1156 8.68204C29.2695 8.68204 30.4002 8.78076 31.5 8.97004C29.2425 7.84129 26.6957 7.20557 24 7.20557C14.7246 7.20557 7.20544 14.7248 7.20544 24.0002C7.20544 26.1674 7.61635 28.2386 8.36401 30.1405Z" fill="#241A12"/>
<path d="M24 0.780762C11.1764 0.780762 0.780884 11.1763 0.780884 23.9999C0.780884 36.8234 11.1764 47.2191 24 47.2191C36.8236 47.2191 47.2192 36.8235 47.2192 23.9999C47.2192 11.1762 36.8237 0.780762 24 0.780762ZM7.2054 23.9999C7.2054 14.7244 14.7246 7.20527 24 7.20527C27.49 7.20527 30.7313 8.27009 33.417 10.0922L10.0923 33.417C8.27021 30.7311 7.2054 27.4899 7.2054 23.9999ZM24 40.7947C20.51 40.7947 17.2687 39.7298 14.583 37.9077L37.9078 14.5829C39.7299 17.2687 40.7948 20.5099 40.7948 24C40.7947 33.2753 33.2754 40.7947 24 40.7947Z" fill="#FF6465"/>
<path d="M24.0001 0C21.7623 0 19.5462 0.308063 17.4129 0.915658C16.9983 1.03378 16.7577 1.46578 16.8759 1.88053C16.994 2.29519 17.4255 2.53594 17.8408 2.41754C19.8349 1.8496 21.9071 1.5616 24.0001 1.5616C29.9936 1.5616 35.6284 3.8956 39.8664 8.13367C44.1044 12.3717 46.4385 18.0065 46.4385 24C46.4385 32.2774 41.9039 39.8561 34.6046 43.7783C34.2248 43.9824 34.0821 44.4559 34.2863 44.8357C34.4273 45.0981 34.6964 45.2472 34.9748 45.2472C35.0995 45.2472 35.2261 45.2172 35.3437 45.154C43.1504 40.9592 48 32.8535 48 24C48 17.5893 45.5036 11.5625 40.9707 7.02948C36.4377 2.49647 30.4108 0 24.0001 0Z" fill="#241A12"/>
<path d="M33.8556 9.44598C30.9419 7.46916 27.5338 6.42432 24.0001 6.42432C14.309 6.42432 6.42468 14.3086 6.42468 23.9998C6.42468 27.5333 7.46953 30.9413 9.44625 33.8551C9.57703 34.0478 9.78685 34.1719 10.0187 34.1941C10.0433 34.1963 10.068 34.1976 10.0926 34.1976C10.2986 34.1976 10.4976 34.116 10.6447 33.9689L33.9693 10.6442C34.134 10.4796 34.2165 10.2501 34.1945 10.0183C34.1725 9.78657 34.0482 9.57667 33.8556 9.44598ZM10.2284 32.1766C8.75869 29.7079 7.98628 26.9007 7.98628 23.9998C7.98628 15.1698 15.17 7.9861 24 7.9861C26.9009 7.9861 29.7082 8.75841 32.1767 10.2282L10.2284 32.1766Z" fill="#241A12"/>
<path d="M32.174 46.5711C32.5793 46.4242 32.789 45.9765 32.6422 45.5709C32.4953 45.1653 32.0475 44.956 31.642 45.1027C29.1954 45.989 26.6242 46.4383 24.0001 46.4383C18.0066 46.4383 12.372 44.1043 8.13379 39.8662C3.89563 35.6282 1.56163 29.9934 1.56163 23.9999C1.56163 19.6143 2.82669 15.3666 5.22032 11.7157C7.55357 8.15637 10.8277 5.34312 14.6886 3.57968C15.0809 3.40052 15.2537 2.9373 15.0745 2.54505C14.8953 2.1528 14.432 1.98002 14.0399 2.15908C9.91083 4.04505 6.40935 7.05359 3.91438 10.8595C1.35369 14.7656 0.00012207 19.3095 0.00012207 23.9999C0.00012207 30.4105 2.4966 36.4374 7.0297 40.9704C11.5628 45.5034 17.5896 47.9998 24.0003 47.9998C26.8062 48 29.5564 47.5193 32.174 46.5711Z" fill="#241A12"/>
<path d="M13.8058 37.9813C13.8278 38.2131 13.952 38.423 14.1448 38.5538C17.0584 40.5306 20.4665 41.5754 24.0002 41.5754C33.6914 41.5754 41.5757 33.6911 41.5757 24C41.5757 20.4664 40.5309 17.0583 38.5541 14.1447C38.4234 13.9519 38.2135 13.8278 37.9818 13.8057C37.7503 13.7839 37.5203 13.8662 37.3557 14.0309L14.0309 37.3554C13.8663 37.5201 13.7837 37.7496 13.8058 37.9813ZM37.7719 15.8232C39.2414 18.2915 40.0139 21.0992 40.0139 23.9999C40.0139 32.8299 32.8302 40.0136 24.0001 40.0136C21.0992 40.0136 18.292 39.2413 15.8234 37.7715L37.7719 15.8232Z" fill="#241A12"/>
</svg>
