<svg width="48" height="48" viewBox="0 0 48 48" fill="none" xmlns="http://www.w3.org/2000/svg">
<path d="M23.994 44.7391C35.4002 44.7391 44.6467 35.4925 44.6467 24.0863C44.6467 12.6801 35.4002 3.43359 23.994 3.43359C12.5878 3.43359 3.34125 12.6801 3.34125 24.0863C3.34125 35.4925 12.5878 44.7391 23.994 44.7391Z" fill="#AF8756"/>
<path d="M24.042 41.7548C33.7868 41.7548 41.6865 33.8551 41.6865 24.1103C41.6865 14.3655 33.7868 6.46582 24.042 6.46582C14.2972 6.46582 6.39752 14.3655 6.39752 24.1103C6.39752 33.8551 14.2972 41.7548 24.042 41.7548Z" fill="#89643D"/>
<path d="M4.52252 20.0663C4.52252 20.0663 0.81002 19.6553 0.75002 23.838C0.68177 28.7063 4.93352 28.0208 4.93352 28.0208L4.52252 20.0663Z" fill="#AF8756"/>
<path d="M43.35 28.5115C43.35 28.5115 47.0625 28.9225 47.121 24.7405C47.19 19.8715 42.9383 20.557 42.9383 20.557L43.35 28.5115Z" fill="#AF8756"/>
<path d="M27.4988 23.3273C27.7308 23.3273 27.9188 23.1393 27.9188 22.9073C27.9188 22.6753 27.7308 22.4873 27.4988 22.4873C27.2668 22.4873 27.0788 22.6753 27.0788 22.9073C27.0788 23.1393 27.2668 23.3273 27.4988 23.3273Z" fill="#FFD7A3"/>
<path d="M10.476 22.017C10.476 22.017 9.69525 20.5125 10.8052 19.9995C11.9152 19.4865 12.09 20.016 12.09 20.016C12.09 20.016 10.7092 18.4163 11.388 17.4578C11.9109 16.7817 12.527 16.1833 13.218 15.6803C13.218 15.6803 12.2332 15.711 12.8685 14.6205C13.5038 13.53 15.1733 13.4205 15.1733 13.4205C15.0738 13.3193 15.0039 13.1929 14.9711 13.0549C14.9382 12.9169 14.9437 12.7726 14.9868 12.6375C15.03 12.5023 15.1092 12.3815 15.2159 12.2881C15.3226 12.1947 15.4528 12.1322 15.5925 12.1073C16.7467 11.727 17.3115 13.0073 17.3115 13.0073C17.1933 12.8853 17.1019 12.7398 17.0433 12.5804C16.9846 12.4209 16.9601 12.2509 16.9711 12.0814C16.9821 11.9118 17.0285 11.7464 17.1073 11.5959C17.186 11.4454 17.2955 11.313 17.4285 11.2073C17.7615 10.9537 18.1603 10.8011 18.5775 10.7676C18.9947 10.7341 19.4128 10.8211 19.782 11.0183C19.782 11.0183 20.1172 9.87978 20.6302 9.71103C21.1432 9.54228 23.1232 11.2373 23.1232 11.2373C23.5298 10.7764 24.0642 10.447 24.6585 10.2908C25.4715 10.1693 25.818 10.7895 25.6515 11.5778C26.0524 11.284 26.5158 11.0869 27.0055 11.0018C27.4952 10.9167 27.998 10.946 28.4745 11.0873C29.3359 11.3534 30.0754 11.9159 30.5617 12.675C30.7154 12.5551 30.8913 12.4668 31.0793 12.4154C31.2673 12.3639 31.4636 12.3503 31.657 12.3752C31.8503 12.4002 32.0367 12.4633 32.2054 12.5608C32.3742 12.6584 32.5219 12.7885 32.64 12.9435C33.2984 13.7127 33.8446 14.5712 34.2622 15.4935C34.2622 15.4935 38.556 17.3078 38.877 20.652C39.1827 20.9431 39.421 21.2976 39.5752 21.6905C39.7294 22.0835 39.7957 22.5055 39.7695 22.9268C39.7695 22.9268 40.6335 24.0368 40.0605 24.8858C39.4875 25.7348 39.7822 24.9045 39.7822 24.9045C39.7822 24.9045 40.3297 26.7795 39.5025 27.933C38.6752 29.0865 36.621 29.325 36.621 29.325C36.621 29.325 38.2388 31.2135 37.605 32.5238C37.5162 32.6986 37.3926 32.8534 37.2418 32.9786C37.091 33.1039 36.9161 33.197 36.728 33.2521C36.5398 33.3073 36.3424 33.3233 36.1478 33.2993C35.9532 33.2753 35.7656 33.2118 35.5965 33.1125C35.5965 33.1125 36.1103 33.1635 35.5785 33.7058C35.1843 34.0689 34.7197 34.3471 34.2135 34.5233L33.5595 35.9865C33.5595 35.9865 33.5392 36.1365 32.7262 36.2618C32.7262 36.2618 32.9902 37.2758 30.9607 38.0183C30.7738 38.296 30.5138 38.5167 30.2095 38.6562C29.9051 38.7957 29.5682 38.8485 29.2357 38.8088C29.2357 38.8088 28.386 39.897 26.4982 39.345C26.4982 39.345 23.6842 41.154 22.4917 38.8313C22.4917 38.8313 21.1702 39.7808 20.457 38.6948C20.457 38.6948 19.557 39.2108 19.1722 38.6783C19.1722 38.6783 17.0722 38.5628 17.04 36.7388C17.04 36.7388 16.1895 37.6065 15.8182 36.4808C15.8182 36.4808 13.7437 36.8715 13.086 34.446L12.9262 32.8838C12.9262 32.8838 11.8147 33.177 11.7465 32.5388C11.7329 32.3583 11.7858 32.179 11.8952 32.0348C12.0046 31.8906 12.163 31.7913 12.3405 31.7558C12.3405 31.7558 10.3035 31.1798 11.0422 29.541L11.7675 29.1548C11.425 28.8537 11.1737 28.4626 11.0422 28.0259C10.9107 27.5892 10.9042 27.1245 11.0235 26.6843C11.0235 26.6843 8.394 24.5385 10.476 22.017Z" fill="#FFE9CC"/>
<path d="M14.9423 21.8469C14.4435 22.0164 14.0273 22.1102 13.7873 22.6359C13.5818 23.0859 13.584 23.6642 14.2373 23.6574C13.9995 24.0812 13.4565 24.4149 13.4265 24.9324C13.389 25.5827 13.971 25.6119 14.3738 25.8984C13.938 26.2854 13.1513 27.0009 13.1198 27.6234C13.1451 27.8872 13.2256 28.1427 13.356 28.3734C13.656 28.8332 13.8623 28.6202 14.256 28.8437C14.0055 29.4032 13.539 30.3617 13.8735 30.9789C14.241 31.6577 15.2685 31.3764 15.6923 31.0044C15.9233 31.6112 16.2788 31.4072 16.7025 31.4657C17.4083 31.5624 17.5605 31.6719 17.6348 30.8912C17.6445 30.7839 17.5275 30.4187 17.5598 30.3662C17.7158 30.1052 18.5348 30.2297 18.8498 30.2162C19.2855 30.1982 20.238 30.2694 20.5943 29.9042C21.0023 29.4857 20.5943 28.9089 20.7443 28.5047C20.9843 27.8372 22.2938 27.7832 22.8165 27.1419C23.3835 26.4467 23.5703 24.4622 22.248 25.0074C22.542 24.4952 22.323 23.8607 21.6293 23.9874C21.6023 22.4552 20.0318 22.9922 19.212 23.4309C19.1221 22.75 18.8155 22.116 18.3375 21.6227C17.9243 21.2379 17.5725 21.2709 17.151 21.1187C16.9507 20.9966 16.7267 20.9186 16.494 20.8898C16.2612 20.8611 16.0249 20.8824 15.801 20.9522C15.4187 21.0284 15.0532 21.1724 14.7218 21.3774" fill="#FFF7ED"/>
<path d="M16.9748 33.5036C17.0753 34.0203 17.1113 34.4456 17.5988 34.7546C18.0188 35.0201 18.5903 35.0966 18.6728 34.4501C19.0598 34.7441 19.3163 35.3276 19.8225 35.4251C20.4615 35.5511 20.5725 34.9751 20.9085 34.6188C21.2325 35.1026 21.8348 35.9801 22.4438 36.0956C22.7091 36.1064 22.9738 36.0614 23.2208 35.9636C23.7173 35.7281 23.535 35.4956 23.8103 35.1386C24.33 35.4633 25.2165 36.0558 25.8728 35.8091C26.595 35.5368 26.457 34.4808 26.1465 34.0091C26.7788 33.8628 26.625 33.4841 26.7405 33.0708C26.9333 32.3846 27.0623 32.2458 26.2988 32.0688C26.1938 32.0448 25.8158 32.1108 25.7738 32.0741C25.536 31.8836 25.7738 31.0886 25.8015 30.7751C25.8435 30.3408 26.0438 29.4071 25.7265 29.0043C25.368 28.5431 24.7418 28.8671 24.3608 28.6676C23.7323 28.3391 23.8575 27.0333 23.2935 26.4288C22.6815 25.7718 20.7435 25.3166 21.1013 26.7011C20.6333 26.3396 19.9763 26.4761 20.007 27.1743C18.4853 26.9928 18.8025 28.6218 19.1258 29.4933C18.4387 29.4899 17.7688 29.7073 17.2148 30.1136C16.7775 30.4706 16.7648 30.8231 16.554 31.2198C16.4061 31.4015 16.2985 31.6125 16.2382 31.8389C16.178 32.0653 16.1665 32.3019 16.2045 32.5331C16.2286 32.9214 16.3216 33.3023 16.479 33.6581" fill="#FFF7ED"/>
<path d="M28.8 26.4752C28.8998 26.992 28.9358 27.4172 29.424 27.7262C29.8433 27.9917 30.4148 28.0682 30.4973 27.4217C30.885 27.7157 31.1415 28.2992 31.647 28.3967C32.286 28.5227 32.397 27.9467 32.7338 27.5905C33.0578 28.0742 33.6593 28.9517 34.269 29.0672C34.5344 29.078 34.7991 29.033 35.046 28.9352C35.5425 28.6997 35.3595 28.4672 35.6348 28.1102C36.1545 28.435 37.041 29.0275 37.698 28.7807C38.4203 28.5085 38.2815 27.4525 37.971 26.9807C38.604 26.8345 38.4495 26.4557 38.5658 26.0425C38.7578 25.3562 38.8875 25.2175 38.1233 25.0405C38.019 25.0165 37.6403 25.0825 37.5983 25.0457C37.3613 24.8552 37.5983 24.0602 37.626 23.7467C37.668 23.3125 37.8683 22.378 37.5548 21.976C37.1955 21.5147 36.5693 21.8387 36.1883 21.6392C35.5605 21.3107 35.685 20.005 35.121 19.4005C34.5098 18.7435 32.571 18.2882 32.9288 19.6727C32.4615 19.3112 31.8038 19.4477 31.8345 20.146C30.3128 19.9645 30.6345 21.5935 30.954 22.465C30.2669 22.4617 29.5968 22.6788 29.0423 23.0845C28.605 23.4422 28.5923 23.7947 28.3815 24.1915C28.2337 24.3732 28.1262 24.5843 28.0661 24.8107C28.006 25.0371 27.9946 25.2736 28.0328 25.5047C28.0569 25.893 28.1498 26.274 28.3073 26.6297" fill="#FFF7ED"/>
<path d="M16.95 27.102C16.95 27.102 15.441 26.4435 15.894 25.3417C15.9235 25.2087 15.9903 25.0869 16.0866 24.9905C16.1829 24.8941 16.3047 24.8272 16.4377 24.7976C16.5706 24.768 16.7093 24.777 16.8374 24.8234C16.9655 24.8698 17.0777 24.9518 17.1608 25.0597C17.1354 24.9569 17.133 24.8498 17.1535 24.7459C17.1741 24.642 17.2171 24.5439 17.2797 24.4584C17.3423 24.373 17.4228 24.3023 17.5156 24.2513C17.6085 24.2004 17.7114 24.1704 17.817 24.1635C18.6548 24.0232 18.549 25.146 18.549 25.146C18.549 25.146 19.6328 24.921 19.5893 25.6192C19.5287 26.0852 19.3112 26.5166 18.9728 26.8425C18.9728 26.8425 20.2763 27.9082 19.458 28.5187C19.2128 28.6829 18.9186 28.7576 18.6248 28.7303C18.3309 28.703 18.0555 28.5753 17.8448 28.3687C17.8448 28.3687 16.0838 28.8142 16.95 27.102Z" fill="white"/>
<path d="M21.7633 31.4973C22.1527 31.3688 22.3688 30.9627 22.2459 30.5902C22.123 30.2177 21.7077 30.0198 21.3183 30.1483C20.9289 30.2767 20.7128 30.6828 20.8356 31.0554C20.9585 31.4279 21.3738 31.6257 21.7633 31.4973Z" fill="white"/>
<path d="M21.2495 32.4153C21.639 32.2868 21.8641 31.9082 21.7524 31.5695C21.6407 31.2308 21.2344 31.0603 20.845 31.1888C20.4555 31.3173 20.2304 31.6959 20.3421 32.0346C20.4538 32.3733 20.8601 32.5438 21.2495 32.4153Z" fill="white"/>
<path d="M22.8568 32.8035C23.3733 32.6331 23.6561 32.083 23.4885 31.5748C23.3209 31.0665 22.7663 30.7927 22.2498 30.963C21.7333 31.1334 21.4505 31.6835 21.6181 32.1917C21.7857 32.6999 22.3403 32.9738 22.8568 32.8035Z" fill="white"/>
<path d="M23.1482 31.2117C23.6646 31.0413 23.9474 30.4912 23.7798 29.983C23.6122 29.4748 23.0576 29.2009 22.5411 29.3712C22.0246 29.5416 21.7418 30.0917 21.9094 30.5999C22.0771 31.1081 22.6317 31.382 23.1482 31.2117Z" fill="white"/>
<path d="M21.0368 30.9211C21.0538 30.974 21.0603 31.0298 21.0557 31.0852C21.0512 31.1406 21.0358 31.1946 21.0103 31.2441C20.9849 31.2935 20.95 31.3375 20.9076 31.3734C20.8651 31.4094 20.816 31.4366 20.763 31.4536C20.7105 31.4732 20.6545 31.4819 20.5985 31.4791C20.5425 31.4763 20.4876 31.462 20.4373 31.4372C20.387 31.4124 20.3423 31.3776 20.306 31.3349C20.2697 31.2922 20.2424 31.2424 20.226 31.1888C20.151 30.8626 20.274 30.5888 20.4998 30.6563C20.7255 30.7238 20.964 30.7013 21.0368 30.9211Z" fill="white"/>
<path d="M34.9053 24.8498C35.2948 24.7214 35.5109 24.3153 35.388 23.9427C35.2651 23.5702 34.8498 23.3724 34.4604 23.5008C34.0709 23.6293 33.8549 24.0354 33.9777 24.4079C34.1006 24.7804 34.5159 24.9783 34.9053 24.8498Z" fill="white"/>
<path d="M34.3923 25.7678C34.7817 25.6394 35.0068 25.2607 34.8951 24.922C34.7834 24.5833 34.3772 24.4129 33.9877 24.5413C33.5983 24.6698 33.3732 25.0485 33.4849 25.3872C33.5966 25.7259 34.0029 25.8963 34.3923 25.7678Z" fill="white"/>
<path d="M35.9996 26.156C36.5161 25.9857 36.7989 25.4355 36.6313 24.9273C36.4636 24.4191 35.909 24.1452 35.3925 24.3156C34.876 24.4859 34.5932 25.036 34.7609 25.5443C34.9285 26.0525 35.4831 26.3264 35.9996 26.156Z" fill="white"/>
<path d="M36.291 24.5642C36.8075 24.3939 37.0903 23.8437 36.9226 23.3355C36.755 22.8273 36.2004 22.5534 35.6839 22.7238C35.1674 22.8941 34.8846 23.4442 35.0523 23.9525C35.2199 24.4607 35.7745 24.7346 36.291 24.5642Z" fill="white"/>
<path d="M33.9055 24.8071C34.1293 24.7333 34.2519 24.4949 34.1792 24.2746C34.1066 24.0543 33.8662 23.9356 33.6424 24.0094C33.4186 24.0832 33.296 24.3216 33.3687 24.5419C33.4413 24.7622 33.6817 24.8809 33.9055 24.8071Z" fill="white"/>
<path d="M35.1902 23.9064C35.6292 23.7616 35.8696 23.2941 35.7271 22.8622C35.5846 22.4303 35.1133 22.1975 34.6743 22.3423C34.2353 22.4871 33.9949 22.9546 34.1374 23.3865C34.2798 23.8185 34.7512 24.0512 35.1902 23.9064Z" fill="white"/>
<path d="M19.6088 19.3165C20.0188 19.3165 20.3513 18.9841 20.3513 18.574C20.3513 18.164 20.0188 17.8315 19.6088 17.8315C19.1987 17.8315 18.8663 18.164 18.8663 18.574C18.8663 18.9841 19.1987 19.3165 19.6088 19.3165Z" fill="#FFD7A3"/>
<path d="M25.8498 21.1053C26.2223 20.9824 26.4202 20.5671 26.2917 20.1776C26.1633 19.7882 25.7572 19.5721 25.3846 19.695C25.0121 19.8179 24.8143 20.2332 24.9427 20.6226C25.0712 21.012 25.4773 21.2281 25.8498 21.1053Z" fill="#FFD7A3"/>
<path d="M26.675 38.0376C27.0137 37.9259 27.1931 37.5471 27.0758 37.1915C26.9586 36.8359 26.5889 36.6382 26.2502 36.7499C25.9115 36.8616 25.732 37.2404 25.8493 37.596C25.9666 37.9516 26.3363 38.1493 26.675 38.0376Z" fill="#FFD7A3"/>
<path d="M33.21 32.3718C33.6557 32.3718 34.017 32.0105 34.017 31.5648C34.017 31.1191 33.6557 30.7578 33.21 30.7578C32.7643 30.7578 32.403 31.1191 32.403 31.5648C32.403 32.0105 32.7643 32.3718 33.21 32.3718Z" fill="#FFD7A3"/>
<path d="M14.8852 33.8729C15.1884 33.8729 15.4342 33.6271 15.4342 33.3239C15.4342 33.0207 15.1884 32.7749 14.8852 32.7749C14.582 32.7749 14.3362 33.0207 14.3362 33.3239C14.3362 33.6271 14.582 33.8729 14.8852 33.8729Z" fill="#FFD7A3"/>
<path d="M15.3623 18.7533C15.6833 18.7533 15.9435 18.4931 15.9435 18.1721C15.9435 17.8511 15.6833 17.5908 15.3623 17.5908C15.0412 17.5908 14.781 17.8511 14.781 18.1721C14.781 18.4931 15.0412 18.7533 15.3623 18.7533Z" fill="#FFD7A3"/>
<path d="M26.6633 30.0218C27.3231 30.0218 27.858 29.4869 27.858 28.8271C27.858 28.1672 27.3231 27.6323 26.6633 27.6323C26.0034 27.6323 25.4685 28.1672 25.4685 28.8271C25.4685 29.4869 26.0034 30.0218 26.6633 30.0218Z" fill="#FFD7A3"/>
<path d="M26.0228 31.7531C26.4328 31.7531 26.7653 31.4206 26.7653 31.0106C26.7653 30.6005 26.4328 30.2681 26.0228 30.2681C25.6127 30.2681 25.2803 30.6005 25.2803 31.0106C25.2803 31.4206 25.6127 31.7531 26.0228 31.7531Z" fill="#FFD7A3"/>
<path d="M26.0265 30.5332C26.3832 30.5332 26.6723 30.2441 26.6723 29.8874C26.6723 29.5308 26.3832 29.2417 26.0265 29.2417C25.6699 29.2417 25.3808 29.5308 25.3808 29.8874C25.3808 30.2441 25.6699 30.5332 26.0265 30.5332Z" fill="#FFD7A3"/>
<path d="M29.9858 31.4679C30.378 31.4679 30.696 31.1499 30.696 30.7576C30.696 30.3654 30.378 30.0474 29.9858 30.0474C29.5935 30.0474 29.2755 30.3654 29.2755 30.7576C29.2755 31.1499 29.5935 31.4679 29.9858 31.4679Z" fill="#FFD7A3"/>
<path d="M24.114 28.2991C24.5597 28.2991 24.921 27.9377 24.921 27.4921C24.921 27.0464 24.5597 26.6851 24.114 26.6851C23.6683 26.6851 23.307 27.0464 23.307 27.4921C23.307 27.9377 23.6683 28.2991 24.114 28.2991Z" fill="#FFD7A3"/>
<path d="M19.5135 16.8488C19.7455 16.8488 19.9335 16.6607 19.9335 16.4288C19.9335 16.1968 19.7455 16.0088 19.5135 16.0088C19.2815 16.0088 19.0935 16.1968 19.0935 16.4288C19.0935 16.6607 19.2815 16.8488 19.5135 16.8488Z" fill="#FFD7A3"/>
<path d="M13.59 29.8013C13.9818 29.8013 14.2995 29.4837 14.2995 29.0918C14.2995 28.7 13.9818 28.3823 13.59 28.3823C13.1981 28.3823 12.8805 28.7 12.8805 29.0918C12.8805 29.4837 13.1981 29.8013 13.59 29.8013Z" fill="#FFD7A3"/>
<path d="M32.7728 21.5235C32.9691 21.5235 33.1283 21.3643 33.1283 21.168C33.1283 20.9717 32.9691 20.8125 32.7728 20.8125C32.5765 20.8125 32.4173 20.9717 32.4173 21.168C32.4173 21.3643 32.5765 21.5235 32.7728 21.5235Z" fill="white"/>
<path d="M22.7483 27.0757C22.9268 27.0757 23.0715 26.931 23.0715 26.7524C23.0715 26.5739 22.9268 26.4292 22.7483 26.4292C22.5698 26.4292 22.425 26.5739 22.425 26.7524C22.425 26.931 22.5698 27.0757 22.7483 27.0757Z" fill="#FFD7A3"/>
<path d="M28.9253 37.2076C29.1394 37.2076 29.313 37.034 29.313 36.8199C29.313 36.6057 29.1394 36.4321 28.9253 36.4321C28.7111 36.4321 28.5375 36.6057 28.5375 36.8199C28.5375 37.034 28.7111 37.2076 28.9253 37.2076Z" fill="#FFD7A3"/>
<path d="M19.6935 37.3942C19.9255 37.3942 20.1135 37.2062 20.1135 36.9742C20.1135 36.7422 19.9255 36.5542 19.6935 36.5542C19.4615 36.5542 19.2735 36.7422 19.2735 36.9742C19.2735 37.2062 19.4615 37.3942 19.6935 37.3942Z" fill="#FFD7A3"/>
<path d="M22.9163 19.2662C23.1126 19.2662 23.2718 19.107 23.2718 18.9107C23.2718 18.7143 23.1126 18.5552 22.9163 18.5552C22.72 18.5552 22.5608 18.7143 22.5608 18.9107C22.5608 19.107 22.72 19.2662 22.9163 19.2662Z" fill="#FFD7A3"/>
<path d="M12.0772 23.9297C12.2736 23.9297 12.4327 23.7706 12.4327 23.5742C12.4327 23.3779 12.2736 23.2188 12.0772 23.2188C11.8809 23.2188 11.7217 23.3779 11.7217 23.5742C11.7217 23.7706 11.8809 23.9297 12.0772 23.9297Z" fill="#FFD7A3"/>
<path d="M25.3853 26.2748C25.5456 26.2748 25.6755 26.1449 25.6755 25.9846C25.6755 25.8243 25.5456 25.6943 25.3853 25.6943C25.225 25.6943 25.095 25.8243 25.095 25.9846C25.095 26.1449 25.225 26.2748 25.3853 26.2748Z" fill="#FFD7A3"/>
<path d="M23.6685 30.5552H23.6535C23.5546 30.5396 23.4536 30.5437 23.3563 30.5672C23.259 30.5907 23.1673 30.6332 23.0864 30.6922C23.0055 30.7512 22.937 30.8256 22.8849 30.9111C22.8328 30.9966 22.7981 31.0915 22.7828 31.1904L21.5933 39.6984C21.5778 39.7973 21.5819 39.8983 21.6055 39.9956C21.629 40.0929 21.6715 40.1845 21.7305 40.2654C21.7895 40.3463 21.8639 40.4147 21.9493 40.4668C22.0348 40.519 22.1296 40.5537 22.2285 40.5692L22.293 40.5797C22.3928 40.5952 22.4947 40.5907 22.5928 40.5665C22.6909 40.5423 22.7831 40.4989 22.8643 40.4387C22.9454 40.3786 23.0138 40.3029 23.0655 40.2162C23.1172 40.1294 23.1511 40.0332 23.1653 39.9332L24.3053 31.4147C24.3333 31.2165 24.2822 31.0152 24.1631 30.8544C24.0439 30.6936 23.8663 30.5861 23.6685 30.5552Z" fill="#FF5900"/>
<path d="M23.7255 31.0597H23.7158C23.5938 31.0408 23.4694 31.0709 23.3697 31.1436C23.27 31.2163 23.2032 31.3256 23.184 31.4475L22.2 38.64C22.181 38.762 22.2112 38.8866 22.2838 38.9864C22.3565 39.0862 22.4658 39.1531 22.5878 39.1725L22.6275 39.1785C22.6885 39.188 22.7508 39.1852 22.8108 39.1704C22.8707 39.1556 22.9271 39.129 22.9767 39.0923C23.0263 39.0555 23.0681 39.0093 23.0997 38.9562C23.1313 38.9032 23.1521 38.8444 23.1608 38.7832L24.1133 31.5832C24.1301 31.4626 24.0989 31.3401 24.0264 31.2423C23.9539 31.1444 23.8458 31.0788 23.7255 31.0597Z" fill="#FF8800"/>
<path d="M25.95 30.4757H25.935C25.8353 30.4849 25.7384 30.5137 25.6499 30.5603C25.5613 30.607 25.4828 30.6707 25.4189 30.7477C25.3549 30.8248 25.3068 30.9137 25.2772 31.0093C25.2477 31.1049 25.2372 31.2055 25.2465 31.3052L26.1825 39.8484C26.1917 39.9481 26.2205 40.0449 26.2672 40.1334C26.3139 40.222 26.3776 40.3004 26.4546 40.3643C26.5317 40.4282 26.6206 40.4762 26.7162 40.5057C26.8119 40.5352 26.9124 40.5456 27.012 40.5362L27.0773 40.5302C27.1778 40.5207 27.2755 40.4914 27.3647 40.4439C27.4538 40.3963 27.5326 40.3316 27.5965 40.2534C27.6604 40.1752 27.7082 40.085 27.737 39.9882C27.7658 39.8914 27.775 39.7898 27.7643 39.6894L26.775 31.1522C26.7534 30.9538 26.6549 30.7719 26.5007 30.6454C26.3464 30.5189 26.1487 30.458 25.95 30.4757Z" fill="#FF5900"/>
<path d="M26.1263 30.9512H26.1165C26.0557 30.9569 25.9966 30.9745 25.9426 31.003C25.8885 31.0315 25.8406 31.0703 25.8016 31.1173C25.7626 31.1644 25.7333 31.2186 25.7152 31.277C25.6972 31.3353 25.6909 31.3967 25.6965 31.4575L26.511 38.6725C26.5167 38.7334 26.5343 38.7926 26.5628 38.8467C26.5914 38.9009 26.6303 38.9488 26.6774 38.9879C26.7244 39.027 26.7788 39.0564 26.8372 39.0745C26.8957 39.0925 26.9571 39.0989 27.018 39.0932L27.0578 39.0895C27.1192 39.0837 27.1789 39.0657 27.2334 39.0367C27.2878 39.0077 27.336 38.9681 27.3751 38.9203C27.4141 38.8725 27.4433 38.8175 27.461 38.7583C27.4786 38.6992 27.4843 38.6371 27.4778 38.5757L26.6325 31.3645C26.6193 31.2429 26.5588 31.1315 26.464 31.0542C26.3693 30.9769 26.248 30.9399 26.1263 30.9512Z" fill="#FF8800"/>
<path d="M27.7703 29.9508H27.7553C27.5554 29.9804 27.3754 30.0882 27.255 30.2506C27.1346 30.4129 27.0836 30.6164 27.1133 30.8163L28.5105 39.3003C28.5402 39.5002 28.648 39.6801 28.8103 39.8005C28.9726 39.9209 29.1761 39.9719 29.376 39.9423L29.4413 39.9325C29.5412 39.9177 29.6371 39.8832 29.7235 39.831C29.81 39.7788 29.8852 39.71 29.9448 39.6285C30.0044 39.547 30.0472 39.4544 30.0707 39.3562C30.0942 39.2581 30.098 39.1562 30.0818 39.0565L28.6343 30.5815C28.6022 30.3839 28.4935 30.2069 28.3317 30.0888C28.17 29.9707 27.9683 29.9211 27.7703 29.9508Z" fill="#FF5900"/>
<path d="M27.975 30.4158H27.966C27.8446 30.4339 27.7354 30.4993 27.6619 30.5976C27.5885 30.6959 27.5568 30.8192 27.5737 30.9408L28.7738 38.1018C28.7918 38.2232 28.8571 38.3326 28.9554 38.4061C29.0538 38.4796 29.1772 38.5112 29.2987 38.494L29.3385 38.488C29.3996 38.479 29.4582 38.4579 29.511 38.426C29.5639 38.3941 29.6098 38.352 29.6463 38.3022C29.6827 38.2523 29.7089 38.1958 29.7232 38.1357C29.7376 38.0757 29.7399 38.0134 29.73 37.9525L28.5 30.8013C28.4802 30.6811 28.4142 30.5735 28.3161 30.5015C28.218 30.4294 28.0955 30.3987 27.975 30.4158Z" fill="#FF8800"/>
<path d="M28.9028 29.3407L28.8885 29.3452C28.6962 29.4071 28.5363 29.5428 28.4441 29.7225C28.3518 29.9023 28.3347 30.1113 28.3965 30.3037L31.1618 38.4397C31.1923 38.5349 31.2414 38.6233 31.3061 38.6996C31.3709 38.7759 31.45 38.8387 31.539 38.8844C31.628 38.9301 31.7252 38.9578 31.8249 38.9659C31.9247 38.974 32.025 38.9624 32.1203 38.9317L32.1833 38.9122C32.2794 38.8811 32.3684 38.8313 32.4451 38.7656C32.5218 38.6999 32.5847 38.6196 32.6301 38.5293C32.6755 38.4391 32.7026 38.3408 32.7097 38.24C32.7168 38.1393 32.7038 38.0381 32.6715 37.9424L29.8583 29.8214C29.7942 29.6317 29.658 29.4749 29.4792 29.3849C29.3004 29.295 29.0933 29.279 28.9028 29.3407Z" fill="#FF5900"/>
<path d="M29.181 29.7655H29.172C29.1138 29.7842 29.0599 29.8143 29.0133 29.8538C28.9667 29.8934 28.9284 29.9418 28.9006 29.9962C28.8727 30.0506 28.8558 30.11 28.8509 30.1709C28.846 30.2318 28.8532 30.2931 28.872 30.3513L31.2292 37.219C31.2672 37.3364 31.3502 37.4339 31.4601 37.4902C31.5699 37.5464 31.6975 37.5568 31.815 37.519L31.8532 37.5063C31.9121 37.4875 31.9666 37.4572 32.0136 37.4172C32.0606 37.3772 32.0991 37.3282 32.1271 37.2732C32.155 37.2181 32.1717 37.158 32.1762 37.0965C32.1807 37.0349 32.1729 36.9731 32.1532 36.9145L29.7667 30.0558C29.7268 29.9402 29.6429 29.8449 29.5333 29.7906C29.4237 29.7363 29.2972 29.7273 29.181 29.7655Z" fill="#FF8800"/>
<path d="M24.8445 30.7651H24.8287C24.6273 30.7507 24.4283 30.8168 24.2756 30.949C24.1228 31.0812 24.0288 31.2687 24.0142 31.4701L23.5342 40.0501C23.5198 40.2517 23.5859 40.4508 23.7181 40.6036C23.8503 40.7565 24.0377 40.8506 24.2392 40.8654L24.3052 40.8699C24.406 40.8772 24.5072 40.8644 24.6029 40.8323C24.6986 40.8001 24.787 40.7492 24.8629 40.6825C24.9388 40.6159 25.0006 40.5348 25.0448 40.444C25.0891 40.3532 25.1148 40.2545 25.1205 40.1536L25.5502 31.5706C25.5622 31.3705 25.4948 31.1738 25.3627 31.023C25.2306 30.8722 25.0444 30.7796 24.8445 30.7651Z" fill="#FF8800"/>
<path d="M24.9427 31.263H24.9337C24.8728 31.2585 24.8115 31.2661 24.7535 31.2853C24.6954 31.3045 24.6417 31.335 24.5955 31.3749C24.5492 31.4149 24.5113 31.4636 24.4839 31.5183C24.4565 31.573 24.4401 31.6325 24.4358 31.6935L24.0517 38.9445C24.0431 39.0677 24.0836 39.1893 24.1644 39.2826C24.2453 39.376 24.3598 39.4335 24.483 39.4425H24.5227C24.5844 39.447 24.6462 39.4391 24.7048 39.4195C24.7634 39.3998 24.8174 39.3687 24.8638 39.3279C24.9103 39.2872 24.9481 39.2376 24.9752 39.182C25.0022 39.1265 25.018 39.0662 25.0215 39.0045L25.374 31.752C25.3804 31.6302 25.3388 31.5109 25.2582 31.4194C25.1776 31.328 25.0643 31.2718 24.9427 31.263Z" fill="#FFB700"/>
<path d="M30 28.6749L29.9873 28.6839C29.825 28.7885 29.7106 28.9531 29.6693 29.1417C29.628 29.3303 29.663 29.5276 29.7668 29.6904L34.4033 35.9859C34.5227 36.1377 34.6974 36.236 34.8891 36.2593C35.0808 36.2826 35.2739 36.2291 35.4263 36.1104L35.4795 36.0729C35.5606 36.0207 35.6305 35.9529 35.6853 35.8735C35.74 35.7941 35.7785 35.7047 35.7984 35.6103C35.8184 35.5159 35.8194 35.4186 35.8015 35.3238C35.7836 35.229 35.747 35.1387 35.694 35.0582L31.017 28.7912C30.8963 28.6427 30.7223 28.5475 30.5322 28.5257C30.3421 28.504 30.1511 28.5576 30 28.6749Z" fill="#FF5900"/>
<path d="M30.3683 28.9607L30.36 28.9659C30.2617 29.0306 30.1926 29.1311 30.1675 29.2461C30.1424 29.361 30.1633 29.4812 30.2258 29.5809L34.1603 34.8879C34.2339 34.9796 34.3406 35.0388 34.4573 35.0528C34.5741 35.0668 34.6917 35.0346 34.785 34.9629L34.818 34.9397C34.8676 34.9079 34.9104 34.8666 34.9439 34.8181C34.9774 34.7697 35.001 34.715 35.0132 34.6574C35.0254 34.5998 35.026 34.5403 35.0151 34.4824C35.0041 34.4245 34.9817 34.3694 34.9493 34.3202L30.9893 29.0312C30.915 28.9413 30.8088 28.8837 30.693 28.8705C30.5772 28.8574 30.4607 28.8897 30.3683 28.9607Z" fill="#FF8800"/>
<path d="M30.258 28.02L30.2483 28.032C30.1203 28.1764 30.0547 28.3657 30.0658 28.5583C30.0769 28.751 30.1638 28.9314 30.3075 29.0602L36.4733 33.8692C36.6291 33.9832 36.8238 34.0307 37.0146 34.0013C37.2054 33.9719 37.3767 33.868 37.491 33.7125L37.5323 33.6615C37.5964 33.5895 37.6456 33.5054 37.677 33.4142C37.7083 33.323 37.7213 33.2265 37.715 33.1302C37.7087 33.034 37.6833 32.94 37.6404 32.8536C37.5974 32.7672 37.5377 32.6903 37.4648 32.6272L31.2683 27.8572C31.1121 27.7468 30.9188 27.702 30.7299 27.7325C30.5411 27.7629 30.3717 27.8661 30.258 28.02Z" fill="#FF5900"/>
<path d="M30.6885 28.1999L30.6825 28.2066C30.6052 28.2954 30.5658 28.4109 30.5727 28.5284C30.5795 28.6458 30.6322 28.756 30.7192 28.8351L35.9415 32.8851C36.0372 32.9537 36.156 32.9821 36.2723 32.9642C36.3887 32.9462 36.4934 32.8834 36.564 32.7891L36.5895 32.7584C36.6674 32.6688 36.7067 32.5522 36.699 32.4338C36.6913 32.3153 36.6371 32.2048 36.5482 32.1261L31.3058 28.1039C31.2104 28.0369 31.0929 28.0094 30.9778 28.0273C30.8626 28.0452 30.7589 28.1071 30.6885 28.1999Z" fill="#FF8800"/>
<path d="M26.3498 30.0986H26.3348C26.1357 30.1337 25.9588 30.2464 25.8428 30.4119C25.7267 30.5774 25.6812 30.7822 25.716 30.9813L27.345 39.4188C27.3623 39.5174 27.3989 39.6116 27.4526 39.696C27.5064 39.7805 27.5763 39.8535 27.6582 39.9109C27.7402 39.9683 27.8327 40.0089 27.9305 40.0306C28.0282 40.0522 28.1292 40.0543 28.2278 40.0368L28.2923 40.0256C28.3918 40.0082 28.4868 39.9711 28.5719 39.9166C28.6569 39.8621 28.7303 39.7912 28.7877 39.7081C28.8451 39.625 28.8853 39.5312 28.9061 39.4324C28.9269 39.3335 28.9278 39.2315 28.9088 39.1323L27.2303 30.7061C27.1929 30.5094 27.0795 30.3353 26.9147 30.2216C26.7499 30.1079 26.5469 30.0637 26.3498 30.0986Z" fill="#FF8800"/>
<path d="M26.5665 30.5575H26.5575C26.4365 30.5796 26.3291 30.6487 26.2588 30.7498C26.1885 30.8508 26.1611 30.9756 26.1825 31.0967L27.5805 38.2217C27.6026 38.3428 27.6718 38.4502 27.7728 38.5205C27.8738 38.5907 27.9986 38.6182 28.1198 38.5967L28.1595 38.5892C28.2202 38.5784 28.2781 38.5557 28.3299 38.5223C28.3817 38.4889 28.4264 38.4455 28.4613 38.3947C28.4962 38.3439 28.5206 38.2867 28.5332 38.2263C28.5458 38.166 28.5462 38.1038 28.5345 38.0432L27.1095 30.9242C27.0857 30.8038 27.0153 30.6977 26.9136 30.629C26.8119 30.5603 26.6871 30.5346 26.5665 30.5575Z" fill="#FFB700"/>
<path d="M29.0663 29.0468L29.0535 29.0551C28.9675 29.1063 28.8925 29.1739 28.8326 29.2541C28.7728 29.3343 28.7293 29.4256 28.7047 29.5226C28.6802 29.6196 28.6749 29.7205 28.6893 29.8196C28.7038 29.9186 28.7376 30.0138 28.7888 30.0998L33.3083 37.4086C33.3595 37.4946 33.4271 37.5696 33.5074 37.6295C33.5876 37.6893 33.6789 37.7327 33.7759 37.7572C33.873 37.7817 33.9739 37.7869 34.0729 37.7724C34.1719 37.7578 34.2671 37.7239 34.353 37.6726L34.4093 37.6396C34.496 37.5878 34.5716 37.5193 34.6317 37.4381C34.6917 37.3568 34.735 37.2645 34.7591 37.1664C34.7832 37.0683 34.7875 36.9664 34.7719 36.8666C34.7562 36.7668 34.721 36.6711 34.668 36.5851L30.105 29.3018C30.0001 29.1314 29.8323 29.0091 29.6379 28.9614C29.4436 28.9137 29.2382 28.9444 29.0663 29.0468Z" fill="#FF8800"/>
<path d="M29.4323 29.4L29.424 29.4045C29.3181 29.4678 29.2416 29.5706 29.2113 29.6902C29.1811 29.8099 29.1996 29.9367 29.2628 30.0427L33.0998 36.207C33.1631 36.313 33.2659 36.3895 33.3855 36.4197C33.5052 36.4499 33.632 36.4314 33.738 36.3682L33.7725 36.348C33.8256 36.3164 33.8718 36.2746 33.9085 36.225C33.9452 36.1753 33.9717 36.1189 33.9865 36.059C34.0012 35.999 34.0038 35.9368 33.9943 35.8758C33.9847 35.8148 33.9631 35.7563 33.9308 35.7037L30.0668 29.5537C30.0023 29.4501 29.8997 29.3758 29.781 29.3471C29.6623 29.3183 29.5371 29.3373 29.4323 29.4Z" fill="#FFB700"/>
<path d="M28.35 30.6633L28.3357 30.6678C28.1428 30.728 27.9816 30.8624 27.8876 31.0414C27.7937 31.2205 27.7747 31.4295 27.8347 31.6225L28.854 34.8918C28.9142 35.0847 29.0487 35.2459 29.2277 35.3399C29.4067 35.4338 29.6157 35.4528 29.8087 35.3928L29.871 35.3733C29.9675 35.3432 30.057 35.2942 30.1344 35.2293C30.2117 35.1643 30.2754 35.0845 30.3217 34.9947C30.368 34.9049 30.3959 34.8068 30.4039 34.706C30.4119 34.6053 30.3998 34.504 30.3682 34.408L29.301 31.1538C29.2386 30.9636 29.1039 30.8055 28.9259 30.7138C28.748 30.622 28.5412 30.6039 28.35 30.6633Z" fill="#FF8800"/>
<path d="M28.6238 31.0906H28.6148C28.4969 31.1275 28.3986 31.2098 28.3413 31.3192C28.2841 31.4286 28.2726 31.5563 28.3095 31.6741L28.932 33.6714C28.9502 33.7297 28.9797 33.7839 29.0189 33.8308C29.058 33.8777 29.106 33.9164 29.1601 33.9448C29.2143 33.9731 29.2734 33.9905 29.3343 33.996C29.3951 34.0014 29.4565 33.9949 29.5148 33.9766L29.553 33.9646C29.6116 33.9459 29.6659 33.9158 29.7128 33.8759C29.7597 33.8361 29.7982 33.7874 29.8261 33.7325C29.854 33.6777 29.8708 33.6179 29.8754 33.5565C29.88 33.4952 29.8724 33.4335 29.853 33.3751L29.2013 31.3876C29.1626 31.2727 29.0807 31.1773 28.9728 31.1219C28.865 31.0664 28.7397 31.0552 28.6238 31.0906Z" fill="#FFAA00"/>
<path d="M21.168 34.9199L21.153 34.9161C20.9563 34.87 20.7493 34.9039 20.5776 35.0104C20.4059 35.1168 20.2835 35.2872 20.2373 35.4839L19.4535 38.8176C19.4306 38.915 19.427 39.016 19.4431 39.1148C19.4592 39.2136 19.4946 39.3082 19.5472 39.3933C19.5999 39.4784 19.6688 39.5523 19.75 39.6108C19.8312 39.6693 19.9231 39.7112 20.0205 39.7341L20.085 39.7491C20.1834 39.7721 20.2854 39.7754 20.385 39.7587C20.4847 39.7419 20.58 39.7056 20.6655 39.6517C20.751 39.5978 20.8249 39.5275 20.883 39.4449C20.941 39.3622 20.9821 39.2688 21.0038 39.1701L21.738 35.8251C21.781 35.6296 21.7453 35.425 21.6386 35.2556C21.5319 35.0863 21.3629 34.9656 21.168 34.9199Z" fill="#FF8800"/>
<path d="M21.1867 35.4276H21.1777C21.1183 35.4135 21.0565 35.4112 20.9962 35.421C20.9358 35.4308 20.878 35.4524 20.826 35.4846C20.774 35.5168 20.7289 35.5589 20.6932 35.6086C20.6576 35.6583 20.6321 35.7146 20.6182 35.7741L20.139 37.8104C20.1108 37.9306 20.1315 38.0571 20.1965 38.1621C20.2614 38.2671 20.3654 38.3421 20.4855 38.3706L20.5245 38.3796C20.5846 38.3937 20.6469 38.3957 20.7078 38.3855C20.7686 38.3753 20.8269 38.3532 20.8791 38.3203C20.9314 38.2874 20.9766 38.2445 21.0122 38.1941C21.0477 38.1436 21.0729 38.0866 21.0862 38.0264L21.5362 35.9826C21.5632 35.8627 21.5415 35.737 21.476 35.633C21.4105 35.529 21.3065 35.4552 21.1867 35.4276Z" fill="#FFAA00"/>
<path d="M34.2165 29.4488L34.212 29.4638C34.1783 29.5584 34.1635 29.6586 34.1687 29.7589C34.1738 29.8591 34.1987 29.9574 34.2419 30.048C34.2851 30.1385 34.3458 30.2197 34.4204 30.2868C34.4951 30.3539 34.5823 30.4055 34.677 30.4388L37.9072 31.5751C38.0018 31.6088 38.1021 31.6235 38.2024 31.6183C38.3027 31.6131 38.401 31.5882 38.4916 31.5449C38.5822 31.5016 38.6633 31.4409 38.7304 31.3661C38.7974 31.2913 38.849 31.2041 38.8822 31.1093L38.904 31.0471C38.9376 30.9518 38.9519 30.8509 38.946 30.75C38.9402 30.6492 38.9144 30.5506 38.8701 30.4598C38.8257 30.3691 38.7638 30.2881 38.6879 30.2215C38.6119 30.1549 38.5235 30.1041 38.4277 30.0721L35.175 28.9801C34.9857 28.9174 34.7793 28.9313 34.6001 29.019C34.421 29.1066 34.2833 29.2609 34.2165 29.4488Z" fill="#FF8800"/>
<path d="M34.725 29.4856V29.4938C34.684 29.6103 34.6909 29.7383 34.7442 29.8497C34.7975 29.9611 34.8928 30.0467 35.0093 30.0878L36.9825 30.7831C37.099 30.8241 37.227 30.8172 37.3384 30.7639C37.4498 30.7106 37.5354 30.6153 37.5765 30.4988L37.5893 30.4606C37.6098 30.4025 37.6185 30.3408 37.615 30.2793C37.6115 30.2177 37.5958 30.1575 37.5688 30.1021C37.5418 30.0467 37.504 29.9972 37.4577 29.9565C37.4114 29.9158 37.3575 29.8847 37.299 29.8651L35.3153 29.1983C35.1989 29.1586 35.0715 29.1665 34.9609 29.2203C34.8504 29.2741 34.7656 29.3695 34.725 29.4856Z" fill="#FFAA00"/>
<path d="M40.8458 25.9913C40.8458 25.9913 34.749 29.3828 30.5445 26.7923C26.34 24.2018 31.3433 24.0578 31.7093 25.266C32.0753 26.4743 34.0343 26.682 35.325 26.4743C36.6158 26.2665 38.3693 25.6718 38.6933 24.9293C39.0173 24.1868 42.9 23.5118 40.8458 25.9913Z" fill="#351207"/>
<path d="M40.5165 24.0303C40.5165 24.0303 36.12 27.8508 32.2388 26.4588C28.3575 25.0668 32.4203 24.0873 32.9273 25.0113C33.4343 25.9353 35.0708 25.768 36.0893 25.3758C37.1078 24.9835 38.4383 24.1953 38.5748 23.5338C38.7113 22.8723 41.7668 21.6513 40.5165 24.0303Z" fill="#4A190A"/>
<path d="M40.275 27.2853C40.275 27.2853 36.087 30.0041 33.9968 27.7766C31.9065 25.5491 34.9163 25.5138 34.9395 26.5256C34.9628 27.5373 36.0975 27.7443 36.9015 27.5936C37.7055 27.4428 38.8515 26.9771 39.162 26.3643C39.4725 25.7516 41.8988 25.2566 40.275 27.2853Z" fill="#6B240E"/>
<path d="M41.0513 24.1395C41.0513 24.1395 35.853 26.847 32.3813 24.5753C28.9095 22.3035 33.1155 22.2968 33.3953 23.3198C33.675 24.3428 35.3153 24.5625 36.4043 24.4178C37.4933 24.273 38.979 23.814 39.2678 23.1983C39.5565 22.5825 42.8333 22.1048 41.0513 24.1395Z" fill="#6B240E"/>
<path d="M39.6038 20.7076C39.6038 20.7076 32.943 18.6323 29.3558 22.0268C25.7685 25.4213 30.696 24.5401 30.8078 23.2831C30.9195 22.0261 32.7953 21.4223 34.101 21.3623C35.4068 21.3023 37.245 21.5266 37.713 22.1873C38.181 22.8481 42.1208 22.7161 39.6038 20.7076Z" fill="#351207"/>
<path d="M39.1057 22.7926C39.1057 22.7926 34.4505 20.9859 32.859 23.5936C31.2675 26.2014 34.2217 25.6186 34.0372 24.6256C33.8527 23.6326 34.9222 23.1961 35.7405 23.1804C36.5587 23.1646 37.7722 23.3859 38.2042 23.9214C38.6362 24.4569 41.1127 24.4501 39.1057 22.7926Z" fill="#963314"/>
<path d="M27.5175 12.6232C27.5175 12.6232 25.614 7.86895 21.8378 8.1052C18.0615 8.34145 18.7223 10.596 18.8843 11.118C19.2953 12.4395 21.1643 13.7467 21.9675 14.5342C22.7708 15.3217 22.4243 17.1442 23.5275 18.0322C24.6308 18.9202 29.4278 18.0405 27.5175 12.6232Z" fill="#E8786F"/>
<path d="M19.0418 9.17207C19.0418 9.17207 19.7423 8.50157 19.9635 8.49707C19.5464 8.79563 19.2641 9.24681 19.178 9.75246C19.0919 10.2581 19.209 10.7773 19.5038 11.1971C20.6018 12.7113 22.269 13.7336 22.8968 14.6111C23.5245 15.4886 22.8608 17.6861 25.0988 18.3018C24.8678 18.3806 24.6227 18.4095 24.3797 18.3866C24.1367 18.3636 23.9013 18.2893 23.6892 18.1687C23.477 18.048 23.2928 17.8837 23.1489 17.6866C23.0049 17.4895 22.9044 17.2641 22.854 17.0253C22.416 15.1953 22.3673 14.7101 21.1433 13.8603C19.9193 13.0106 17.6663 10.8431 19.0418 9.17207Z" fill="#E86358"/>
<path d="M18.8205 9.70947C18.8205 9.70947 22.2577 10.3552 23.463 11.5695C24.6682 12.7837 25.029 15.6945 26.409 17.838C26.5515 17.7654 26.6842 17.6752 26.8042 17.5695C26.3655 16.879 26.0287 16.1287 25.8045 15.342C25.275 13.7392 24.8542 11.4232 22.0935 10.4895C19.3327 9.55572 19.3132 9.24072 19.3132 9.24072L18.8205 9.70947Z" fill="#E86358"/>
<path d="M22.4843 8.11523C22.4843 8.11523 24.9 9.40073 25.6823 11.3485C26.4645 13.2962 26.2358 15.4037 27.5415 16.684L27.687 16.3675C27.687 16.3675 26.475 14.689 26.7 13.6922C26.925 12.6955 26.6145 10.0637 23.1 8.19248L22.4843 8.11523Z" fill="#E86358"/>
<path opacity="0.53" d="M23.925 11.5649C24.7209 12.4473 25.2741 13.521 25.5308 14.6812C25.7237 15.7305 26.1605 16.7198 26.8058 17.5694L26.9041 17.4352C26.3376 16.578 25.9245 15.6289 25.683 14.6302C25.4373 13.4477 24.8216 12.3742 23.925 11.5649Z" fill="#FFE399"/>
<path d="M21.0187 13.0821C21.0187 13.0821 17.0137 9.89011 13.848 11.9631C10.6822 14.0361 12.3712 15.6681 12.7702 16.0416C13.7812 16.9874 16.0522 17.1996 17.1397 17.4869C18.2272 17.7741 18.8265 19.5306 20.2245 19.7571C21.6225 19.9836 25.3575 16.8464 21.0187 13.0821Z" fill="#E8786F"/>
<path d="M11.9453 14.2727C11.9453 14.2727 12.2228 13.3442 12.4133 13.2324C12.1983 13.6984 12.1761 14.2304 12.3515 14.7127C12.527 15.1949 12.8859 15.5883 13.35 15.8072C15.0533 16.5804 17.0078 16.6442 17.9873 17.0972C18.9668 17.5502 19.4745 19.7852 21.726 19.2167C21.5638 19.3994 21.3647 19.5457 21.1417 19.6457C20.9188 19.7457 20.6771 19.7972 20.4327 19.7967C20.1884 19.7963 19.9469 19.744 19.7243 19.6432C19.5017 19.5424 19.3031 19.3955 19.1415 19.2122C17.856 17.8382 17.5733 17.4399 16.089 17.3064C14.6048 17.1729 11.5755 16.4049 11.9453 14.2727Z" fill="#E86358"/>
<path d="M12.0188 14.8499C12.0188 14.8499 15.3255 13.7114 16.974 14.1711C18.6225 14.6309 20.3753 16.9851 22.6335 18.1641C22.7215 18.0303 22.7924 17.8859 22.8443 17.7344C22.1212 17.3514 21.4574 16.8659 20.8733 16.2929C19.6208 15.1619 18.1103 13.3566 15.2483 13.9094C12.3863 14.4621 12.2145 14.1989 12.2145 14.1989L12.0188 14.8499Z" fill="#E86358"/>
<path d="M14.415 11.6521C14.415 11.6521 17.1503 11.5771 18.7928 12.8821C20.4353 14.1871 21.279 16.1326 23.0468 16.5998L23.0175 16.2526C23.0175 16.2526 21.1358 15.3916 20.8365 14.4158C20.5373 13.4401 18.9675 11.3041 14.9865 11.4158L14.415 11.6521Z" fill="#E86358"/>
<path opacity="0.53" d="M17.3745 13.9375C18.5026 14.3111 19.5143 14.9711 20.3108 15.853C20.9965 16.6695 21.8643 17.3138 22.8443 17.734L22.863 17.5698C21.9469 17.1043 21.1186 16.4833 20.415 15.7345C19.6178 14.8282 18.553 14.1988 17.3745 13.9375Z" fill="#FFE399"/>
<path d="M15.5603 16.7003C15.5603 16.7003 10.485 16.0185 8.8328 19.4228C7.18055 22.827 9.4688 23.3603 10.0028 23.4728C11.3528 23.7653 13.4138 22.7813 14.4945 22.4693C15.5753 22.1573 16.9913 23.3558 18.3075 22.8323C19.6238 22.3088 21.2168 17.7 15.5603 16.7003Z" fill="#E8786F"/>
<path d="M8.38577 22.3818C8.27746 22.0143 8.23307 21.631 8.25452 21.2485C8.31013 21.7579 8.56446 22.2248 8.96229 22.5478C9.36012 22.8708 9.86931 23.0238 10.3793 22.9735C12.2378 22.762 13.9478 21.8133 15.0203 21.6985C16.0928 21.5838 17.6775 23.2413 19.317 21.5973C19.2718 21.8374 19.176 22.0652 19.0361 22.2656C18.8961 22.4659 18.7152 22.6343 18.5053 22.7594C18.2954 22.8846 18.0613 22.9637 17.8185 22.9916C17.5757 23.0194 17.3298 22.9954 17.097 22.921C15.2888 22.402 14.8418 22.2055 13.497 22.8535C12.1523 23.5015 9.16427 24.4015 8.38577 22.3818Z" fill="#E86358"/>
<path d="M8.74578 22.8391C8.74578 22.8391 10.9958 20.1639 12.6458 19.7116C14.2958 19.2594 17.01 20.3791 19.5525 20.2306C19.5592 20.0708 19.5459 19.9108 19.5128 19.7544C18.6957 19.7969 17.8767 19.7212 17.0813 19.5294C15.426 19.2016 13.2023 18.4291 11.0318 20.3731C8.86128 22.3171 8.57703 22.1791 8.57703 22.1791L8.74578 22.8391Z" fill="#E86358"/>
<path d="M9.15979 18.8647C9.15979 18.8647 11.4675 17.394 13.548 17.6715C15.6285 17.949 17.3513 19.1835 19.107 18.6765L18.9038 18.3937C18.9038 18.3937 16.8473 18.6187 16.089 17.9377C15.3308 17.2567 12.8873 16.2277 9.52879 18.3682L9.15979 18.8647Z" fill="#E86358"/>
<path opacity="0.53" d="M12.873 19.305C14.0329 19.0468 15.2399 19.0936 16.3763 19.4407C17.3839 19.7892 18.4592 19.8966 19.5158 19.7542L19.4475 19.6042C18.4226 19.6757 17.3931 19.5687 16.4048 19.2877C15.2556 18.9185 14.0186 18.9245 12.873 19.305Z" fill="#FFE399"/>
<path d="M30.1403 19.2659C30.1403 19.2659 27.0938 17.4374 28.0778 15.1874C29.0618 12.9374 28.0313 12.7499 28.4528 11.7186C28.8743 10.6874 33.8903 9.93736 35.25 12.7034C36.6098 15.4694 36.2813 15.5624 38.0625 16.4534C39.8438 17.3444 41.4375 19.6409 37.2188 19.6874C33 19.7339 32.7188 21.4221 30.1403 19.2659Z" fill="#730F00"/>
<path d="M28.125 16.4537C28.0177 15.9059 28.0917 15.338 28.3358 14.836C28.6225 14.0659 28.7268 13.2397 28.6403 12.4225C28.6875 11.9065 29.109 11.1565 29.8125 11.719C30.516 12.2815 29.6715 14.6725 29.6715 16.3127C29.6715 17.953 31.6875 19.0315 32.859 19.0315C34.0305 19.0315 36.234 18.7037 36.4688 19.1252C36.7035 19.5467 33.1875 20.11 32.5545 20.1565C31.5338 20.2322 28.6403 18.844 28.125 16.4537Z" fill="#540B00"/>
<path d="M37.8278 17.6723C37.8278 17.6723 34.5465 18.3286 34.2188 17.1098C33.891 15.8911 34.2188 15.0938 33.8438 13.8286C33.4688 12.5633 34.4063 12.2813 34.8278 12.9376C35.2493 13.5938 35.625 15.6563 36.8438 16.1251C38.0625 16.5938 39.1875 17.5786 37.8278 17.6723Z" fill="#9C1400"/>
<path d="M25.0313 30.501C28.7356 30.501 31.7385 27.6327 31.7385 24.0945C31.7385 20.5563 28.7356 17.688 25.0313 17.688C21.327 17.688 18.324 20.5563 18.324 24.0945C18.324 27.6327 21.327 30.501 25.0313 30.501Z" fill="url(#paint0_radial_60777_3868)"/>
<path d="M27.4808 24.0946C27.504 22.5751 26.196 21.0279 25.0718 20.2824L25.0313 20.2561C23.6685 19.3741 24.8813 16.5264 28.6455 19.2646C32.4098 22.0029 31.6665 26.3896 29.9085 28.0794C28.35 29.5734 27.4305 27.4501 27.4808 24.0946Z" fill="#FFC95C"/>
<path d="M19.2563 24.7079C19.1532 24.3136 19.1966 23.8952 19.3785 23.5304C19.4858 23.3347 19.6223 23.2304 19.7715 23.4832C20.1105 24.0592 20.256 25.7842 21.3345 27.2624C22.413 28.7407 21.204 28.3304 20.553 27.2624C19.9552 26.5056 19.5144 25.6372 19.2563 24.7079Z" fill="#FFB870"/>
<path d="M27.8685 20.2559C27.775 20.1357 27.7286 19.9854 27.7383 19.8334C27.748 19.6814 27.813 19.5382 27.921 19.4309C28.3148 19.0364 29.3873 19.7991 29.178 20.3954C28.9688 20.9916 28.3725 21.1649 27.8685 20.2559Z" fill="#FFEDDB"/>
<path d="M15.825 22.0658C15.825 22.0658 16.5135 21.3495 15.1425 21.3C13.7715 21.2505 14.1435 21.879 14.1435 21.879C14.1435 21.879 14.7368 20.7488 13.7723 21.2505C13.1515 21.6416 12.7094 22.2612 12.5415 22.9755C12.5415 22.9755 12.4883 21.4223 11.1623 22.3208C10.9864 22.4075 10.8313 22.5313 10.7077 22.6835C10.5841 22.8358 10.4949 23.0129 10.4461 23.2029C10.3973 23.3929 10.3901 23.5911 10.4251 23.7841C10.46 23.9771 10.5362 24.1602 10.6485 24.321C10.6485 24.321 10.1498 25.029 9.80478 24.969C9.45978 24.909 9.57978 25.8915 9.57978 25.8915L9.23628 26.6678C9.23628 26.6678 9.15303 27.6765 9.86778 27.9683C10.5825 28.26 8.49753 27.9188 8.44278 28.4535C8.38803 28.9883 9.48228 29.475 9.48228 29.475C9.48228 29.475 8.34453 29.5283 9.19053 30.5528C9.47764 30.8637 9.82541 31.1125 10.2124 31.2838C10.5994 31.4551 11.0173 31.5452 11.4405 31.5488L10.7775 31.9988C10.7775 31.9988 11.4345 33.0323 11.7705 32.9025C12.1065 32.7728 12.0705 33.6863 12.5048 33.9698C12.939 34.2533 13.7048 33.5715 13.7048 33.5715C13.7048 33.5715 14.5253 34.863 15.1808 35.0603C15.8363 35.2575 16.1895 34.3253 16.1895 34.3253C16.1895 34.3253 16.5248 34.5405 17.2305 34.203C17.9363 33.8655 18.4785 34.8705 19.0208 33.4748C19.563 32.079 18.4433 32.5118 18.4433 32.5118C18.4433 32.5118 19.7003 33.0908 19.7933 32.4248C19.8863 31.7588 18.8318 31.0748 18.8318 31.0748C18.8318 31.0748 20.3318 31.5165 20.127 30.312C20.1036 29.9979 19.9943 29.6963 19.8111 29.4401C19.6279 29.184 19.3779 28.983 19.0883 28.8593C19.0883 28.8593 19.3073 28.4393 19.4633 28.092C19.6193 27.7448 18.6563 27.1013 18.6563 27.1013C18.6563 27.1013 18.8175 27.5295 18.5753 26.4705C18.3697 25.7839 17.9052 25.204 17.28 24.8535C17.28 24.8535 18.0893 24.2835 17.8298 23.6115C17.5703 22.9395 16.2428 23.0018 16.2428 23.0018C16.2428 23.0018 18.0975 21.9585 15.825 22.0658Z" fill="#009C08"/>
<path d="M14.418 22.4005C14.4195 22.459 14.4094 22.5172 14.3884 22.5717C14.3674 22.6263 14.3358 22.6762 14.2955 22.7186C14.2551 22.7609 14.2068 22.7949 14.1534 22.8186C14.0999 22.8423 14.0422 22.8551 13.9838 22.8565C13.9253 22.858 13.8671 22.8479 13.8125 22.8269C13.7579 22.8059 13.708 22.7743 13.6657 22.734C13.6233 22.6936 13.5893 22.6453 13.5657 22.5918C13.542 22.5384 13.5291 22.4807 13.5278 22.4222L13.4948 21.0865C13.4934 21.028 13.5035 20.9698 13.5246 20.9152C13.5457 20.8606 13.5774 20.8107 13.6178 20.7684C13.6582 20.726 13.7065 20.6921 13.76 20.6684C13.8136 20.6447 13.8712 20.6319 13.9298 20.6305C14.0478 20.6277 14.1621 20.6718 14.2476 20.7533C14.3331 20.8347 14.3828 20.9467 14.3858 21.0647L14.418 22.4005Z" fill="#00C40A"/>
<path d="M15.3877 22.929C15.297 23.0228 15.0802 22.9598 14.904 22.788C14.727 22.617 14.658 22.4018 14.7487 22.3088L15.2422 21.8003C15.333 21.7073 15.5497 21.7703 15.726 21.942C15.9022 22.113 15.972 22.3275 15.8812 22.4213L15.3877 22.929Z" fill="#00C40A"/>
<path d="M14.1533 22.5C14.2237 22.574 14.263 22.6723 14.263 22.7745C14.263 22.8767 14.2237 22.975 14.1533 23.049C14.1058 23.1394 14.0253 23.2081 13.9285 23.2408C13.8318 23.2734 13.7261 23.2676 13.6335 23.2245L12.8498 22.665C12.7795 22.5909 12.7404 22.4926 12.7404 22.3905C12.7404 22.2884 12.7795 22.1901 12.8498 22.116C12.8973 22.0256 12.9778 21.9569 13.0745 21.9242C13.1713 21.8915 13.2769 21.8974 13.3695 21.9405L14.1533 22.5Z" fill="#1CFF28"/>
<path d="M10.1108 26.3482C10.1996 26.4257 10.2545 26.5349 10.2636 26.6525C10.2727 26.77 10.2353 26.8864 10.1595 26.9767C10.0827 27.0663 9.97344 27.1218 9.85574 27.1309C9.73804 27.1401 9.62152 27.1021 9.53178 27.0254L8.51628 26.1577C8.47172 26.1197 8.4351 26.0733 8.4085 26.0211C8.3819 25.9689 8.36584 25.912 8.36124 25.8537C8.35664 25.7953 8.3636 25.7366 8.3817 25.6809C8.39981 25.6252 8.42872 25.5737 8.46678 25.5292C8.54427 25.4403 8.65353 25.3855 8.77106 25.3763C8.88859 25.3672 9.00501 25.4046 9.09528 25.4804L10.1108 26.3482Z" fill="#00C40A"/>
<path d="M11.1518 25.9808C11.1608 26.1106 10.9688 26.2298 10.7235 26.2463C10.4783 26.2628 10.2735 26.1713 10.263 26.0416L10.215 25.3351C10.206 25.2046 10.398 25.0861 10.6433 25.0688C10.8885 25.0523 11.0933 25.1438 11.1038 25.2743L11.1518 25.9808Z" fill="#00C40A"/>
<path d="M10.0065 26.611C10.1798 26.5728 10.3635 26.7363 10.4168 26.9763C10.452 27.0722 10.4491 27.1779 10.4088 27.2718C10.3685 27.3656 10.2938 27.4405 10.2 27.481L9.26026 27.6903C9.08701 27.7285 8.90401 27.565 8.85001 27.325C8.79676 27.085 8.89351 26.8585 9.06676 26.8203L10.0065 26.611Z" fill="#1CFF28"/>
<path d="M12.5153 28.9283C12.5171 29.0463 12.4725 29.1603 12.3912 29.2457C12.3098 29.3311 12.1982 29.3812 12.0803 29.3851C12.0217 29.3865 11.9635 29.3763 11.9089 29.3552C11.8544 29.3341 11.8045 29.3025 11.7621 29.2621C11.7198 29.2217 11.6858 29.1733 11.6622 29.1198C11.6385 29.0663 11.6256 29.0086 11.6243 28.9501L11.592 27.6143C11.5905 27.5559 11.6006 27.4977 11.6216 27.4431C11.6426 27.3885 11.6742 27.3386 11.7145 27.2963C11.7549 27.2539 11.8032 27.2199 11.8567 27.1963C11.9101 27.1726 11.9678 27.1597 12.0263 27.1583C12.0847 27.1569 12.1429 27.1669 12.1975 27.1879C12.2521 27.209 12.302 27.2405 12.3443 27.2809C12.3867 27.3212 12.4207 27.3695 12.4443 27.423C12.468 27.4765 12.4809 27.5341 12.4823 27.5926L12.5153 28.9283Z" fill="#00C40A"/>
<path d="M13.4843 29.4578C13.3935 29.5508 13.1768 29.4878 13.0005 29.3161C12.8243 29.1451 12.7545 28.9306 12.8453 28.8368L13.3388 28.3291C13.4295 28.2353 13.6463 28.2983 13.8225 28.4701C13.9995 28.6411 14.0685 28.8563 13.9778 28.9493L13.4843 29.4578Z" fill="#00C40A"/>
<path d="M12.2505 29.0252C12.3208 29.0993 12.36 29.1976 12.36 29.2997C12.36 29.4019 12.3208 29.5001 12.2505 29.5742C12.2029 29.6645 12.1225 29.7331 12.0258 29.7659C11.9291 29.7987 11.8235 29.7932 11.7308 29.7505L10.95 29.1925C10.8796 29.1184 10.8403 29.0202 10.8403 28.918C10.8403 28.8158 10.8796 28.7175 10.95 28.6435C10.9977 28.5532 11.0781 28.4846 11.1748 28.4518C11.2715 28.419 11.3771 28.4245 11.4698 28.4672L12.2505 29.0252Z" fill="#1CFF28"/>
<path d="M13.0178 24.4398C13.0192 24.4983 13.009 24.5565 12.9879 24.6111C12.9668 24.6657 12.9351 24.7156 12.8947 24.7579C12.8543 24.8003 12.806 24.8343 12.7525 24.8579C12.6989 24.8816 12.6413 24.8945 12.5828 24.8958C12.5243 24.8973 12.4661 24.8873 12.4115 24.8662C12.3569 24.8452 12.307 24.8136 12.2647 24.7733C12.2223 24.733 12.1883 24.6847 12.1647 24.6312C12.141 24.5777 12.1281 24.52 12.1268 24.4616L12.0945 23.1258C12.093 23.0673 12.1031 23.0091 12.1241 22.9545C12.1451 22.8998 12.1767 22.8499 12.217 22.8075C12.2573 22.7651 12.3056 22.731 12.3591 22.7073C12.4126 22.6835 12.4702 22.6705 12.5288 22.6691C12.5873 22.6677 12.6455 22.6778 12.7001 22.6989C12.7546 22.72 12.8045 22.7517 12.8469 22.7921C12.8892 22.8325 12.9232 22.8808 12.9469 22.9344C12.9705 22.9879 12.9834 23.0456 12.9848 23.1041L13.0178 24.4398Z" fill="#00C40A"/>
<path d="M13.9868 24.9684C13.896 25.0614 13.6793 24.9984 13.503 24.8274C13.3268 24.6557 13.257 24.4412 13.3478 24.3474L13.8413 23.8397C13.932 23.7459 14.1488 23.8097 14.325 23.9807C14.502 24.1524 14.571 24.3669 14.4803 24.4607L13.9868 24.9684Z" fill="#00C40A"/>
<path d="M12.75 24.5377C12.8203 24.6119 12.8594 24.7101 12.8594 24.8122C12.8594 24.9144 12.8203 25.0126 12.75 25.0867C12.7021 25.1769 12.6215 25.2454 12.5247 25.278C12.4279 25.3107 12.3223 25.305 12.2295 25.2622L11.4465 24.7027C11.3761 24.6287 11.3368 24.5304 11.3368 24.4282C11.3368 24.326 11.3761 24.2278 11.4465 24.1537C11.4941 24.0634 11.5746 23.9948 11.6713 23.9621C11.7679 23.9293 11.8735 23.9348 11.9663 23.9775L12.75 24.5377Z" fill="#1CFF28"/>
<path d="M18.399 26.3902C18.353 26.4265 18.3003 26.4533 18.2439 26.4692C18.1875 26.485 18.1285 26.4896 18.0703 26.4826C18.0121 26.4757 17.9559 26.4573 17.9049 26.4286C17.8538 26.3999 17.8089 26.3613 17.7727 26.3152C17.7365 26.2693 17.7097 26.2166 17.6939 26.1603C17.678 26.1039 17.6734 26.045 17.6804 25.9869C17.6874 25.9288 17.7057 25.8727 17.7345 25.8217C17.7632 25.7707 17.8017 25.7258 17.8477 25.6897L18.894 24.8587C18.94 24.8225 18.9927 24.7957 19.0491 24.7798C19.1055 24.764 19.1645 24.7594 19.2227 24.7663C19.2809 24.7733 19.3371 24.7917 19.3881 24.8204C19.4392 24.8491 19.4841 24.8876 19.5202 24.9337C19.5565 24.9797 19.5833 25.0324 19.5991 25.0887C19.615 25.145 19.6196 25.204 19.6126 25.2621C19.6056 25.3202 19.5873 25.3763 19.5585 25.4273C19.5298 25.4783 19.4913 25.5232 19.4452 25.5592L18.399 26.3902Z" fill="#00C40A"/>
<path d="M18.561 27.4822C18.4313 27.4664 18.3518 27.2572 18.3818 27.0112C18.4125 26.7674 18.5423 26.5822 18.6713 26.5987L19.374 26.6864C19.503 26.7022 19.5833 26.9114 19.5525 27.1574C19.5225 27.4012 19.3928 27.5864 19.2638 27.5699L18.561 27.4822Z" fill="#00C40A"/>
<path d="M18.1613 26.2383C18.1658 26.4153 17.97 26.5645 17.724 26.5713C17.478 26.5773 17.274 26.4393 17.2703 26.2623L17.2448 25.2993C17.2403 25.1223 17.436 24.973 17.682 24.967C17.9273 24.9603 18.132 25.0983 18.1358 25.276L18.1613 26.2383Z" fill="#1CFF28"/>
<path d="M15.987 29.8387C15.9448 29.8792 15.8951 29.911 15.8406 29.9322C15.7861 29.9534 15.728 29.9637 15.6696 29.9624C15.6111 29.9612 15.5535 29.9484 15.5 29.9249C15.4465 29.9013 15.3982 29.8675 15.3577 29.8252C15.3173 29.783 15.2855 29.7332 15.2643 29.6787C15.243 29.6241 15.2327 29.5659 15.234 29.5074C15.2352 29.4489 15.248 29.3913 15.2716 29.3377C15.2951 29.2841 15.329 29.2357 15.3712 29.1952L16.3365 28.275C16.4225 28.1944 16.5366 28.1508 16.6544 28.1534C16.7722 28.1561 16.8843 28.2049 16.9665 28.2892C17.0069 28.3315 17.0386 28.3813 17.0598 28.4358C17.0809 28.4902 17.0911 28.5484 17.0898 28.6068C17.0885 28.6653 17.0757 28.7229 17.0521 28.7764C17.0285 28.8298 16.9945 28.8781 16.9522 28.9185L15.987 29.8387Z" fill="#00C40A"/>
<path d="M16.2495 30.9122C16.119 30.9077 16.02 30.7052 16.0245 30.4622C16.0328 30.2162 16.1445 30.0205 16.275 30.025L16.9823 30.0475C17.1128 30.0512 17.2118 30.2537 17.2073 30.4975C17.199 30.7435 17.0873 30.9392 16.9575 30.9355L16.2495 30.9122Z" fill="#00C40A"/>
<path d="M15.7365 29.7099C15.7575 29.8854 15.5767 30.0519 15.3322 30.0811C15.0877 30.1104 14.8732 29.9911 14.8522 29.8156L14.7375 28.8594C14.7165 28.6831 14.898 28.5166 15.1417 28.4844C15.3862 28.4551 15.6015 28.5744 15.6225 28.7506L15.7365 29.7099Z" fill="#1CFF28"/>
<path d="M16.2263 33.525C16.2278 33.5835 16.2177 33.6417 16.1967 33.6963C16.1757 33.7509 16.1441 33.8008 16.1038 33.8431C16.0634 33.8855 16.0151 33.9195 15.9616 33.9431C15.9082 33.9668 15.8505 33.9797 15.792 33.981C15.7336 33.9825 15.6754 33.9725 15.6208 33.9514C15.5662 33.9304 15.5163 33.8988 15.474 33.8585C15.4316 33.8182 15.3976 33.7699 15.374 33.7164C15.3503 33.6629 15.3374 33.6053 15.336 33.5468L15.3038 32.211C15.3023 32.1526 15.3124 32.0944 15.3334 32.0398C15.3544 31.9852 15.386 31.9353 15.4263 31.8929C15.4667 31.8506 15.515 31.8166 15.5684 31.7929C15.6219 31.7693 15.6796 31.7564 15.738 31.755C15.7965 31.7535 15.8547 31.7636 15.9093 31.7846C15.9639 31.8056 16.0138 31.8372 16.0561 31.8776C16.0985 31.9179 16.1325 31.9662 16.1561 32.0197C16.1798 32.0732 16.1927 32.1308 16.194 32.1893L16.2263 33.525Z" fill="#00C40A"/>
<path d="M17.196 34.0501C17.1053 34.1439 16.8885 34.0809 16.7123 33.9091C16.536 33.7381 16.4663 33.5229 16.557 33.4299L17.0505 32.9214C17.1413 32.8284 17.358 32.8914 17.5343 33.0624C17.7105 33.2341 17.7803 33.4486 17.6895 33.5424L17.196 34.0501Z" fill="#00C40A"/>
<path d="M15.9623 33.6216C16.0324 33.6958 16.0714 33.794 16.0714 33.8961C16.0714 33.9982 16.0324 34.0964 15.9623 34.1706C15.9146 34.2611 15.834 34.3298 15.7371 34.3625C15.6402 34.3951 15.5345 34.3893 15.4418 34.3461L14.658 33.7866C14.5879 33.7124 14.5489 33.6142 14.5489 33.5121C14.5489 33.41 14.5879 33.3118 14.658 33.2376C14.7057 33.1471 14.7863 33.0784 14.8832 33.0458C14.9801 33.0131 15.0858 33.019 15.1785 33.0621L15.9623 33.6216Z" fill="#1CFF28"/>
<path d="M12.8708 32.2351C12.8263 32.2731 12.7747 32.3019 12.7191 32.32C12.6634 32.338 12.6048 32.3449 12.5465 32.3402C12.4881 32.3356 12.4313 32.3194 12.3793 32.2928C12.3272 32.2661 12.2809 32.2295 12.243 32.1849C12.205 32.1404 12.1762 32.0888 12.1581 32.0332C12.1401 31.9775 12.1332 31.9189 12.1379 31.8606C12.1426 31.8023 12.1587 31.7454 12.1853 31.6934C12.212 31.6413 12.2487 31.595 12.2933 31.5571L13.311 30.6909C13.401 30.6144 13.5177 30.5769 13.6354 30.5864C13.7532 30.596 13.8623 30.6519 13.9388 30.7419C13.9767 30.7864 14.0056 30.8379 14.0236 30.8936C14.0417 30.9492 14.0485 31.0079 14.0439 31.0662C14.0392 31.1245 14.0231 31.1813 13.9964 31.2334C13.9698 31.2854 13.9331 31.3317 13.8885 31.3696L12.8708 32.2351Z" fill="#00C40A"/>
<path d="M13.0702 33.3219C12.9397 33.3099 12.8527 33.1021 12.8752 32.8569C12.897 32.6116 13.02 32.4226 13.1505 32.4346L13.8555 32.4984C13.9852 32.5096 14.0722 32.7181 14.0505 32.9634C14.028 33.2079 13.905 33.3969 13.7752 33.3856L13.0702 33.3219Z" fill="#00C40A"/>
<path d="M12.6278 32.0911C12.639 32.2681 12.4485 32.4241 12.2025 32.4384C11.9573 32.4534 11.7525 32.3221 11.739 32.1451L11.6805 31.1844C11.67 31.0074 11.8605 30.8514 12.1058 30.8371C12.351 30.8221 12.5558 30.9534 12.57 31.1304L12.6278 32.0911Z" fill="#1CFF28"/>
<path d="M9.52505 30.1935C9.58278 30.2027 9.63814 30.2232 9.68794 30.2539C9.73775 30.2845 9.78102 30.3246 9.8153 30.372C9.84957 30.4194 9.87417 30.473 9.88768 30.5299C9.90119 30.5868 9.90336 30.6458 9.89405 30.7035C9.88483 30.7612 9.86433 30.8166 9.8337 30.8664C9.80307 30.9162 9.76293 30.9595 9.71556 30.9938C9.66819 31.028 9.61453 31.0526 9.55764 31.0661C9.50076 31.0797 9.44177 31.0818 9.38405 31.0725L8.0648 30.8603C8.00706 30.851 7.95171 30.8305 7.9019 30.7999C7.8521 30.7693 7.80882 30.7291 7.77455 30.6818C7.74028 30.6344 7.71568 30.5807 7.70217 30.5239C7.68865 30.467 7.68649 30.408 7.6958 30.3503C7.70501 30.2925 7.72552 30.2372 7.75614 30.1874C7.78677 30.1376 7.82692 30.0943 7.87429 30.06C7.92165 30.0257 7.97532 30.0011 8.0322 29.9876C8.08908 29.9741 8.14808 29.9719 8.2058 29.9813L9.52505 30.1935Z" fill="#00C40A"/>
<path d="M10.2217 29.3372C10.2967 29.443 10.1955 29.6447 9.99674 29.7872C9.79574 29.929 9.57224 29.9582 9.49649 29.8517L9.08774 29.2735C9.01274 29.1677 9.11399 28.966 9.31274 28.8235C9.51299 28.6817 9.73724 28.6525 9.81224 28.759L10.2217 29.3372Z" fill="#00C40A"/>
<path d="M9.57227 30.4712C9.65787 30.4154 9.76163 30.3944 9.86221 30.4127C9.96278 30.431 10.0525 30.4871 10.113 30.5695C10.1927 30.6333 10.2449 30.7253 10.2589 30.8264C10.2728 30.9276 10.2475 31.0302 10.188 31.1132L9.49502 31.7815C9.40953 31.8373 9.30589 31.8582 9.20544 31.84C9.10499 31.8217 9.01537 31.7656 8.95502 31.6832C8.87532 31.6194 8.82312 31.5275 8.80916 31.4263C8.79521 31.3252 8.82057 31.2225 8.88002 31.1395L9.57227 30.4712Z" fill="#1CFF28"/>
<path d="M19.107 29.5936C19.0083 29.6584 18.888 29.6813 18.7724 29.6574C18.6568 29.6335 18.5554 29.5647 18.4905 29.4661C18.4267 29.367 18.4043 29.2469 18.4281 29.1315C18.452 29.016 18.5201 28.9146 18.618 28.8489L19.7347 28.1154C19.8339 28.0516 19.9541 28.0294 20.0696 28.0534C20.185 28.0773 20.2864 28.1457 20.352 28.2436C20.4167 28.3424 20.4395 28.4628 20.4154 28.5784C20.3914 28.694 20.3224 28.7953 20.2237 28.8601L19.107 29.5936Z" fill="#00C40A"/>
<path d="M19.1708 30.6962C19.0433 30.6684 18.9825 30.4517 19.0343 30.2109C19.0868 29.9709 19.2323 29.7984 19.3598 29.8262L20.0513 29.9762C20.1788 30.0039 20.2395 30.2214 20.1878 30.4614C20.1353 30.7022 19.9898 30.8747 19.8623 30.8469L19.1708 30.6962Z" fill="#00C40A"/>
<path d="M18.8843 29.4211C18.873 29.5981 18.6645 29.7286 18.4193 29.7129C18.1733 29.6971 17.9835 29.5411 17.9948 29.3641L18.0563 28.4034C18.0675 28.2264 18.2753 28.0959 18.5213 28.1116C18.7665 28.1266 18.9563 28.2834 18.945 28.4596L18.8843 29.4211Z" fill="#1CFF28"/>
<path d="M18.894 32.5643C18.8955 32.6227 18.8854 32.6809 18.8644 32.7355C18.8434 32.7901 18.8118 32.84 18.7715 32.8823C18.7311 32.9247 18.6828 32.9587 18.6293 32.9823C18.5759 33.006 18.5182 33.0189 18.4597 33.0203C18.3417 33.0231 18.2274 32.9789 18.1419 32.8975C18.0564 32.8161 18.0067 32.704 18.0037 32.586L17.9707 31.2495C17.9691 31.1317 18.0138 31.0179 18.0951 30.9326C18.1764 30.8474 18.288 30.7974 18.4057 30.7935C18.5236 30.7919 18.6373 30.8365 18.7226 30.9179C18.8079 30.9992 18.8578 31.1107 18.8617 31.2285L18.894 32.5643Z" fill="#00C40A"/>
<path d="M19.8638 33.0929C19.773 33.1859 19.5563 33.1229 19.38 32.9519C19.203 32.7802 19.134 32.5657 19.2248 32.4719L19.7183 31.9642C19.809 31.8704 20.0258 31.9342 20.202 32.1052C20.3783 32.2769 20.448 32.4914 20.3573 32.5852L19.8638 33.0929Z" fill="#00C40A"/>
<path d="M18.6293 32.662C18.6997 32.736 18.739 32.8343 18.739 32.9365C18.739 33.0387 18.6997 33.1369 18.6293 33.211C18.5816 33.3013 18.5012 33.3699 18.4045 33.4027C18.3078 33.4354 18.2022 33.4299 18.1095 33.3872L17.325 32.8277C17.2547 32.7536 17.2156 32.6554 17.2156 32.5532C17.2156 32.4511 17.2547 32.3529 17.325 32.2787C17.3726 32.1884 17.4531 32.1198 17.5498 32.0871C17.6464 32.0543 17.752 32.0598 17.8448 32.1025L18.6293 32.662Z" fill="#1CFF28"/>
<path d="M14.25 27.2251C14.1805 27.3203 14.0764 27.3843 13.9602 27.4035C13.8439 27.4227 13.7247 27.3956 13.6283 27.3279C13.5807 27.2938 13.5403 27.2507 13.5094 27.201C13.4785 27.1513 13.4576 27.096 13.4481 27.0383C13.4386 26.9806 13.4405 26.9215 13.4538 26.8645C13.4671 26.8075 13.4914 26.7537 13.5255 26.7061L14.3033 25.6194C14.3721 25.5235 14.4761 25.4588 14.5925 25.4396C14.709 25.4203 14.8283 25.448 14.9243 25.5166C15.0195 25.5861 15.0837 25.6901 15.1031 25.8064C15.1224 25.9226 15.0954 26.0418 15.0278 26.1384L14.25 27.2251Z" fill="#00C40A"/>
<path d="M14.7 28.2317C14.571 28.252 14.436 28.0712 14.4 27.8282C14.3618 27.5852 14.436 27.3722 14.5643 27.352L15.264 27.2432C15.393 27.223 15.528 27.4037 15.564 27.6467C15.6015 27.8897 15.528 28.1027 15.399 28.123L14.7 28.2317Z" fill="#00C40A"/>
<path d="M13.9755 27.1454C14.0288 27.3142 13.8818 27.5114 13.647 27.5849C13.5543 27.6298 13.4478 27.6369 13.3499 27.6049C13.252 27.5729 13.1704 27.5041 13.122 27.4132L12.8333 26.4944C12.78 26.3249 12.927 26.1284 13.161 26.0542C13.2539 26.0098 13.3604 26.003 13.4581 26.0351C13.5559 26.0672 13.6376 26.1359 13.686 26.2267L13.9755 27.1454Z" fill="#1CFF28"/>
<path d="M16.0148 24.5598C15.9634 24.5878 15.907 24.6054 15.8489 24.6117C15.7907 24.6179 15.7318 24.6126 15.6757 24.5961C15.6196 24.5796 15.5672 24.5522 15.5217 24.5155C15.4762 24.4787 15.4383 24.4334 15.4103 24.382C15.3549 24.2781 15.3425 24.1565 15.3757 24.0435C15.4089 23.9305 15.4852 23.835 15.588 23.7775L16.7618 23.1378C16.865 23.0824 16.986 23.07 17.0983 23.1033C17.2107 23.1366 17.3054 23.2128 17.3618 23.3155C17.3898 23.3669 17.4074 23.4233 17.4137 23.4814C17.4199 23.5396 17.4146 23.5985 17.3981 23.6546C17.3816 23.7107 17.3542 23.7631 17.3175 23.8086C17.2807 23.8542 17.2354 23.892 17.184 23.92L16.0148 24.5598Z" fill="#00C40A"/>
<path d="M15.9878 25.6638C15.8633 25.6256 15.8205 25.4043 15.8925 25.1688C15.9638 24.9333 16.1228 24.7736 16.248 24.8118L16.923 25.0181C17.0475 25.0563 17.0903 25.2776 17.0183 25.5131C16.947 25.7486 16.788 25.9083 16.6628 25.8701L15.9878 25.6638Z" fill="#00C40A"/>
<path d="M15.807 24.3693C15.7807 24.5448 15.5625 24.658 15.3195 24.622C15.0757 24.5868 14.8995 24.4158 14.925 24.2403L15.0645 23.287C15.09 23.1123 15.3082 22.999 15.552 23.0343C15.795 23.0695 15.972 23.2413 15.9457 23.416L15.807 24.3693Z" fill="#1CFF28"/>
<path d="M15.5168 38.4145C15.5168 38.4145 14.8763 39.052 16.1213 39.1248C17.3663 39.1975 17.0415 38.6185 17.0415 38.6185C17.0415 38.6185 16.4798 39.634 17.3663 39.1975C17.9395 38.8537 18.354 38.2978 18.5198 37.6503C18.5198 37.6503 18.5378 39.064 19.761 38.2735C19.9228 38.1982 20.0664 38.0888 20.1819 37.9528C20.2975 37.8168 20.3822 37.6575 20.4305 37.4857C20.4787 37.3139 20.4892 37.1337 20.4613 36.9574C20.4334 36.7812 20.3677 36.613 20.2688 36.4645C20.2688 36.4645 20.736 35.8315 21.0488 35.893C21.3615 35.9545 21.27 35.0583 21.27 35.0583L21.5978 34.3593C21.5978 34.3593 21.6938 33.4443 21.0495 33.1645C20.4053 32.8848 22.2945 33.2395 22.3515 32.752C22.4085 32.2645 21.4305 31.8078 21.4305 31.8078C21.4305 31.8078 22.4655 31.7823 21.717 30.8328C21.4622 30.5445 21.1511 30.3114 20.8029 30.1479C20.4546 29.9843 20.0766 29.8938 19.692 29.8818L20.304 29.4865C20.304 29.4865 19.725 28.5355 19.4175 28.6503C19.11 28.765 19.158 27.9318 18.771 27.6648C18.384 27.3978 17.6745 28.003 17.6745 28.003C17.6745 28.003 16.9538 26.8128 16.362 26.62C15.7703 26.4273 15.4305 27.268 15.4305 27.268C15.4305 27.268 15.1305 27.0648 14.481 27.3573C13.8315 27.6498 13.356 26.7258 12.8385 27.9843C12.321 29.2428 13.3448 28.8708 13.3448 28.8708C13.3448 28.8708 12.213 28.3195 12.1133 28.9225C12.0135 29.5255 12.9608 30.172 12.9608 30.172C12.9608 30.172 11.6063 29.74 11.7675 30.8388C11.7824 31.1249 11.8755 31.4015 12.0369 31.6382C12.1983 31.875 12.4216 32.0629 12.6825 32.1813C12.6825 32.1813 12.4748 32.5563 12.3248 32.8705C12.1748 33.1848 13.038 33.7885 13.038 33.7885C13.038 33.7885 12.9 33.3955 13.0988 34.363C13.2713 34.9927 13.682 35.5307 14.244 35.863C14.244 35.863 13.494 36.3648 13.719 36.9813C13.944 37.5978 15.15 37.567 15.15 37.567C15.15 37.567 13.4453 38.4663 15.5168 38.4145Z" fill="#009C08"/>
<path d="M16.8 38.1382C16.7998 38.085 16.8101 38.0324 16.8303 37.9832C16.8504 37.934 16.8801 37.8893 16.9176 37.8516C16.9551 37.8139 16.9996 37.784 17.0487 37.7636C17.0977 37.7431 17.1503 37.7325 17.2035 37.7324C17.311 37.7322 17.4141 37.7747 17.4904 37.8505C17.5666 37.9263 17.6096 38.0292 17.61 38.1367V39.3517C17.6102 39.4049 17.5999 39.4576 17.5797 39.5068C17.5594 39.5561 17.5297 39.6008 17.4921 39.6385C17.4546 39.6762 17.4099 39.7061 17.3608 39.7265C17.3116 39.7469 17.259 39.7574 17.2057 39.7574C17.1526 39.7575 17.0999 39.7471 17.0507 39.7269C17.0015 39.7066 16.9568 39.6769 16.9191 39.6393C16.8815 39.6018 16.8516 39.5572 16.8311 39.5081C16.8107 39.459 16.8001 39.4064 16.8 39.3532V38.1382Z" fill="#00C40A"/>
<path d="M15.9285 37.638C16.0133 37.5548 16.209 37.617 16.3658 37.776C16.5225 37.9358 16.5818 38.1323 16.497 38.2155L16.0388 38.6655C15.954 38.7488 15.7583 38.6873 15.6015 38.5275C15.444 38.3685 15.3855 38.1713 15.4703 38.088L15.9285 37.638Z" fill="#00C40A"/>
<path d="M17.0423 38.0543C16.9796 37.9858 16.9456 37.8959 16.9473 37.8031C16.9489 37.7103 16.9862 37.6217 17.0513 37.5555C17.0963 37.4742 17.1708 37.4133 17.2594 37.3854C17.3481 37.3575 17.4441 37.3647 17.5275 37.4055L18.2288 37.9305C18.2915 37.9991 18.3256 38.0892 18.3239 38.1821C18.3222 38.275 18.2849 38.3638 18.2198 38.43C18.1748 38.5114 18.1003 38.5723 18.0116 38.6002C17.923 38.6281 17.827 38.6209 17.7435 38.58L17.0423 38.0543Z" fill="#1CFF28"/>
<path d="M20.796 34.6361C20.7563 34.6006 20.724 34.5577 20.7008 34.5097C20.6777 34.4618 20.6643 34.4098 20.6613 34.3566C20.6583 34.3035 20.6658 34.2502 20.6834 34.2C20.701 34.1498 20.7283 34.1035 20.7638 34.0638C20.8355 33.9838 20.936 33.9354 21.0433 33.9294C21.1505 33.9233 21.2558 33.9601 21.336 34.0316L22.242 34.8416C22.322 34.9133 22.3702 35.0139 22.3761 35.1212C22.382 35.2284 22.3451 35.3337 22.2735 35.4138C22.202 35.4938 22.1016 35.5421 21.9945 35.5482C21.8873 35.5542 21.7821 35.5175 21.702 35.4461L20.796 34.6361Z" fill="#00C40A"/>
<path d="M19.8412 34.9499C19.836 34.8314 20.013 34.7249 20.2365 34.7167C20.4615 34.7062 20.6452 34.7917 20.6505 34.9124L20.6805 35.5559C20.6857 35.6744 20.5095 35.7809 20.286 35.7884C20.061 35.7989 19.8765 35.7134 19.8712 35.5927L19.8412 34.9499Z" fill="#00C40A"/>
<path d="M20.895 34.3991C20.7375 34.4306 20.574 34.2783 20.5298 34.0593C20.4863 33.8396 20.5793 33.6363 20.7368 33.6048L21.5955 33.4338C21.7538 33.4023 21.9173 33.5546 21.9615 33.7736C22.005 33.9933 21.912 34.1966 21.7545 34.2281L20.895 34.3991Z" fill="#1CFF28"/>
<path d="M18.6615 32.2412C18.6615 32.1338 18.704 32.0309 18.7798 31.9548C18.8556 31.8788 18.9584 31.8358 19.0657 31.8354C19.1189 31.8354 19.1716 31.8457 19.2208 31.866C19.27 31.8863 19.3147 31.916 19.3523 31.9535C19.39 31.9911 19.4199 32.0357 19.4404 32.0848C19.4608 32.1339 19.4714 32.1865 19.4715 32.2397V33.4547C19.4716 33.5079 19.4612 33.5606 19.441 33.6097C19.4207 33.6589 19.3909 33.7036 19.3534 33.7413C19.3159 33.779 19.2713 33.8089 19.2222 33.8293C19.1731 33.8498 19.1204 33.8604 19.0672 33.8605C19.014 33.8606 18.9613 33.8503 18.9121 33.8301C18.8629 33.8099 18.8181 33.7801 18.7804 33.7426C18.7427 33.705 18.7128 33.6604 18.6924 33.6112C18.672 33.5621 18.6615 33.5094 18.6615 33.4562V32.2412Z" fill="#00C40A"/>
<path d="M17.7908 31.7407C17.8755 31.6575 18.0713 31.719 18.228 31.8787C18.3848 32.0385 18.444 32.235 18.3593 32.3182L17.9003 32.7682C17.8163 32.8515 17.6205 32.79 17.463 32.6302C17.3063 32.4712 17.2478 32.274 17.3318 32.1907L17.7908 31.7407Z" fill="#00C40A"/>
<path d="M18.9045 32.1571C18.8417 32.0887 18.8075 31.9988 18.8092 31.9059C18.8109 31.8131 18.8482 31.7244 18.9135 31.6583C18.9586 31.5771 19.0332 31.5163 19.1217 31.4884C19.2103 31.4605 19.3063 31.4677 19.3898 31.5083L20.091 32.0333C20.1536 32.102 20.1875 32.192 20.1858 32.2849C20.1841 32.3778 20.147 32.4665 20.082 32.5328C20.0367 32.6141 19.9621 32.6749 19.8734 32.7028C19.7847 32.7307 19.6886 32.7235 19.605 32.6828L18.9045 32.1571Z" fill="#1CFF28"/>
<path d="M18.114 36.313C18.1139 36.2598 18.1243 36.2071 18.1446 36.1579C18.1648 36.1088 18.1946 36.0641 18.2321 36.0264C18.2696 35.9887 18.3142 35.9588 18.3633 35.9383C18.4124 35.9179 18.4651 35.9073 18.5183 35.9072C18.5715 35.907 18.6243 35.9173 18.6735 35.9376C18.7228 35.9578 18.7676 35.9875 18.8053 36.0251C18.8431 36.0626 18.8731 36.1072 18.8936 36.1564C18.9141 36.2055 18.9247 36.2582 18.9248 36.3115V37.5265C18.9249 37.5797 18.9145 37.6323 18.8942 37.6815C18.874 37.7307 18.8442 37.7754 18.8067 37.8131C18.7691 37.8508 18.7245 37.8807 18.6754 37.9011C18.6263 37.9216 18.5737 37.9321 18.5205 37.9322C18.4673 37.9324 18.4146 37.9221 18.3654 37.9019C18.3161 37.8817 18.2714 37.8519 18.2337 37.8144C18.196 37.7768 18.1661 37.7322 18.1457 37.683C18.1253 37.6339 18.1148 37.5812 18.1148 37.528L18.114 36.313Z" fill="#00C40A"/>
<path d="M17.2433 35.8125C17.328 35.7292 17.5238 35.7907 17.6805 35.9505C17.8373 36.1095 17.8965 36.3067 17.8118 36.3892L17.3528 36.8392C17.2688 36.9225 17.073 36.8602 16.9155 36.7012C16.7588 36.5415 16.7003 36.345 16.7843 36.2617L17.2433 35.8125Z" fill="#00C40A"/>
<path d="M18.357 36.2289C18.2944 36.1604 18.2603 36.0705 18.262 35.9777C18.2637 35.8849 18.3009 35.7963 18.366 35.7301C18.4112 35.6489 18.4857 35.5881 18.5743 35.5602C18.6629 35.5323 18.7588 35.5394 18.8423 35.5801L19.5435 36.1051C19.6063 36.1737 19.6403 36.2637 19.6386 36.3567C19.637 36.4496 19.5997 36.5383 19.5345 36.6046C19.4894 36.6858 19.4149 36.7466 19.3263 36.7745C19.2377 36.8024 19.1418 36.7953 19.0583 36.7546L18.357 36.2289Z" fill="#1CFF28"/>
<path d="M13.2608 34.4304C13.3461 34.3653 13.4537 34.3366 13.5601 34.3507C13.6666 34.3647 13.7631 34.4204 13.8285 34.5054C13.8937 34.5907 13.9223 34.6984 13.9083 34.8048C13.8942 34.9112 13.8386 35.0077 13.7535 35.0732L12.7853 35.8074C12.7 35.8727 12.5923 35.9015 12.4859 35.8875C12.3794 35.8734 12.2829 35.8176 12.2175 35.7324C12.1524 35.6471 12.1237 35.5395 12.1378 35.4331C12.1518 35.3266 12.2075 35.2301 12.2925 35.1647L13.2608 34.4304Z" fill="#00C40A"/>
<path d="M13.1355 33.4341C13.2525 33.4514 13.3215 33.6449 13.2855 33.8661C13.2533 34.0911 13.1355 34.2524 13.014 34.2351L12.3773 34.1414C12.2603 34.1241 12.1913 33.9306 12.2273 33.7094C12.2595 33.4881 12.3773 33.3224 12.498 33.3396L13.1355 33.4341Z" fill="#00C40A"/>
<path d="M13.4738 34.575C13.4738 34.4137 13.6538 34.2825 13.878 34.2817C14.103 34.2817 14.283 34.41 14.2838 34.5712V35.4472C14.2838 35.6085 14.1038 35.7397 13.8803 35.7412C13.6553 35.7412 13.4745 35.6122 13.4738 35.451V34.575Z" fill="#1CFF28"/>
<path d="M15.525 31.3435C15.5643 31.3076 15.6102 31.2798 15.6602 31.2616C15.7102 31.2435 15.7633 31.2353 15.8164 31.2377C15.8696 31.2401 15.9217 31.2529 15.9699 31.2754C16.0181 31.2979 16.0614 31.3297 16.0973 31.369C16.1333 31.4081 16.1613 31.454 16.1795 31.504C16.1978 31.554 16.206 31.6071 16.2037 31.6603C16.2014 31.7134 16.1887 31.7656 16.1661 31.8138C16.1436 31.8621 16.1118 31.9053 16.0725 31.9412L15.1725 32.7617C15.1333 32.7976 15.0873 32.8255 15.0373 32.8436C14.9873 32.8618 14.9342 32.8699 14.8811 32.8675C14.828 32.8652 14.7758 32.8523 14.7276 32.8298C14.6794 32.8073 14.6362 32.7755 14.6003 32.7362C14.5644 32.697 14.5365 32.6511 14.5184 32.6011C14.5002 32.5511 14.4921 32.498 14.4945 32.4448C14.4968 32.3917 14.5097 32.3395 14.5322 32.2914C14.5547 32.2432 14.5865 32.1999 14.6258 32.164L15.525 31.3435Z" fill="#00C40A"/>
<path d="M15.306 30.363C15.4245 30.369 15.5108 30.555 15.4988 30.7785C15.4868 31.0035 15.381 31.1783 15.2625 31.1715L14.6198 31.137C14.5013 31.1303 14.415 30.9443 14.427 30.7208C14.439 30.4958 14.5448 30.3218 14.6633 30.3278L15.306 30.363Z" fill="#00C40A"/>
<path d="M15.75 31.4663C15.7342 31.3058 15.9 31.1581 16.125 31.1363C16.35 31.1153 16.5405 31.2278 16.5562 31.3883L16.641 32.2598C16.656 32.4203 16.491 32.5681 16.266 32.5891C16.041 32.6108 15.8497 32.4983 15.8347 32.3378L15.75 31.4663Z" fill="#1CFF28"/>
<path d="M15.3795 27.9888C15.3794 27.9356 15.3898 27.8829 15.4101 27.8337C15.4303 27.7845 15.4601 27.7398 15.4976 27.7022C15.5351 27.6645 15.5797 27.6346 15.6288 27.6141C15.6779 27.5937 15.7306 27.5831 15.7838 27.583C15.837 27.5828 15.8897 27.5931 15.9389 27.6134C15.9881 27.6336 16.0329 27.6633 16.0706 27.7009C16.1083 27.7384 16.1382 27.7831 16.1586 27.8322C16.179 27.8814 16.1895 27.934 16.1895 27.9873V29.2023C16.1895 29.3096 16.147 29.4126 16.0712 29.4886C15.9954 29.5647 15.8926 29.6076 15.7853 29.608C15.7321 29.6081 15.6794 29.5977 15.6302 29.5775C15.581 29.5572 15.5363 29.5275 15.4987 29.4899C15.461 29.4524 15.4311 29.4078 15.4106 29.3587C15.3902 29.3096 15.3796 29.2569 15.3795 29.2038V27.9888Z" fill="#00C40A"/>
<path d="M14.5088 27.4883C14.5935 27.405 14.7893 27.4665 14.946 27.6263C15.1028 27.7853 15.162 27.9818 15.0773 28.065L14.6183 28.515C14.5343 28.5983 14.3385 28.536 14.181 28.377C14.0243 28.2173 13.9658 28.0208 14.0498 27.9375L14.5088 27.4883Z" fill="#00C40A"/>
<path d="M15.6225 27.9044C15.5596 27.8359 15.5255 27.7459 15.5272 27.6529C15.5288 27.5599 15.5662 27.4711 15.6315 27.4049C15.6767 27.3237 15.7512 27.2629 15.8398 27.235C15.9284 27.2071 16.0243 27.2142 16.1078 27.2549L16.809 27.7799C16.8716 27.8485 16.9055 27.9383 16.9038 28.0311C16.9021 28.1238 16.865 28.2124 16.8 28.2787C16.7549 28.3599 16.6804 28.4207 16.5918 28.4486C16.5032 28.4765 16.4073 28.4693 16.3238 28.4287L15.6225 27.9044Z" fill="#1CFF28"/>
<path d="M18.405 29.2274C18.4884 29.1597 18.5953 29.1279 18.7021 29.1388C18.809 29.1498 18.9071 29.2027 18.975 29.2859C19.0086 29.3272 19.0337 29.3747 19.0489 29.4257C19.0641 29.4767 19.0691 29.5302 19.0636 29.5832C19.0581 29.6361 19.0422 29.6875 19.0168 29.7343C18.9915 29.781 18.9571 29.8224 18.9158 29.8559L17.973 30.6224C17.9319 30.6561 17.8845 30.6813 17.8335 30.6966C17.7826 30.7119 17.7292 30.717 17.6763 30.7115C17.6234 30.7061 17.572 30.6902 17.5253 30.6649C17.4785 30.6396 17.4372 30.6052 17.4038 30.5639C17.3701 30.5227 17.3449 30.4752 17.3296 30.4242C17.3143 30.3732 17.3092 30.3197 17.3146 30.2667C17.32 30.2138 17.3359 30.1624 17.3612 30.1156C17.3866 30.0688 17.4209 30.0274 17.4623 29.9939L18.405 29.2274Z" fill="#00C40A"/>
<path d="M18.246 28.2361C18.3638 28.2488 18.4388 28.4401 18.4133 28.6621C18.3885 28.8871 18.2723 29.0543 18.1545 29.0371L17.5148 28.9621C17.397 28.9486 17.322 28.7573 17.3468 28.5353C17.3723 28.3103 17.4878 28.1438 17.6055 28.1603L18.246 28.2361Z" fill="#00C40A"/>
<path d="M18.6225 29.3636C18.6165 29.2023 18.7928 29.0636 19.0163 29.0561C19.2413 29.0478 19.4258 29.1716 19.4325 29.3328L19.4655 30.2073C19.4723 30.3686 19.296 30.5073 19.0725 30.5148C18.8475 30.5231 18.6623 30.4001 18.6563 30.2388L18.6225 29.3636Z" fill="#1CFF28"/>
<path d="M21.4065 31.1513C21.3542 31.1419 21.3042 31.1221 21.2595 31.0933C21.2148 31.0645 21.1763 31.0271 21.146 30.9834C21.1158 30.9396 21.0945 30.8903 21.0833 30.8383C21.0722 30.7863 21.0714 30.7326 21.081 30.6803C21.0906 30.628 21.1104 30.578 21.1393 30.5333C21.1682 30.4886 21.2056 30.45 21.2494 30.4198C21.2932 30.3896 21.3426 30.3683 21.3946 30.3571C21.4467 30.346 21.5004 30.3452 21.5528 30.3548L22.7475 30.5746C22.7999 30.5842 22.8499 30.604 22.8946 30.6329C22.9393 30.6617 22.9778 30.6992 23.0081 30.743C23.0383 30.7868 23.0596 30.8361 23.0707 30.8882C23.0819 30.9403 23.0827 30.994 23.073 31.0463C23.0535 31.152 22.9929 31.2455 22.9044 31.3064C22.8159 31.3673 22.7069 31.3906 22.6013 31.3711L21.4065 31.1513Z" fill="#00C40A"/>
<path d="M20.7547 31.9162C20.6887 31.8179 20.7855 31.6372 20.9707 31.5119C21.156 31.3867 21.36 31.3619 21.4267 31.4632L21.7867 31.9964C21.8527 32.0947 21.7567 32.2762 21.5715 32.4014C21.3855 32.5267 21.1815 32.5514 21.1155 32.4502L20.7547 31.9162Z" fill="#00C40A"/>
<path d="M21.3683 30.9001C21.2893 30.9492 21.1946 30.9662 21.1035 30.9477C21.0125 30.9291 20.9319 30.8764 20.8785 30.8004C20.8071 30.741 20.7611 30.6565 20.7501 30.5643C20.7391 30.4721 20.7638 30.3792 20.8193 30.3046L21.4628 29.7106C21.5418 29.6618 21.6366 29.645 21.7276 29.6637C21.8186 29.6824 21.8991 29.7351 21.9525 29.8111C22.0239 29.8705 22.0699 29.955 22.0809 30.0472C22.0919 30.1394 22.0672 30.2324 22.0118 30.3069L21.3683 30.9001Z" fill="#1CFF28"/>
<path d="M12.681 31.5036C12.7722 31.4466 12.8822 31.4281 12.9869 31.4522C13.0917 31.4762 13.1826 31.5408 13.2398 31.6319C13.2967 31.7231 13.3151 31.8332 13.2909 31.9379C13.2667 32.0427 13.2019 32.1336 13.1108 32.1906L12.0803 32.8349C11.9892 32.8918 11.8792 32.9101 11.7746 32.8859C11.6699 32.8617 11.5792 32.797 11.5223 32.7059C11.4654 32.6148 11.447 32.5048 11.4712 32.4002C11.4954 32.2955 11.5602 32.2048 11.6513 32.1479L12.681 31.5036Z" fill="#00C40A"/>
<path d="M12.6458 30.4997C12.7613 30.5275 12.8123 30.7247 12.7598 30.9437C12.7073 31.1612 12.5715 31.315 12.456 31.2872L11.8305 31.1372C11.715 31.1095 11.664 30.9122 11.7165 30.6932C11.769 30.4757 11.9048 30.3182 12.0203 30.3497L12.6458 30.4997Z" fill="#00C40A"/>
<path d="M12.8805 31.6651C12.8948 31.5046 13.086 31.3899 13.3095 31.4094C13.5345 31.4281 13.7018 31.5736 13.6845 31.7349L13.6095 32.6071C13.5953 32.7676 13.4033 32.8824 13.1805 32.8636C12.9555 32.8441 12.7883 32.6986 12.8055 32.5381L12.8805 31.6651Z" fill="#1CFF28"/>
<path d="M12.9352 28.8066C12.9351 28.7534 12.9455 28.7008 12.9658 28.6516C12.986 28.6024 13.0158 28.5577 13.0533 28.52C13.0909 28.4824 13.1355 28.4524 13.1846 28.432C13.2337 28.4116 13.2863 28.401 13.3395 28.4009C13.4468 28.4009 13.5498 28.4434 13.6259 28.5192C13.7019 28.595 13.7448 28.6978 13.7452 28.8051V30.0201C13.7454 30.0734 13.7351 30.1261 13.7149 30.1754C13.6947 30.2247 13.665 30.2695 13.6274 30.3072C13.5899 30.345 13.5452 30.375 13.4961 30.3954C13.4469 30.4159 13.3942 30.4265 13.341 30.4266C13.2336 30.4266 13.1307 30.3841 13.0546 30.3083C12.9786 30.2325 12.9356 30.1297 12.9352 30.0224V28.8066Z" fill="#00C40A"/>
<path d="M12.0638 28.3065C12.1485 28.2232 12.3443 28.2855 12.501 28.4445C12.6585 28.6042 12.717 28.8007 12.6323 28.884L12.174 29.334C12.0893 29.4172 11.8935 29.3557 11.7368 29.196C11.5793 29.037 11.5208 28.8405 11.6055 28.7572L12.0638 28.3065Z" fill="#00C40A"/>
<path d="M13.1775 28.725C13.1148 28.6564 13.0807 28.5664 13.0824 28.4734C13.0841 28.3805 13.1213 28.2917 13.1865 28.2255C13.2315 28.1441 13.306 28.0832 13.3946 28.0553C13.4833 28.0274 13.5793 28.0346 13.6627 28.0755L14.364 28.6005C14.4267 28.669 14.4608 28.7591 14.4591 28.852C14.4574 28.9449 14.4202 29.0337 14.355 29.1C14.31 29.1813 14.2355 29.2422 14.1468 29.2701C14.0582 29.298 13.9622 29.2908 13.8787 29.25L13.1775 28.725Z" fill="#1CFF28"/>
<path d="M17.0535 33.7548C17.0854 33.7122 17.1253 33.6762 17.1711 33.6491C17.2168 33.6219 17.2674 33.604 17.3201 33.5964C17.3727 33.5888 17.4264 33.5917 17.4779 33.6048C17.5295 33.618 17.5779 33.6411 17.6205 33.673C17.6631 33.7049 17.6989 33.7449 17.726 33.7907C17.7531 33.8364 17.7709 33.8871 17.7785 33.9397C17.786 33.9924 17.7831 34.046 17.7699 34.0975C17.7567 34.149 17.7334 34.1975 17.7015 34.24L16.9725 35.215C16.9081 35.3009 16.8121 35.3578 16.7058 35.3729C16.5995 35.3881 16.4915 35.3605 16.4055 35.296C16.363 35.2641 16.3271 35.2241 16.3 35.1784C16.2729 35.1326 16.2551 35.0819 16.2476 35.0293C16.2401 34.9766 16.243 34.923 16.2562 34.8715C16.2694 34.82 16.2926 34.7716 16.3245 34.729L17.0535 33.7548Z" fill="#00C40A"/>
<path d="M16.659 32.8306C16.776 32.8149 16.8952 32.9806 16.9252 33.2056C16.9545 33.4306 16.8832 33.6196 16.7655 33.6354L16.1272 33.7201C16.0095 33.7359 15.891 33.5701 15.861 33.3451C15.8317 33.1201 15.903 32.9311 16.0207 32.9154L16.659 32.8306Z" fill="#00C40A"/>
<path d="M17.2973 33.8335C17.2523 33.6782 17.3903 33.5027 17.6048 33.4397C17.6898 33.4022 17.786 33.3986 17.8735 33.4297C17.9611 33.4608 18.0335 33.5242 18.0758 33.607L18.3203 34.4477C18.3653 34.603 18.2273 34.7792 18.0128 34.8415C17.9278 34.8791 17.8316 34.8827 17.744 34.8516C17.6564 34.8205 17.584 34.757 17.5418 34.6742L17.2973 33.8335Z" fill="#1CFF28"/>
<path d="M15.3915 36.1434C15.4388 36.119 15.4904 36.1041 15.5435 36.0996C15.5965 36.0951 15.6499 36.1011 15.7006 36.1173C15.7513 36.1334 15.7983 36.1594 15.839 36.1938C15.8796 36.2281 15.9131 36.2701 15.9375 36.3174C15.962 36.3647 15.9769 36.4163 15.9814 36.4694C15.9859 36.5224 15.9799 36.5758 15.9637 36.6265C15.9475 36.6772 15.9215 36.7242 15.8872 36.7649C15.8528 36.8055 15.8108 36.839 15.7635 36.8634L14.6835 37.4214C14.6363 37.4459 14.5847 37.4608 14.5318 37.4652C14.4788 37.4697 14.4255 37.4637 14.3748 37.4475C14.3242 37.4314 14.2772 37.4054 14.2366 37.371C14.196 37.3367 14.1626 37.2947 14.1383 37.2474C14.1138 37.2002 14.0989 37.1486 14.0943 37.0956C14.0898 37.0426 14.0957 36.9892 14.1118 36.9385C14.1279 36.8878 14.1538 36.8408 14.1881 36.8001C14.2223 36.7594 14.2643 36.7259 14.3115 36.7014L15.3915 36.1434Z" fill="#00C40A"/>
<path d="M15.438 35.1396C15.5505 35.1771 15.588 35.3789 15.513 35.5896C15.4432 35.8019 15.2947 35.9444 15.1822 35.9069L14.571 35.7059C14.4585 35.6684 14.421 35.4666 14.496 35.2559C14.5657 35.0436 14.7135 34.9011 14.8267 34.9386L15.438 35.1396Z" fill="#00C40A"/>
<path d="M15.5768 36.3205C15.6038 36.1615 15.8018 36.0633 16.0268 36.1008C16.2518 36.1375 16.4018 36.2965 16.3778 36.4555L16.2323 37.3195C16.2053 37.4785 16.0073 37.5768 15.7823 37.54C15.5618 37.5025 15.4073 37.3435 15.4313 37.1845L15.5768 36.3205Z" fill="#1CFF28"/>
<defs>
<radialGradient id="paint0_radial_60777_3868" cx="0" cy="0" r="1" gradientUnits="userSpaceOnUse" gradientTransform="translate(25.1393 22.7661) rotate(111.894) scale(7.25773 7.8206)">
<stop stop-color="#FFB640"/>
<stop offset="0.855" stop-color="#FF9224"/>
<stop offset="1" stop-color="#FFB152"/>
</radialGradient>
</defs>
</svg>
