<svg width="48" height="48" viewBox="0 0 48 48" fill="none" xmlns="http://www.w3.org/2000/svg">
<path d="M36.4584 14.3135H30.635C30.6403 14.4505 30.6561 14.5928 30.6561 14.7298C30.6561 18.4399 27.6364 21.4598 23.9262 21.4598C20.2159 21.4598 17.1962 18.4347 17.1962 14.7299C17.1962 14.5929 17.2067 14.4506 17.2173 14.3136H11.5415C10.5718 14.3136 9.77594 15.0988 9.77594 16.0791V36.4638C9.77594 37.4335 10.5718 38.2294 11.5415 38.2294H23.0302V25.8498C23.0302 25.3597 23.4255 24.9592 23.9209 24.9592C24.411 24.9592 24.8115 25.3544 24.8115 25.8498V38.224H36.4584C37.4281 38.224 38.224 37.4282 38.224 36.4585V16.0685C38.224 15.0988 37.4281 14.3135 36.4584 14.3135Z" fill="white"/>
<path d="M12.4479 16.0737C11.9578 16.0737 11.5573 16.4689 11.5573 16.9644L11.552 25.4703H14.4348C14.9249 25.4703 15.3254 25.8655 15.3254 26.3609C15.3254 26.851 14.9302 27.2515 14.4348 27.2515H11.5467V29.0275H13.0381C13.5282 29.0275 13.9287 29.4228 13.9287 29.9182C13.9287 30.4136 13.5282 30.7983 13.0381 30.7983H11.5467L11.5414 35.5519C11.5414 36.042 11.9366 36.4425 12.432 36.4425H35.5572C36.0473 36.4425 36.4478 36.0472 36.4478 35.5519L36.4584 16.9748C36.4584 16.4847 36.0631 16.0842 35.5677 16.0842" fill="#56ACE0"/>
<path d="M36.4584 12.5376H30.2819C29.3702 9.89726 26.8669 8 23.9262 8C20.9854 8 18.4822 9.89726 17.5704 12.5376H11.5415C9.58625 12.5376 8 14.1239 8 16.0738V36.4586C8 38.4138 9.58633 40.0001 11.5415 40.0001H36.4532C38.4084 40.0001 39.9947 38.4137 39.9947 36.4586V16.0685C40 14.1238 38.4137 12.5376 36.4584 12.5376ZM23.9262 9.77603C26.6561 9.77603 28.8801 11.9947 28.8801 14.7194C28.8801 17.444 26.6561 19.6627 23.9262 19.6627C21.1963 19.6627 18.9723 17.444 18.9723 14.7194C18.9723 11.9947 21.191 9.77603 23.9262 9.77603ZM38.224 36.4585C38.224 37.4282 37.4282 38.224 36.4584 38.224H24.8115V25.8499C24.8115 25.3597 24.4163 24.9592 23.9209 24.9592C23.4255 24.9592 23.0303 25.3544 23.0303 25.8499V38.224H11.5415C10.5718 38.224 9.77595 37.4282 9.77595 36.4585V16.0685C9.77595 15.0988 10.5718 14.303 11.5415 14.303H17.2173C17.212 14.4401 17.1962 14.5823 17.1962 14.7194C17.1962 18.4295 20.216 21.4493 23.9262 21.4493C27.6364 21.4493 30.6561 18.4296 30.6561 14.7194C30.6561 14.5823 30.6456 14.4401 30.635 14.303H36.4637C37.4334 14.303 38.2293 15.0882 38.2293 16.0685L38.224 36.4585Z" fill="#194F82"/>
<path d="M23.9262 9.77588C21.1963 9.77588 18.9723 11.9946 18.9723 14.7192C18.9723 17.4438 21.1963 19.6625 23.9262 19.6625C26.6561 19.6625 28.8801 17.4438 28.8801 14.7192C28.8801 11.9946 26.6508 9.77588 23.9262 9.77588Z" fill="#FFC10D"/>
<path d="M23.9262 15.6155C24.4163 15.6155 24.8168 15.2203 24.8168 14.7249V11.3994C24.8168 10.9093 24.4216 10.5088 23.9262 10.5088C23.4308 10.5088 23.0356 10.904 23.0356 11.3994V14.7249C23.0356 15.215 23.4308 15.6155 23.9262 15.6155Z" fill="#194F82"/>
</svg>
