<svg width="128" height="336" viewBox="0 0 128 336" fill="none" xmlns="http://www.w3.org/2000/svg">
<path d="M59.9111 59.9823C59.9111 59.9823 46.8833 58.3479 43.9008 73.1055C42.2577 81.163 41.3473 89.3527 41.1807 97.5743C38.074 97.7475 34.9839 98.1463 31.9348 98.7673C28.2842 99.3876 26.0891 100.235 17.6783 101.809C17.6783 101.809 13.0733 95.2121 10.7708 93.852C9.57775 93.1124 6.40433 92.2892 5.05622 92.8499C3.8632 93.3152 0.737511 94.9616 0.439255 96.1665C0.212582 97.0732 2.41967 101.237 2.41967 101.237C2.41967 101.237 11.6894 106.82 13.8965 107.297C21.1142 108.896 25.934 109.469 38.2459 110.566C54.3158 111.998 52.8961 105.281 55.2583 97.8725C57.6205 90.4639 64.9217 57.1072 59.9111 59.9823Z" fill="#FFB473"/>
<path d="M65.4824 58.6104C65.5225 58.6047 65.5633 58.6105 65.6002 58.627C65.6372 58.6436 65.6686 58.6702 65.6911 58.7039C65.7135 58.7375 65.726 58.7769 65.7271 58.8173C65.7282 58.8577 65.7178 58.8977 65.6972 58.9325C64.6354 60.7697 60.5911 68.6436 70.3141 68.6555C80.0372 68.6675 84.8093 60.5192 85.6563 58.849C85.7032 58.7591 85.7711 58.6819 85.8541 58.6237C85.9372 58.5656 86.033 58.5283 86.1335 58.5149C88.2809 58.2644 99.9248 57.3219 100.378 65.9235C100.867 75.4677 90.9294 89.1754 89.1041 119.263C82.1155 123.055 74.1681 124.715 66.2459 124.035C53.3375 122.842 48.0405 118.595 48.0405 118.595C48.0288 111.781 47.5424 104.977 46.5851 98.2304C43.9485 79.3092 45.1057 73.1771 59.0282 59.362L65.4824 58.6104Z" fill="#263238"/>
<path d="M38.8901 317.769C38.1022 320.926 37.9683 324.21 38.4964 327.42C39.4866 331.715 39.26 335.855 36.9574 335.903C29.3937 336.07 30.539 334.352 25.0273 334.71C19.5156 335.068 11.6774 335.497 10.9855 333.612C9.95948 330.773 19.7661 329.58 23.357 327.158C28.2603 323.865 29.0119 314.273 29.0119 314.273L38.8901 317.769Z" fill="#FFB473"/>
<path d="M28.1411 319.391L38.3652 320.656C42.1948 307.795 50.7129 278.9 53.4807 266.35C54.7097 260.528 55.6059 254.641 56.165 248.717C57.2506 237.98 56.4633 233.9 57.358 229.092C58.3363 223.878 62.834 214.239 64.8501 209.359C66.58 205.196 69.7534 196.845 72.5332 189.412C72.6763 189.054 72.8076 188.696 72.9388 188.35C75.6708 181.085 77.9375 174.953 77.9375 174.953C96.823 158.537 90.2972 133.627 86.9567 124.381C86.6465 123.522 86.3602 122.806 86.1216 122.234C85.7398 121.279 85.4893 120.754 85.4893 120.754L77.8302 120.372L68.966 119.919L62.8578 119.609L53.1228 119.12L48.6132 118.893L48.4701 120.73L48.1956 124.309L46.3823 147.561L35.7883 226.062L28.1411 319.391Z" fill="#407BFF"/>
<path opacity="0.2" d="M66.6994 145.498H79.6316L84.9644 166.912C83.037 169.914 80.6864 172.622 77.9853 174.953C77.9853 174.953 72.5809 189.615 68.4411 200.496C65.8762 183.614 66.6994 145.498 66.6994 145.498Z" fill="black"/>
<path d="M116.746 314.333C116.861 318.246 117.669 322.107 119.132 325.738C121.435 330.856 122.771 333.505 116.746 333.91C110.722 334.316 109.063 334.244 103.695 335.461C98.3261 336.678 91.2516 335.736 91.6572 333.612C92.0628 331.489 98.696 332.419 103.039 327.647C107.381 322.875 107.811 318.544 107.011 316.111L116.746 314.333Z" fill="#FFB473"/>
<path d="M62.0346 120.337C62.0346 120.409 62.0346 120.731 62.1301 121.268C62.2016 122.007 62.309 123.153 62.4522 124.584C62.5476 125.574 62.655 126.708 62.7862 127.96C63.7049 137.027 65.2319 151.713 66.1863 157.917C67.3793 165.851 69.6341 176.683 72.4735 189.019C72.4735 189.138 72.5332 189.257 72.557 189.389C84.5588 241.321 107.011 319.427 107.011 319.427L117.379 317.841C116.388 304.455 114.026 274.391 112.153 261.769C111.231 255.983 109.976 250.255 108.395 244.613C105.604 234.437 103.42 231.108 102.561 226.348C101.631 221.183 102.382 210.398 102.561 205.065C102.8 195.759 102.49 167.938 102.49 167.938C102.347 147.096 91.9554 124.882 89.6052 120.134C89.307 119.526 89.1399 119.204 89.1399 119.204C89.1399 119.204 72.569 119.907 69.0257 119.86L62.0346 120.337Z" fill="#407BFF"/>
<path opacity="0.2" d="M48.4701 120.731C50.1999 123.355 57.7875 124.095 62.4522 124.596C70.4295 125.531 78.5148 124.717 86.1455 122.21C86.6107 122.055 87.0879 121.876 87.5651 121.697C87.8276 121.602 88.0782 121.458 88.3406 121.363C88.6163 121.267 88.8667 121.109 89.0733 120.903C89.2798 120.696 89.4371 120.446 89.5336 120.17C89.2354 119.562 89.0684 119.239 89.0684 119.239C89.0684 119.239 72.4974 119.943 68.9541 119.896L62.8459 119.585L53.1109 119.096L48.6013 118.87L48.4701 120.731Z" fill="black"/>
<path d="M88.4241 66.7944C88.1497 58.0139 97.8012 54.3632 105.532 71.6739C107.962 77.3641 109.956 83.2307 111.497 89.2231C111.497 89.2231 118.488 75.4319 121.327 62.1536C121.327 62.1536 114.169 55.4608 113.632 52.2755C113.31 50.5098 114.432 46.4178 116.019 45.5111C118.071 44.318 123.785 45.3918 125.443 47.1097C128.044 49.794 127.495 61.915 127.495 61.915C127.958 73.0435 126.452 84.1663 123.045 94.7706C116.746 114.646 103.325 104.899 98.2068 95.4268C94.079 87.8392 88.6865 75.5392 88.4241 66.7944Z" fill="#FFB473"/>
<path d="M89.0087 26.3034C89.3785 29.0235 91.5259 32.6502 94.3176 33.6524C94.7411 33.8269 95.2059 33.8759 95.6565 33.7934C96.1071 33.7109 96.5245 33.5004 96.8587 33.1871C97.0576 33.0757 97.232 32.9253 97.3714 32.7449C97.5108 32.5645 97.6123 32.3578 97.6699 32.1372C98.4489 32.1171 99.224 32.0213 99.9844 31.8509C101.177 31.5765 101.989 29.8228 100.939 29.0354C96.1667 25.5518 94.5562 20.3741 95.6179 18.1074C100.975 6.6425 89.1757 -5.75293 79.7986 2.89643C69.3 12.6076 83.819 16.0196 89.1399 15.781C89.4143 15.7691 87.9946 21.9131 89.0087 26.3034Z" fill="#263238"/>
<path d="M85.1672 17.821C85.1672 17.821 88.2452 13.049 84.7138 9.35063C81.1825 5.65228 76.5536 8.75412 76.5536 8.75412L85.1672 17.821Z" fill="#407BFF"/>
<path d="M84.0099 58.5866H87.1356C85.3461 61.76 77.496 72.4852 68.3337 71.7813C59.732 71.1132 60.1377 61.9986 62.8339 58.8013C63.8135 58.7763 64.7884 58.6564 65.7448 58.4434C69.7534 57.3935 70.8152 52.7766 70.2187 48.9947L82.0534 40.3096C80.7745 45.5312 80.5032 50.9488 81.254 56.2721C81.3644 56.922 81.7021 57.5116 82.2069 57.9355C82.7117 58.3594 83.3507 58.5902 84.0099 58.5866Z" fill="#FFB473"/>
<path d="M85.0359 25.6594C85.2149 35.4779 85.5131 39.6296 80.9797 45.0339C74.1556 53.1584 62.0704 51.2376 58.9566 41.6816C56.1649 33.068 56.332 18.4774 65.5778 13.8247C67.611 12.7859 69.8762 12.285 72.1578 12.3695C74.4394 12.4541 76.6614 13.1214 78.612 14.3078C80.5627 15.4943 82.1772 17.1603 83.3017 19.1474C84.4261 21.1344 85.0232 23.3763 85.0359 25.6594Z" fill="#FFB473"/>
<path d="M63.7167 32.6743C63.0395 34.5085 62.1164 36.2423 60.9728 37.8282C61.3838 38.1123 61.8524 38.3024 62.3452 38.3849C62.838 38.4674 63.3429 38.4402 63.8241 38.3053L63.7167 32.6743Z" fill="#EC883E"/>
<path d="M71.1612 27.5917C71.2235 27.5674 71.2803 27.5309 71.3283 27.4843C71.3651 27.4487 71.3943 27.4061 71.4143 27.3589C71.4343 27.3118 71.4446 27.2611 71.4446 27.2099C71.4446 27.1587 71.4343 27.108 71.4143 27.0609C71.3943 27.0137 71.3651 26.9711 71.3283 26.9355C70.8219 26.4108 70.1962 26.0163 69.5044 25.7857C68.8127 25.5552 68.0754 25.4953 67.3555 25.6113C67.2562 25.6368 67.1702 25.6989 67.1149 25.7853C67.0595 25.8716 67.039 25.9756 67.0573 26.0765C67.0801 26.1749 67.14 26.2607 67.2243 26.3162C67.3087 26.3718 67.4112 26.3927 67.5106 26.3748C68.1091 26.2866 68.7199 26.3423 69.2926 26.5373C69.8652 26.7323 70.3831 27.0611 70.8033 27.4962C70.85 27.5412 70.9073 27.5736 70.9699 27.5903C71.0325 27.607 71.0984 27.6074 71.1612 27.5917Z" fill="#2E353A"/>
<path d="M57.7398 27.9975C57.806 27.98 57.8673 27.9473 57.9187 27.902C58.3364 27.4719 58.8515 27.1487 59.4205 26.9598C59.9895 26.7708 60.5956 26.7216 61.1876 26.8164C61.2888 26.8416 61.396 26.8257 61.4854 26.772C61.5749 26.7183 61.6394 26.6313 61.6648 26.53C61.6864 26.4274 61.6675 26.3203 61.6119 26.2313C61.5562 26.1423 61.4683 26.0784 61.3665 26.0528C60.6459 25.9334 59.9071 25.9881 59.2119 26.2122C58.5167 26.4363 57.8851 26.8235 57.3699 27.3413C57.3331 27.3769 57.3039 27.4195 57.2839 27.4667C57.2639 27.5138 57.2536 27.5645 57.2536 27.6157C57.2536 27.6669 57.2639 27.7176 57.2839 27.7647C57.3039 27.8119 57.3331 27.8545 57.3699 27.8901C57.4205 27.9444 57.4855 27.9833 57.5572 28.0023C57.629 28.0213 57.7047 28.0196 57.7756 27.9975H57.7398Z" fill="#2E353A"/>
<path d="M70.3976 31.2784C70.3976 32.0778 70.0636 32.7459 69.5387 32.7817C69.0137 32.8174 68.5604 32.1971 68.5246 31.3858C68.4888 30.5746 68.8586 29.9303 69.3716 29.8945C69.8846 29.8587 70.3499 30.4791 70.3976 31.2784Z" fill="#2E353A"/>
<path d="M61.4023 31.827C61.4023 32.6144 61.0682 33.2825 60.5433 33.3183C60.0184 33.354 59.565 32.7337 59.5173 31.9344C59.4696 31.135 59.8513 30.467 60.3643 30.4312C60.8773 30.3954 61.3545 31.0157 61.4023 31.827Z" fill="#2E353A"/>
<path d="M60.6029 30.4671L58.6583 30.0376C58.6583 30.0376 59.732 31.4573 60.6029 30.4671Z" fill="#2E353A"/>
<path d="M69.5982 29.9302L67.6536 29.4888C67.6536 29.4888 68.7273 30.9204 69.5982 29.9302Z" fill="#2E353A"/>
<path d="M63.2395 41.2281C63.2395 41.2281 65.4346 40.1901 71.9843 39.1045C71.7576 41.586 70.7913 43.7215 67.4031 44.2702C66.508 44.4185 65.5901 44.2214 64.8348 43.7186C64.0796 43.2159 63.5435 42.4451 63.3349 41.5621C63.2991 41.4428 63.2633 41.3116 63.2395 41.2281Z" fill="#2E353A"/>
<path d="M68.5246 42.1465C67.2089 42.2755 65.9924 42.903 65.1245 43.9002C65.8132 44.2736 66.6103 44.3959 67.3793 44.2462C68.6911 44.1244 69.9051 43.5003 70.7675 42.5044C70.0888 42.1146 69.2908 41.9872 68.5246 42.1465Z" fill="#882B29"/>
<path d="M63.49 41.1208C63.6018 41.3825 63.779 41.6111 64.0046 41.7845C64.2303 41.9579 64.4968 42.0703 64.7785 42.111C66.7135 41.7688 68.6112 41.2414 70.4453 40.5362C70.7533 40.432 71.027 40.246 71.2372 39.9979C71.4474 39.7499 71.5861 39.4493 71.6383 39.1284C68.8653 39.5332 66.137 40.2003 63.49 41.1208Z" fill="white"/>
<path d="M83.4493 31.5048C82.1319 30.802 81.0004 29.7962 80.1479 28.5704C79.2954 27.3446 78.7463 25.9337 78.546 24.4541C77.9733 19.4792 72.9388 20.362 72.9388 20.362C72.9388 20.362 58.4317 25.1341 54.2085 19.7059C49.9852 14.2777 58.7777 14.6236 58.7777 14.6236C58.7777 14.6236 55.1987 5.37777 64.0151 10.4242C64.0151 10.4242 74.9192 4.28019 82.471 10.3646C94.6755 20.2069 88.3048 30.7293 88.3048 30.7293C88.3048 30.7293 93.0769 37.0523 87.2311 37.0881C87.2311 37.0881 90.8102 39.2236 87.2311 41.4068C81.6001 44.8069 83.4493 31.5048 83.4493 31.5048Z" fill="#263238"/>
<path d="M58.05 21.9252C71.6742 16.5327 83.2822 21.3525 89.5217 27.6874C89.5217 27.8783 89.5217 28.0215 89.5814 28.1408C89.6815 28.6512 89.6122 29.1803 89.3839 29.6476C89.1556 30.115 88.7809 30.4949 88.3168 30.7296C87.7083 30.1451 74.8596 17.2963 57.9545 24.8481C57.9545 24.8481 57.1075 24.2635 57.1791 23.7386C57.2507 23.2136 57.4177 22.2234 58.05 21.9252Z" fill="#407BFF"/>
</svg>
